<svg xmlns="http://www.w3.org/2000/svg" width="27.802" height="24.468" viewBox="0 0 27.802 24.468">
  <g id="Group_17658" data-name="Group 17658" transform="translate(-23.707 -15.322)">
    <path id="Icon_map-food" data-name="Icon map-food" d="M27.34,9.067,25.153,26.212H17.766L15.588,8.981h9.019l1.783-6.157,1.01.3-1.71,5.925,1.651.013Zm-12.8,9.919s.276-2.223-3.554-2.223h-6.1c-3.825,0-3.554,2.223-3.554,2.223h13.21Zm-13.21,5s-.271,2.223,3.554,2.223h6.1c3.831,0,3.554-2.223,3.554-2.223H1.334ZM13.97,22.877A1.278,1.278,0,0,0,15.1,21.488,1.277,1.277,0,0,0,13.97,20.1H1.854A1.279,1.279,0,0,0,.72,21.488a1.281,1.281,0,0,0,1.134,1.389Z" transform="translate(23.237 12.81)" fill="#373737" stroke="#373737" stroke-width="0.5"/>
    <path id="Path_10081" data-name="Path 10081" d="M34.626,18.464l11.833-.013-.365,2.78-1.9,14.487H36.782Z" transform="translate(4.195 3.324)" fill="#00c448" stroke="#00c448" stroke-width="1.5"/>
  </g>
</svg>
