<svg xmlns="http://www.w3.org/2000/svg" width="17.161" height="16.6" viewBox="0 0 17.161 16.6">
  <g id="Group_16928" data-name="Group 16928" transform="translate(0.5 0.5)" opacity="0.5">
    <path id="Path_9207" data-name="Path 9207" d="M9.523,23.25h12.42a1.841,1.841,0,0,0,1.868-1.8V9.458A1.841,1.841,0,0,0,21.943,7.65H9.523A1.841,1.841,0,0,0,7.65,9.458V21.447a1.842,1.842,0,0,0,1.873,1.8ZM8.529,9.477a.977.977,0,0,1,.994-.959h12.42a.977.977,0,0,1,.994.959V21.466a.977.977,0,0,1-.994.959H9.523a.977.977,0,0,1-.994-.959Z" transform="translate(-7.65 -7.65)" fill="none" stroke="#000" stroke-width="1"/>
    <path id="Path_9208" data-name="Path 9208" d="M15.235,18.727h9.106a.509.509,0,0,0,.454-.234.32.32,0,0,0-.107-.414l-2.541-2.009a.606.606,0,0,0-.678.013.324.324,0,0,0-.028.524l1.709,1.357H15.235a.386.386,0,1,0,0,.764Zm9.106,1.284H15.235a.522.522,0,0,0-.458.235.333.333,0,0,0,.1.431l2.547,2a.6.6,0,0,0,.695,0,.326.326,0,0,0,0-.542L16.4,20.783h7.943a.4.4,0,1,0,0-.768Z" transform="translate(-11.714 -11.555)" fill="none" stroke="#000" stroke-width="1"/>
  </g>
</svg>
