<svg xmlns="http://www.w3.org/2000/svg" width="25.308" height="20.343" viewBox="0 0 25.308 20.343">
  <g id="mail" transform="translate(-4 -6.757)">
    <path id="Path_10522" data-name="Path 10522" d="M4.514,8.607a1.35,1.35,0,0,1,1.35-1.35H27.457a1.35,1.35,0,0,1,1.35,1.35V23.9a2.7,2.7,0,0,1-2.7,2.7H7.2a2.7,2.7,0,0,1-2.7-2.7V9.045a1.307,1.307,0,0,1,.014-.189Zm2.687,3V23.9H26.107V11.611L19.519,18.2a4.051,4.051,0,0,1-5.728,0L7.2,11.608Zm2.123-1.7h14.66L17.61,16.289a1.35,1.35,0,0,1-1.911,0L9.325,9.915Z" transform="translate(0 0)" fill="#34c6c8" stroke="#707070" stroke-width="1" fill-rule="evenodd"/>
  </g>
</svg>
