<svg xmlns="http://www.w3.org/2000/svg" width="29.047" height="19.967" viewBox="0 0 29.047 19.967">
  <g id="Group_16954" data-name="Group 16954" transform="translate(-464.294 -288.042)" opacity="0.5">
    <path id="Path_9275" data-name="Path 9275" d="M922.968,302.251a5.415,5.415,0,0,1-1.2-4.219,7.107,7.107,0,0,1,6.84-6.062h8.443l-.18,1.464a.393.393,0,0,0,.608.378l4.595-2.477a.442.442,0,0,0,.093-.756l-3.986-2.478a.486.486,0,0,0-.7.378l-.18,1.464H928.86a9.4,9.4,0,0,0-9.121,8.082,7.31,7.31,0,0,0,1.1,4.982h1.713A.487.487,0,0,0,922.968,302.251Z" transform="translate(-448.996)"/>
    <path id="Path_9276" data-name="Path 9276" d="M464.469,657.162l3.986,2.477a.486.486,0,0,0,.7-.378l.18-1.464h8.5a9.068,9.068,0,0,0,6.006-2.367,9.2,9.2,0,0,0,3.069-5.715,7.309,7.309,0,0,0-1.1-4.982h-1.712a.487.487,0,0,0-.414.755,5.416,5.416,0,0,1,1.2,4.227,7.054,7.054,0,0,1-6.8,6.056h-8.5l.18-1.464a.393.393,0,0,0-.608-.378l-4.595,2.477A.442.442,0,0,0,464.469,657.162Z" transform="translate(0 -351.689)"/>
  </g>
</svg>
