<svg xmlns="http://www.w3.org/2000/svg" width="21.312" height="21.35" viewBox="0 0 21.312 21.35">
  <path id="Icon_feather-phone-call" data-name="Icon feather-phone-call" d="M15.39,5.279A4.723,4.723,0,0,1,19.122,9.01M15.39,1.5A8.5,8.5,0,0,1,22.9,9m-.945,7.539v2.834A1.889,1.889,0,0,1,19.9,21.263a18.7,18.7,0,0,1-8.153-2.9,18.421,18.421,0,0,1-5.668-5.668,18.7,18.7,0,0,1-2.9-8.19,1.889,1.889,0,0,1,1.88-2.059H7.889A1.889,1.889,0,0,1,9.779,4.07a12.13,12.13,0,0,0,.661,2.655,1.889,1.889,0,0,1-.425,1.993l-1.2,1.2a15.115,15.115,0,0,0,5.668,5.668l1.2-1.2a1.889,1.889,0,0,1,1.993-.425,12.129,12.129,0,0,0,2.655.661A1.889,1.889,0,0,1,21.956,16.539Z" transform="translate(-2.417 -0.672)" fill="#34c6c8" stroke="#4d4d4d" stroke-linecap="round" stroke-linejoin="round" stroke-width="1.5"/>
</svg>
