<svg id="Group_16924" data-name="Group 16924" xmlns="http://www.w3.org/2000/svg" width="28.602" height="28.374" viewBox="0 0 28.602 28.374">
  <path id="Path_9262" data-name="Path 9262" d="M1937.333,1929.169h-8.164v8.164h8.164Zm-1.328,6.836H1930.5V1930.5h5.509Z" transform="translate(-1925.073 -1925.186)" fill="#34c6c8"/>
  <rect id="Rectangle_193" data-name="Rectangle 193" width="3.186" height="3.186" transform="translate(6.585 6.471)" fill="#34c6c8"/>
  <path id="Path_9263" data-name="Path 9263" d="M2614.166,1929.169v8.164h8.164v-8.164Zm6.836,6.836h-5.509V1930.5H2621Z" transform="translate(-2597.824 -1925.186)" fill="#34c6c8"/>
  <rect id="Rectangle_194" data-name="Rectangle 194" width="3.186" height="3.186" transform="translate(18.831 6.471)" fill="#34c6c8"/>
  <path id="Path_9264" data-name="Path 9264" d="M1929.169,2622.33h8.164v-8.164h-8.164Zm1.327-6.836h5.509V2621H1930.5Z" transform="translate(-1925.073 -2597.938)" fill="#34c6c8"/>
  <rect id="Rectangle_195" data-name="Rectangle 195" width="3.186" height="3.186" transform="translate(6.585 18.717)" fill="#34c6c8"/>
  <rect id="Rectangle_196" data-name="Rectangle 196" width="1.892" height="1.327" transform="translate(4.096 13.524)" fill="#34c6c8"/>
  <path id="Path_9265" data-name="Path 9265" d="M2098.1,1938.71v1.327h7.849v-10.869h-1.327v9.542Z" transform="translate(-2090.982 -1925.186)" fill="#34c6c8"/>
  <rect id="Rectangle_197" data-name="Rectangle 197" width="5.227" height="1.327" transform="translate(13.637 16.228)" fill="#34c6c8"/>
  <path id="Path_9266" data-name="Path 9266" d="M2759.564,2797.851h-4.314v1.328h5.641v-4.946h-1.327Z" transform="translate(-2736.385 -2774.785)" fill="#34c6c8"/>
  <path id="Path_9267" data-name="Path 9267" d="M2756.577,2795.561h1.725v-1.328h-3.053v2.19h1.328Z" transform="translate(-2736.385 -2774.785)" fill="#34c6c8"/>
  <path id="Path_9268" data-name="Path 9268" d="M2618.414,2465.926h1.328v-3.053h-5.576v1.328h4.248Z" transform="translate(-2597.824 -2449.349)" fill="#34c6c8"/>
  <rect id="Rectangle_198" data-name="Rectangle 198" width="28.602" height="1.327" transform="translate(0 13.524)" fill="#0b0b0b"/>
  <rect id="Rectangle_199" data-name="Rectangle 199" width="1.394" height="1.327" transform="translate(23.112 16.228)" fill="#34c6c8"/>
  <path id="Path_9269" data-name="Path 9269" d="M2464.9,2795.361h-2.025v3.818h1.328v-2.49h2.024v-2.456H2464.9Z" transform="translate(-2449.235 -2774.785)" fill="#34c6c8"/>
  <g id="Group_16919" data-name="Group 16919" transform="translate(0.114 0)">
    <path id="Path_9270" data-name="Path 9270" d="M2987.3,1706.406v1.327h4.148v4.149h1.327v-5.476Z" transform="translate(-2964.396 -1706.406)" fill="#34c6c8"/>
    <path id="Path_9271" data-name="Path 9271" d="M1706.406,1711.881h1.327v-4.149h4.148v-1.327h-5.476Z" transform="translate(-1706.406 -1706.406)" fill="#34c6c8"/>
    <path id="Path_9272" data-name="Path 9272" d="M1711.881,2992.771v-1.327h-4.148V2987.3h-1.327v5.475Z" transform="translate(-1706.406 -2964.396)" fill="#34c6c8"/>
    <path id="Path_9273" data-name="Path 9273" d="M2992.771,2987.3h-1.327v4.148H2987.3v1.327h5.475Z" transform="translate(-2964.396 -2964.396)" fill="#34c6c8"/>
  </g>
</svg>
