<svg xmlns="http://www.w3.org/2000/svg" width="17.459" height="25.748" viewBox="0 0 17.459 25.748">
  <g id="Group_16895" data-name="Group 16895" transform="translate(0)">
    <path id="Path_9240" data-name="Path 9240" d="M104.958,16.229a8.729,8.729,0,1,0-12.734,7.758,2.687,2.687,0,0,1,1.466,2.383v.039h5.077v-.064A2.646,2.646,0,0,1,100.217,24a8.728,8.728,0,0,0,4.742-7.767Z" transform="translate(-87.5 -7.5)" fill="#fed030"/>
    <path id="Path_9241" data-name="Path 9241" d="M234.858,7.5a8.721,8.721,0,0,0-1.266.078A8.731,8.731,0,0,1,236.409,24a2.646,2.646,0,0,0-1.449,2.349v.064h2.331v-.064A2.646,2.646,0,0,1,238.74,24a8.73,8.73,0,0,0-3.882-16.5Z" transform="translate(-226.024 -7.501)" fill="#fed030"/>
    <path id="Path_9242" data-name="Path 9242" d="M212,464.676h-1.125a1.554,1.554,0,0,1-1.464-1.031L209,462.5h4.87l-.409,1.144A1.554,1.554,0,0,1,212,464.676Z" transform="translate(-202.706 -438.928)" fill="#0b0b0b"/>
    <rect id="Rectangle_184" data-name="Rectangle 184" width="8.339" height="1.972" rx="0.986" transform="translate(4.56 17.894)" fill="#0b0b0b"/>
    <rect id="Rectangle_185" data-name="Rectangle 185" width="8.339" height="1.972" rx="0.986" transform="translate(4.56 19.866)" fill="#0b0b0b"/>
    <rect id="Rectangle_186" data-name="Rectangle 186" width="8.339" height="1.972" rx="0.986" transform="translate(4.56 21.838)" fill="#0b0b0b"/>
    <path id="Path_9247" data-name="Path 9247" d="M202.757,77.338l1.811,1.58a.207.207,0,0,1,.054.237l-1.652,3.873a.207.207,0,0,0,.326.238l4.843-4.177a.207.207,0,0,0,.012-.3l-1.989-2.015a.207.207,0,0,1-.045-.222l1.5-3.779a.207.207,0,0,0-.338-.224l-4.533,4.487a.207.207,0,0,0,.01.3Z" transform="translate(-196.718 -69.12)" fill="#0b0b0b"/>
    <path id="Path_9248" data-name="Path 9248" d="M213.053,78.786l-1.989-2.015a.207.207,0,0,1-.045-.222l1.5-3.779a.207.207,0,0,0-.338-.224l-1.858,1.839-.86,2.164a.207.207,0,0,0,.045.222l1.989,2.015a.207.207,0,0,1-.012.3l-3.061,2.64-.554,1.3a.207.207,0,0,0,.326.238l4.843-4.177a.207.207,0,0,0,.012-.3Z" transform="translate(-201.621 -69.12)" fill="#0b0b0b"/>
  </g>
</svg>
