<svg xmlns="http://www.w3.org/2000/svg" xmlns:xlink="http://www.w3.org/1999/xlink" width="287" height="225.613" viewBox="0 0 287 225.613">
  <defs>
    <clipPath id="clip-path">
      <rect id="Rectangle_2611" data-name="Rectangle 2611" width="84.232" height="149.931" fill="none"/>
    </clipPath>
  </defs>
  <g id="Group_17218" data-name="Group 17218" transform="translate(-371.952 -219.04)">
    <g id="Group_17126" data-name="Group 17126" transform="translate(511.729 259.873)" opacity="0.5">
      <path id="Path_9830" data-name="Path 9830" d="M1761.877,503.421l9.814,37.542a3.123,3.123,0,0,1-2.225,3.8l-65.859,17.216a3.123,3.123,0,0,1-3.8-2.225l-9.814-37.542a3.123,3.123,0,0,1,2.225-3.8l65.859-17.216A3.123,3.123,0,0,1,1761.877,503.421Z" transform="translate(-1689.892 -501.095)" fill="#aac9f5"/>
      <g id="Group_17125" data-name="Group 17125" transform="translate(5.196 5.91)">
        <path id="Path_9831" data-name="Path 9831" d="M1798.271,810.275l-17.552,4.588a1.4,1.4,0,0,1-1.7-1l-.044-.169a1.4,1.4,0,0,1,1-1.7l17.552-4.589a1.4,1.4,0,0,1,1.7,1l.044.169A1.4,1.4,0,0,1,1798.271,810.275Z" transform="translate(-1771.232 -768.933)" fill="#cde0fb"/>
        <path id="Path_9832" data-name="Path 9832" d="M1958.049,768.509,1940.5,773.1a1.4,1.4,0,0,1-1.7-1l-.044-.169a1.4,1.4,0,0,1,1-1.7l17.552-4.588a1.4,1.4,0,0,1,1.7,1l.044.169A1.4,1.4,0,0,1,1958.049,768.509Z" transform="translate(-1907.879 -733.213)" fill="#cde0fb"/>
        <g id="Group_17117" data-name="Group 17117" transform="translate(26.877 10.303)">
          <path id="Path_9833" data-name="Path 9833" d="M1914.855,680.338a3.375,3.375,0,0,1,.076,1.66,1.529,1.529,0,0,1-2.6.68,4.016,4.016,0,0,1-.827-3.138,1.54,1.54,0,0,1,2.614-.683A3.394,3.394,0,0,1,1914.855,680.338Zm-.806.207a3.343,3.343,0,0,0-.4-.976q-.371-.559-.848-.435t-.534.789a3.238,3.238,0,0,0,.123,1.055q.428,1.638,1.264,1.419.483-.126.526-.8A3.34,3.34,0,0,0,1914.049,680.545Z" transform="translate(-1911.436 -668.914)" fill="#cde0fb"/>
          <path id="Path_9834" data-name="Path 9834" d="M1939.75,673.831a3.376,3.376,0,0,1,.077,1.661,1.529,1.529,0,0,1-2.6.68,4.016,4.016,0,0,1-.827-3.138,1.54,1.54,0,0,1,2.613-.683A3.39,3.39,0,0,1,1939.75,673.831Zm-.806.207a3.351,3.351,0,0,0-.4-.976q-.371-.559-.848-.435t-.535.789a3.238,3.238,0,0,0,.124,1.055q.428,1.638,1.264,1.419.483-.126.525-.8A3.331,3.331,0,0,0,1938.945,674.038Z" transform="translate(-1932.727 -663.35)" fill="#cde0fb"/>
          <path id="Path_9835" data-name="Path 9835" d="M1977.478,663.969a3.378,3.378,0,0,1,.077,1.66,1.529,1.529,0,0,1-2.6.68,4.015,4.015,0,0,1-.827-3.138,1.54,1.54,0,0,1,2.613-.683A3.388,3.388,0,0,1,1977.478,663.969Zm-.806.207a3.345,3.345,0,0,0-.4-.976q-.371-.559-.848-.435t-.534.789a3.231,3.231,0,0,0,.123,1.055q.428,1.638,1.264,1.419.483-.126.525-.8A3.337,3.337,0,0,0,1976.672,664.176Z" transform="translate(-1964.993 -654.915)" fill="#cde0fb"/>
          <path id="Path_9836" data-name="Path 9836" d="M2002.373,657.461a3.382,3.382,0,0,1,.077,1.661,1.529,1.529,0,0,1-2.6.68,4.013,4.013,0,0,1-.827-3.138,1.54,1.54,0,0,1,2.613-.683A3.4,3.4,0,0,1,2002.373,657.461Zm-.806.207a3.343,3.343,0,0,0-.4-.976q-.371-.559-.848-.435t-.535.789a3.239,3.239,0,0,0,.124,1.055q.429,1.638,1.264,1.419.483-.126.525-.8A3.33,3.33,0,0,0,2001.567,657.668Z" transform="translate(-1986.283 -649.349)" fill="#cde0fb"/>
          <path id="Path_9837" data-name="Path 9837" d="M2027.268,650.954a3.374,3.374,0,0,1,.077,1.661,1.529,1.529,0,0,1-2.6.68,4.012,4.012,0,0,1-.827-3.138,1.54,1.54,0,0,1,2.613-.683A3.389,3.389,0,0,1,2027.268,650.954Zm-.806.208a3.348,3.348,0,0,0-.4-.976q-.371-.559-.848-.435t-.535.789a3.225,3.225,0,0,0,.123,1.055q.428,1.638,1.264,1.419.483-.126.525-.8A3.332,3.332,0,0,0,2026.462,651.161Z" transform="translate(-2007.575 -643.784)" fill="#cde0fb"/>
          <path id="Path_9838" data-name="Path 9838" d="M2052.163,644.446a3.381,3.381,0,0,1,.077,1.66,1.53,1.53,0,0,1-2.6.68,4.016,4.016,0,0,1-.827-3.138,1.54,1.54,0,0,1,2.614-.683A3.391,3.391,0,0,1,2052.163,644.446Zm-.806.207a3.366,3.366,0,0,0-.4-.976q-.372-.559-.848-.435t-.535.789a3.231,3.231,0,0,0,.124,1.055q.428,1.638,1.264,1.419.483-.126.525-.8A3.338,3.338,0,0,0,2051.357,644.653Z" transform="translate(-2028.865 -638.219)" fill="#cde0fb"/>
          <path id="Path_9839" data-name="Path 9839" d="M2089.891,634.584a3.381,3.381,0,0,1,.076,1.66,1.529,1.529,0,0,1-2.6.68,4.013,4.013,0,0,1-.827-3.138,1.54,1.54,0,0,1,2.614-.683A3.4,3.4,0,0,1,2089.891,634.584Zm-.807.207a3.362,3.362,0,0,0-.4-.976q-.371-.56-.848-.435t-.535.789a3.245,3.245,0,0,0,.124,1.055q.428,1.638,1.264,1.419.483-.126.525-.8A3.325,3.325,0,0,0,2089.084,634.791Z" transform="translate(-2061.131 -629.784)" fill="#cde0fb"/>
          <path id="Path_9840" data-name="Path 9840" d="M2114.786,628.076a3.386,3.386,0,0,1,.077,1.661,1.529,1.529,0,0,1-2.6.68,4.013,4.013,0,0,1-.827-3.138,1.54,1.54,0,0,1,2.614-.683A3.389,3.389,0,0,1,2114.786,628.076Zm-.806.207a3.339,3.339,0,0,0-.4-.976q-.371-.559-.847-.435t-.535.79a3.252,3.252,0,0,0,.124,1.055q.428,1.638,1.264,1.419.483-.126.525-.8A3.339,3.339,0,0,0,2113.98,628.283Z" transform="translate(-2082.423 -624.219)" fill="#cde0fb"/>
          <path id="Path_9841" data-name="Path 9841" d="M2139.681,621.568a3.382,3.382,0,0,1,.077,1.66,1.53,1.53,0,0,1-2.6.68,4.02,4.02,0,0,1-.827-3.138,1.54,1.54,0,0,1,2.614-.683A3.4,3.4,0,0,1,2139.681,621.568Zm-.806.207a3.36,3.36,0,0,0-.4-.976q-.371-.559-.848-.434t-.534.789a3.227,3.227,0,0,0,.124,1.055q.428,1.638,1.264,1.419.483-.126.525-.8A3.323,3.323,0,0,0,2138.875,621.776Z" transform="translate(-2103.713 -618.653)" fill="#cde0fb"/>
          <path id="Path_9842" data-name="Path 9842" d="M2164.576,615.061a3.379,3.379,0,0,1,.077,1.66,1.529,1.529,0,0,1-2.6.68,4.01,4.01,0,0,1-.827-3.138,1.54,1.54,0,0,1,2.613-.683A3.4,3.4,0,0,1,2164.576,615.061Zm-.806.207a3.337,3.337,0,0,0-.4-.976q-.371-.559-.848-.435t-.535.789a3.23,3.23,0,0,0,.123,1.055q.429,1.638,1.265,1.419.483-.126.525-.8A3.339,3.339,0,0,0,2163.77,615.268Z" transform="translate(-2125.005 -613.088)" fill="#cde0fb"/>
        </g>
        <path id="Path_9843" data-name="Path 9843" d="M1744.708,607.482l-17.177,4.49a1.4,1.4,0,0,1-1.7-1h0a1.4,1.4,0,0,1,1-1.7l17.178-4.49a1.4,1.4,0,0,1,1.7,1h0A1.4,1.4,0,0,1,1744.708,607.482Z" transform="translate(-1725.782 -595.642)" fill="#cde0fb"/>
        <g id="Group_17122" data-name="Group 17122" transform="translate(59.262)">
          <g id="Group_17118" data-name="Group 17118" transform="translate(0 2.825)">
            <path id="Path_9844" data-name="Path 9844" d="M2136.358,562.654a2.135,2.135,0,0,0-.795-1.178.229.229,0,0,0-.335.07l-.059.1a.227.227,0,0,0,.059.294,1.568,1.568,0,0,1,.492,1.885.226.226,0,0,0,.093.285l.1.061a.228.228,0,0,0,.326-.1A2.137,2.137,0,0,0,2136.358,562.654Z" transform="translate(-2135.139 -561.431)" fill="#cde0fb"/>
          </g>
          <g id="Group_17119" data-name="Group 17119" transform="translate(0.6 1.823)">
            <path id="Path_9845" data-name="Path 9845" d="M2141.015,556.445a3.275,3.275,0,0,0-1.346-1.9.227.227,0,0,0-.323.078l-.034.058a.229.229,0,0,0,.072.3,2.764,2.764,0,0,1,.921,3.524.229.229,0,0,0,.086.3l.057.035a.228.228,0,0,0,.32-.09A3.277,3.277,0,0,0,2141.015,556.445Z" transform="translate(-2139.283 -554.511)" fill="#cde0fb"/>
          </g>
          <g id="Group_17120" data-name="Group 17120" transform="translate(1.136 0.947)">
            <path id="Path_9846" data-name="Path 9846" d="M2145.156,551.013a4.289,4.289,0,0,0-1.82-2.519.228.228,0,0,0-.321.079h0a.227.227,0,0,0,.074.3,3.838,3.838,0,0,1,1.31,5.011.227.227,0,0,0,.085.3h0a.228.228,0,0,0,.318-.088A4.288,4.288,0,0,0,2145.156,551.013Z" transform="translate(-2142.984 -548.458)" fill="#cde0fb"/>
          </g>
          <g id="Group_17121" data-name="Group 17121" transform="translate(1.621)">
            <path id="Path_9847" data-name="Path 9847" d="M2149.08,545.144a5.374,5.374,0,0,0-2.333-3.19.229.229,0,0,0-.322.079l-.058.1a.227.227,0,0,0,.075.305,4.817,4.817,0,0,1,1.661,6.355.227.227,0,0,0,.084.3l.1.06a.229.229,0,0,0,.319-.088A5.375,5.375,0,0,0,2149.08,545.144Z" transform="translate(-2146.337 -541.918)" fill="#cde0fb"/>
          </g>
        </g>
        <g id="Group_17124" data-name="Group 17124" transform="translate(8.874 45.437)">
          <g id="Group_17123" data-name="Group 17123">
            <path id="Path_9848" data-name="Path 9848" d="M1788.729,874.565a1.634,1.634,0,0,1,.037.8.737.737,0,0,1-1.254.328,1.935,1.935,0,0,1-.4-1.514.743.743,0,0,1,1.26-.329A1.636,1.636,0,0,1,1788.729,874.565Zm-.389.1a1.615,1.615,0,0,0-.193-.471q-.179-.27-.409-.209t-.258.381a1.555,1.555,0,0,0,.06.509q.207.79.61.685.233-.061.253-.386A1.615,1.615,0,0,0,1788.34,874.665Z" transform="translate(-1787.079 -871.03)" fill="#cde0fb"/>
            <path id="Path_9849" data-name="Path 9849" d="M1800.736,871.426a1.626,1.626,0,0,1,.037.8.738.738,0,0,1-1.255.328,1.937,1.937,0,0,1-.4-1.513.743.743,0,0,1,1.26-.329A1.634,1.634,0,0,1,1800.736,871.426Zm-.389.1a1.614,1.614,0,0,0-.193-.471q-.179-.27-.409-.21t-.258.381a1.554,1.554,0,0,0,.06.509q.206.79.61.685.233-.061.253-.386A1.615,1.615,0,0,0,1800.347,871.526Z" transform="translate(-1797.349 -868.346)" fill="#cde0fb"/>
            <path id="Path_9850" data-name="Path 9850" d="M1813.25,867.223a.255.255,0,0,1-.005.112l-.416,2.111c-.02.1-.066.164-.137.183a.16.16,0,0,1-.124-.015.154.154,0,0,1-.075-.1.251.251,0,0,1,0-.115l.422-2.108c.02-.1.066-.161.135-.179a.172.172,0,0,1,.126.012A.147.147,0,0,1,1813.25,867.223Z" transform="translate(-1808.808 -865.466)" fill="#cde0fb"/>
            <path id="Path_9851" data-name="Path 9851" d="M1820.954,866.141a1.627,1.627,0,0,1,.037.8.737.737,0,0,1-1.254.328,1.935,1.935,0,0,1-.4-1.513.743.743,0,0,1,1.26-.33A1.635,1.635,0,0,1,1820.954,866.141Zm-.389.1a1.613,1.613,0,0,0-.193-.471q-.179-.27-.409-.21t-.258.381a1.564,1.564,0,0,0,.06.509q.207.79.61.685.233-.061.253-.386A1.606,1.606,0,0,0,1820.565,866.241Z" transform="translate(-1814.639 -863.826)" fill="#cde0fb"/>
            <path id="Path_9852" data-name="Path 9852" d="M1832.961,863a1.63,1.63,0,0,1,.037.8.738.738,0,0,1-1.255.328,1.936,1.936,0,0,1-.4-1.513.743.743,0,0,1,1.26-.33A1.637,1.637,0,0,1,1832.961,863Zm-.389.1a1.609,1.609,0,0,0-.193-.471q-.179-.27-.409-.21t-.257.381a1.555,1.555,0,0,0,.059.509q.207.79.61.685.233-.061.253-.386A1.612,1.612,0,0,0,1832.573,863.1Z" transform="translate(-1824.909 -861.142)" fill="#cde0fb"/>
            <path id="Path_9853" data-name="Path 9853" d="M1844.969,859.863a1.627,1.627,0,0,1,.037.8.737.737,0,0,1-1.254.328,1.934,1.934,0,0,1-.4-1.513.742.742,0,0,1,1.26-.33A1.634,1.634,0,0,1,1844.969,859.863Zm-.389.1a1.608,1.608,0,0,0-.193-.471q-.179-.27-.409-.21t-.258.381a1.548,1.548,0,0,0,.06.509q.206.79.609.684.233-.061.253-.386A1.6,1.6,0,0,0,1844.58,859.964Z" transform="translate(-1835.177 -858.457)" fill="#cde0fb"/>
            <path id="Path_9854" data-name="Path 9854" d="M1856.976,856.725a1.633,1.633,0,0,1,.037.8.737.737,0,0,1-1.254.328,1.933,1.933,0,0,1-.4-1.513.742.742,0,0,1,1.26-.329A1.633,1.633,0,0,1,1856.976,856.725Zm-.389.1a1.615,1.615,0,0,0-.193-.471q-.179-.27-.409-.21t-.258.381a1.554,1.554,0,0,0,.06.509q.207.79.61.685.233-.061.253-.386A1.6,1.6,0,0,0,1856.587,856.825Z" transform="translate(-1845.446 -855.773)" fill="#cde0fb"/>
          </g>
        </g>
      </g>
    </g>
    <g id="Group_17133" data-name="Group 17133" transform="translate(529.007 383.654)">
      <path id="Path_9857" data-name="Path 9857" d="M1878.515,1745.954v2.439a.93.93,0,0,1-.161.525.949.949,0,0,1-.441.352.891.891,0,0,1-.172.048.906.906,0,0,1-.166.015h-38.843a.943.943,0,0,1-.938-.891c0-.016,0-.032,0-.048v-2.439c0-.016,0-.032,0-.048a.943.943,0,0,1,.938-.891h38.843a.906.906,0,0,1,.166.015.883.883,0,0,1,.172.048.947.947,0,0,1,.441.352A.929.929,0,0,1,1878.515,1745.954Z" transform="translate(-1833.659 -1688.714)" fill="#afcdfb"/>
      <path id="Path_9858" data-name="Path 9858" d="M1856.886,1745.014h-18.254a.891.891,0,0,0-.838.891c0,.016,0,.032,0,.048v2.439c0,.016,0,.032,0,.048a.891.891,0,0,0,.838.891h20.809A7.735,7.735,0,0,1,1856.886,1745.014Z" transform="translate(-1833.659 -1688.714)" fill="#77a4e5"/>
      <rect id="Rectangle_2361" data-name="Rectangle 2361" width="0.442" height="4.318" transform="translate(39.688 56.301)" fill="#77a4e5"/>
      <rect id="Rectangle_2362" data-name="Rectangle 2362" width="0.442" height="4.318" transform="translate(38.194 56.301)" fill="#77a4e5"/>
      <rect id="Rectangle_2363" data-name="Rectangle 2363" width="0.442" height="4.318" transform="translate(36.402 56.301)" fill="#77a4e5"/>
      <rect id="Rectangle_2364" data-name="Rectangle 2364" width="0.442" height="4.318" transform="translate(33.655 56.301)" fill="#77a4e5"/>
      <rect id="Rectangle_2365" data-name="Rectangle 2365" width="0.442" height="4.318" transform="translate(30.75 56.301)" fill="#77a4e5"/>
      <rect id="Rectangle_2366" data-name="Rectangle 2366" width="0.442" height="4.318" transform="translate(26.297 56.301)" fill="#77a4e5"/>
      <rect id="Rectangle_2367" data-name="Rectangle 2367" width="0.441" height="4.318" transform="translate(41.11 56.301)" fill="#77a4e5"/>
      <rect id="Rectangle_2368" data-name="Rectangle 2368" width="0.442" height="4.318" transform="translate(42.05 56.301)" fill="#77a4e5"/>
      <rect id="Rectangle_2369" data-name="Rectangle 2369" width="0.441" height="4.318" transform="translate(42.958 56.301)" fill="#77a4e5"/>
      <path id="Path_9859" data-name="Path 9859" d="M2110.685,1745.014v4.318h.276a.917.917,0,0,0,.166-.015v-4.288a.906.906,0,0,0-.166-.015Z" transform="translate(-2067.045 -1688.714)" fill="#77a4e5"/>
      <path id="Path_9860" data-name="Path 9860" d="M2114.924,1745.452v4.192a.949.949,0,0,0,.441-.352V1745.8A.949.949,0,0,0,2114.924,1745.452Z" transform="translate(-2070.67 -1689.088)" fill="#77a4e5"/>
      <path id="Path_9861" data-name="Path 9861" d="M1866.292,1716.125v2.439a.93.93,0,0,1-.161.525.945.945,0,0,1-.441.351.856.856,0,0,1-.172.049.92.92,0,0,1-.166.015H1826.51a.943.943,0,0,1-.939-.891c0-.016,0-.032,0-.048v-2.439c0-.016,0-.032,0-.049a.943.943,0,0,1,.939-.891h38.842a.92.92,0,0,1,.166.015.872.872,0,0,1,.172.048.946.946,0,0,1,.441.352A.93.93,0,0,1,1866.292,1716.125Z" transform="translate(-1823.206 -1663.203)" fill="#afcdfb"/>
      <path id="Path_9862" data-name="Path 9862" d="M1844.663,1715.185h-18.254a.891.891,0,0,0-.838.891c0,.016,0,.032,0,.049v2.439c0,.016,0,.032,0,.048a.891.891,0,0,0,.838.891h20.81A7.735,7.735,0,0,1,1844.663,1715.185Z" transform="translate(-1823.206 -1663.203)" fill="#77a4e5"/>
      <rect id="Rectangle_2370" data-name="Rectangle 2370" width="0.441" height="4.318" transform="translate(37.918 51.983)" fill="#77a4e5"/>
      <rect id="Rectangle_2371" data-name="Rectangle 2371" width="0.442" height="4.318" transform="translate(36.424 51.983)" fill="#77a4e5"/>
      <rect id="Rectangle_2372" data-name="Rectangle 2372" width="0.442" height="4.318" transform="translate(34.632 51.983)" fill="#77a4e5"/>
      <rect id="Rectangle_2373" data-name="Rectangle 2373" width="0.441" height="4.318" transform="translate(31.885 51.983)" fill="#77a4e5"/>
      <rect id="Rectangle_2374" data-name="Rectangle 2374" width="0.442" height="4.318" transform="translate(28.981 51.983)" fill="#77a4e5"/>
      <rect id="Rectangle_2375" data-name="Rectangle 2375" width="0.441" height="4.318" transform="translate(24.528 51.983)" fill="#77a4e5"/>
      <rect id="Rectangle_2376" data-name="Rectangle 2376" width="0.441" height="4.318" transform="translate(39.341 51.983)" fill="#77a4e5"/>
      <rect id="Rectangle_2377" data-name="Rectangle 2377" width="0.441" height="4.318" transform="translate(40.281 51.983)" fill="#77a4e5"/>
      <rect id="Rectangle_2378" data-name="Rectangle 2378" width="0.442" height="4.318" transform="translate(41.188 51.983)" fill="#77a4e5"/>
      <path id="Path_9863" data-name="Path 9863" d="M2098.463,1715.185v4.318h.276a.92.92,0,0,0,.166-.015V1715.2a.931.931,0,0,0-.166-.015Z" transform="translate(-2056.592 -1663.203)" fill="#77a4e5"/>
      <path id="Path_9864" data-name="Path 9864" d="M2102.7,1715.623v4.192a.946.946,0,0,0,.441-.352v-3.488A.946.946,0,0,0,2102.7,1715.623Z" transform="translate(-2060.216 -1663.577)" fill="#77a4e5"/>
      <path id="Path_9865" data-name="Path 9865" d="M1880.268,1686.157v2.438a.93.93,0,0,1-.161.525.945.945,0,0,1-.441.352.882.882,0,0,1-.172.048.9.9,0,0,1-.166.015h-38.843a.943.943,0,0,1-.939-.891c0-.016,0-.032,0-.048v-2.438c0-.016,0-.033,0-.049a.943.943,0,0,1,.939-.891h38.843a.906.906,0,0,1,.166.015.883.883,0,0,1,.172.048.946.946,0,0,1,.441.352A.93.93,0,0,1,1880.268,1686.157Z" transform="translate(-1835.158 -1637.573)" fill="#afcdfb"/>
      <path id="Path_9866" data-name="Path 9866" d="M1858.639,1685.217h-18.254a.89.89,0,0,0-.838.891c0,.016,0,.032,0,.049v2.438c0,.016,0,.032,0,.048a.891.891,0,0,0,.838.891h20.809A7.738,7.738,0,0,1,1858.639,1685.217Z" transform="translate(-1835.158 -1637.573)" fill="#77a4e5"/>
      <rect id="Rectangle_2379" data-name="Rectangle 2379" width="0.442" height="4.318" transform="translate(39.942 47.644)" fill="#77a4e5"/>
      <rect id="Rectangle_2380" data-name="Rectangle 2380" width="0.442" height="4.318" transform="translate(38.447 47.644)" fill="#77a4e5"/>
      <rect id="Rectangle_2381" data-name="Rectangle 2381" width="0.441" height="4.318" transform="translate(36.655 47.644)" fill="#77a4e5"/>
      <rect id="Rectangle_2382" data-name="Rectangle 2382" width="0.441" height="4.318" transform="translate(33.909 47.644)" fill="#77a4e5"/>
      <rect id="Rectangle_2383" data-name="Rectangle 2383" width="0.441" height="4.318" transform="translate(31.004 47.644)" fill="#77a4e5"/>
      <rect id="Rectangle_2384" data-name="Rectangle 2384" width="0.442" height="4.318" transform="translate(26.551 47.644)" fill="#77a4e5"/>
      <rect id="Rectangle_2385" data-name="Rectangle 2385" width="0.441" height="4.318" transform="translate(41.364 47.644)" fill="#77a4e5"/>
      <rect id="Rectangle_2386" data-name="Rectangle 2386" width="0.441" height="4.318" transform="translate(42.304 47.644)" fill="#77a4e5"/>
      <rect id="Rectangle_2387" data-name="Rectangle 2387" width="0.441" height="4.318" transform="translate(43.211 47.644)" fill="#77a4e5"/>
      <path id="Path_9867" data-name="Path 9867" d="M2112.439,1685.217v4.318h.276a.9.9,0,0,0,.166-.015v-4.288a.908.908,0,0,0-.166-.015Z" transform="translate(-2068.545 -1637.573)" fill="#77a4e5"/>
      <path id="Path_9868" data-name="Path 9868" d="M2116.676,1685.654v4.191a.947.947,0,0,0,.441-.352v-3.488A.947.947,0,0,0,2116.676,1685.654Z" transform="translate(-2072.169 -1637.947)" fill="#77a4e5"/>
      <path id="Path_9869" data-name="Path 9869" d="M1866.292,1656.329v2.438a.931.931,0,0,1-.161.525.947.947,0,0,1-.441.352.88.88,0,0,1-.172.048.92.92,0,0,1-.166.015H1826.51a.943.943,0,0,1-.939-.892c0-.016,0-.032,0-.048v-2.438c0-.016,0-.032,0-.048a.943.943,0,0,1,.939-.891h38.842a.931.931,0,0,1,.166.015.88.88,0,0,1,.172.048.946.946,0,0,1,.441.352A.931.931,0,0,1,1866.292,1656.329Z" transform="translate(-1823.206 -1612.063)" fill="#afcdfb"/>
      <path id="Path_9870" data-name="Path 9870" d="M1844.663,1655.389h-18.254a.891.891,0,0,0-.838.891c0,.016,0,.032,0,.048v2.438c0,.016,0,.032,0,.048a.891.891,0,0,0,.838.892h20.81A7.736,7.736,0,0,1,1844.663,1655.389Z" transform="translate(-1823.206 -1612.063)" fill="#77a4e5"/>
      <rect id="Rectangle_2388" data-name="Rectangle 2388" width="0.441" height="4.318" transform="translate(37.918 43.326)" fill="#77a4e5"/>
      <rect id="Rectangle_2389" data-name="Rectangle 2389" width="0.442" height="4.318" transform="translate(36.424 43.326)" fill="#77a4e5"/>
      <rect id="Rectangle_2390" data-name="Rectangle 2390" width="0.442" height="4.318" transform="translate(34.632 43.326)" fill="#77a4e5"/>
      <rect id="Rectangle_2391" data-name="Rectangle 2391" width="0.441" height="4.318" transform="translate(31.885 43.326)" fill="#77a4e5"/>
      <rect id="Rectangle_2392" data-name="Rectangle 2392" width="0.442" height="4.318" transform="translate(28.981 43.326)" fill="#77a4e5"/>
      <rect id="Rectangle_2393" data-name="Rectangle 2393" width="0.441" height="4.318" transform="translate(24.528 43.326)" fill="#77a4e5"/>
      <rect id="Rectangle_2394" data-name="Rectangle 2394" width="0.441" height="4.318" transform="translate(39.341 43.326)" fill="#77a4e5"/>
      <rect id="Rectangle_2395" data-name="Rectangle 2395" width="0.441" height="4.318" transform="translate(40.281 43.326)" fill="#77a4e5"/>
      <rect id="Rectangle_2396" data-name="Rectangle 2396" width="0.442" height="4.318" transform="translate(41.188 43.326)" fill="#77a4e5"/>
      <path id="Path_9871" data-name="Path 9871" d="M2098.463,1655.389v4.318h.276a.92.92,0,0,0,.166-.015V1655.4a.931.931,0,0,0-.166-.015Z" transform="translate(-2056.592 -1612.063)" fill="#77a4e5"/>
      <path id="Path_9872" data-name="Path 9872" d="M2102.7,1655.826v4.192a.947.947,0,0,0,.441-.352v-3.488A.947.947,0,0,0,2102.7,1655.826Z" transform="translate(-2060.216 -1612.437)" fill="#77a4e5"/>
      <path id="Path_9873" data-name="Path 9873" d="M1866.292,1626.359v2.439a.931.931,0,0,1-.161.524.948.948,0,0,1-.441.352.88.88,0,0,1-.172.048.92.92,0,0,1-.166.015H1826.51a.943.943,0,0,1-.939-.891c0-.016,0-.032,0-.048v-2.439c0-.016,0-.032,0-.048a.943.943,0,0,1,.939-.892h38.842a.931.931,0,0,1,.166.015.906.906,0,0,1,.172.048.949.949,0,0,1,.441.352A.932.932,0,0,1,1866.292,1626.359Z" transform="translate(-1823.206 -1586.432)" fill="#afcdfb"/>
      <path id="Path_9874" data-name="Path 9874" d="M1844.663,1625.419h-18.254a.891.891,0,0,0-.838.891c0,.016,0,.032,0,.048v2.439c0,.016,0,.032,0,.048a.891.891,0,0,0,.838.891h20.81A7.733,7.733,0,0,1,1844.663,1625.419Z" transform="translate(-1823.206 -1586.432)" fill="#77a4e5"/>
      <rect id="Rectangle_2397" data-name="Rectangle 2397" width="0.441" height="4.318" transform="translate(37.918 38.987)" fill="#77a4e5"/>
      <rect id="Rectangle_2398" data-name="Rectangle 2398" width="0.442" height="4.318" transform="translate(36.424 38.987)" fill="#77a4e5"/>
      <rect id="Rectangle_2399" data-name="Rectangle 2399" width="0.442" height="4.318" transform="translate(34.632 38.987)" fill="#77a4e5"/>
      <rect id="Rectangle_2400" data-name="Rectangle 2400" width="0.441" height="4.318" transform="translate(31.885 38.987)" fill="#77a4e5"/>
      <rect id="Rectangle_2401" data-name="Rectangle 2401" width="0.442" height="4.318" transform="translate(28.981 38.987)" fill="#77a4e5"/>
      <rect id="Rectangle_2402" data-name="Rectangle 2402" width="0.441" height="4.318" transform="translate(24.528 38.987)" fill="#77a4e5"/>
      <rect id="Rectangle_2403" data-name="Rectangle 2403" width="0.441" height="4.318" transform="translate(39.341 38.987)" fill="#77a4e5"/>
      <rect id="Rectangle_2404" data-name="Rectangle 2404" width="0.441" height="4.318" transform="translate(40.281 38.987)" fill="#77a4e5"/>
      <rect id="Rectangle_2405" data-name="Rectangle 2405" width="0.442" height="4.318" transform="translate(41.188 38.987)" fill="#77a4e5"/>
      <path id="Path_9875" data-name="Path 9875" d="M2098.463,1625.419v4.318h.276a.92.92,0,0,0,.166-.015v-4.288a.931.931,0,0,0-.166-.015Z" transform="translate(-2056.592 -1586.432)" fill="#77a4e5"/>
      <path id="Path_9876" data-name="Path 9876" d="M2102.7,1625.856v4.192a.943.943,0,0,0,.441-.352v-3.488A.945.945,0,0,0,2102.7,1625.856Z" transform="translate(-2060.216 -1586.806)" fill="#77a4e5"/>
      <path id="Path_9877" data-name="Path 9877" d="M1849.961,1596.389v2.439a.931.931,0,0,1-.161.525.946.946,0,0,1-.441.352.89.89,0,0,1-.172.048.921.921,0,0,1-.166.015h-38.843a.943.943,0,0,1-.939-.891c0-.016,0-.032,0-.048v-2.439c0-.016,0-.032,0-.048a.943.943,0,0,1,.939-.891h38.843a.91.91,0,0,1,.166.015.873.873,0,0,1,.172.048.943.943,0,0,1,.441.352A.931.931,0,0,1,1849.961,1596.389Z" transform="translate(-1809.239 -1560.801)" fill="#afcdfb"/>
      <path id="Path_9878" data-name="Path 9878" d="M1828.332,1595.449h-18.254a.891.891,0,0,0-.838.891c0,.016,0,.032,0,.048v2.439c0,.016,0,.032,0,.048a.891.891,0,0,0,.838.891h20.81A7.74,7.74,0,0,1,1828.332,1595.449Z" transform="translate(-1809.239 -1560.801)" fill="#77a4e5"/>
      <rect id="Rectangle_2406" data-name="Rectangle 2406" width="0.442" height="4.318" transform="translate(35.554 34.648)" fill="#77a4e5"/>
      <rect id="Rectangle_2407" data-name="Rectangle 2407" width="0.441" height="4.318" transform="translate(34.06 34.648)" fill="#77a4e5"/>
      <rect id="Rectangle_2408" data-name="Rectangle 2408" width="0.441" height="4.318" transform="translate(32.268 34.648)" fill="#77a4e5"/>
      <rect id="Rectangle_2409" data-name="Rectangle 2409" width="0.442" height="4.318" transform="translate(29.521 34.648)" fill="#77a4e5"/>
      <rect id="Rectangle_2410" data-name="Rectangle 2410" width="0.442" height="4.318" transform="translate(26.616 34.648)" fill="#77a4e5"/>
      <rect id="Rectangle_2411" data-name="Rectangle 2411" width="0.442" height="4.318" transform="translate(22.163 34.648)" fill="#77a4e5"/>
      <rect id="Rectangle_2412" data-name="Rectangle 2412" width="0.442" height="4.318" transform="translate(36.977 34.648)" fill="#77a4e5"/>
      <rect id="Rectangle_2413" data-name="Rectangle 2413" width="0.441" height="4.318" transform="translate(37.916 34.648)" fill="#77a4e5"/>
      <rect id="Rectangle_2414" data-name="Rectangle 2414" width="0.441" height="4.318" transform="translate(38.824 34.648)" fill="#77a4e5"/>
      <path id="Path_9879" data-name="Path 9879" d="M2082.131,1595.449v4.318h.276a.919.919,0,0,0,.166-.015v-4.288a.908.908,0,0,0-.166-.015Z" transform="translate(-2042.625 -1560.801)" fill="#77a4e5"/>
      <path id="Path_9880" data-name="Path 9880" d="M2086.369,1595.887v4.192a.947.947,0,0,0,.441-.352v-3.488A.947.947,0,0,0,2086.369,1595.887Z" transform="translate(-2046.249 -1561.175)" fill="#77a4e5"/>
      <path id="Path_9881" data-name="Path 9881" d="M1858.853,1566.418v2.439a.931.931,0,0,1-.161.525.948.948,0,0,1-.441.352.859.859,0,0,1-.172.048.9.9,0,0,1-.165.015h-38.843a.943.943,0,0,1-.939-.892c0-.016,0-.032,0-.048v-2.439c0-.016,0-.032,0-.048a.943.943,0,0,1,.939-.892h38.843a.9.9,0,0,1,.165.015.851.851,0,0,1,.172.048.947.947,0,0,1,.441.352A.93.93,0,0,1,1858.853,1566.418Z" transform="translate(-1816.844 -1535.169)" fill="#afcdfb"/>
      <path id="Path_9882" data-name="Path 9882" d="M1837.225,1565.478h-18.254a.891.891,0,0,0-.838.892c0,.016,0,.032,0,.048v2.439c0,.016,0,.032,0,.048a.891.891,0,0,0,.838.892h20.81A7.736,7.736,0,0,1,1837.225,1565.478Z" transform="translate(-1816.845 -1535.169)" fill="#77a4e5"/>
      <rect id="Rectangle_2415" data-name="Rectangle 2415" width="0.441" height="4.318" transform="translate(36.842 30.31)" fill="#77a4e5"/>
      <rect id="Rectangle_2416" data-name="Rectangle 2416" width="0.441" height="4.318" transform="translate(35.347 30.31)" fill="#77a4e5"/>
      <rect id="Rectangle_2417" data-name="Rectangle 2417" width="0.442" height="4.318" transform="translate(33.555 30.31)" fill="#77a4e5"/>
      <rect id="Rectangle_2418" data-name="Rectangle 2418" width="0.442" height="4.318" transform="translate(30.808 30.31)" fill="#77a4e5"/>
      <rect id="Rectangle_2419" data-name="Rectangle 2419" width="0.442" height="4.318" transform="translate(27.904 30.31)" fill="#77a4e5"/>
      <rect id="Rectangle_2420" data-name="Rectangle 2420" width="0.442" height="4.318" transform="translate(23.451 30.31)" fill="#77a4e5"/>
      <rect id="Rectangle_2421" data-name="Rectangle 2421" width="0.442" height="4.318" transform="translate(38.264 30.31)" fill="#77a4e5"/>
      <rect id="Rectangle_2422" data-name="Rectangle 2422" width="0.442" height="4.318" transform="translate(39.204 30.31)" fill="#77a4e5"/>
      <rect id="Rectangle_2423" data-name="Rectangle 2423" width="0.441" height="4.318" transform="translate(40.111 30.31)" fill="#77a4e5"/>
      <path id="Path_9883" data-name="Path 9883" d="M2091.023,1565.478v4.318h.276a.908.908,0,0,0,.166-.015v-4.288a.908.908,0,0,0-.166-.015Z" transform="translate(-2050.229 -1535.169)" fill="#77a4e5"/>
      <path id="Path_9884" data-name="Path 9884" d="M2095.262,1565.916v4.191a.95.95,0,0,0,.441-.352v-3.488A.948.948,0,0,0,2095.262,1565.916Z" transform="translate(-2053.855 -1535.543)" fill="#77a4e5"/>
      <path id="Path_9885" data-name="Path 9885" d="M1878.515,1536.591v2.438a.929.929,0,0,1-.161.525.946.946,0,0,1-.441.352.909.909,0,0,1-.172.048.928.928,0,0,1-.166.015h-38.843a.943.943,0,0,1-.938-.891c0-.016,0-.032,0-.048v-2.438c0-.016,0-.032,0-.048a.943.943,0,0,1,.938-.892h38.843a.939.939,0,0,1,.166.015.9.9,0,0,1,.172.048.946.946,0,0,1,.441.352A.929.929,0,0,1,1878.515,1536.591Z" transform="translate(-1833.659 -1509.66)" fill="#afcdfb"/>
      <path id="Path_9886" data-name="Path 9886" d="M1856.886,1535.651h-18.254a.891.891,0,0,0-.838.892c0,.016,0,.032,0,.048v2.438c0,.016,0,.032,0,.048a.891.891,0,0,0,.838.891h20.809A7.736,7.736,0,0,1,1856.886,1535.651Z" transform="translate(-1833.659 -1509.66)" fill="#77a4e5"/>
      <rect id="Rectangle_2424" data-name="Rectangle 2424" width="0.442" height="4.318" transform="translate(39.688 25.992)" fill="#77a4e5"/>
      <rect id="Rectangle_2425" data-name="Rectangle 2425" width="0.442" height="4.318" transform="translate(38.194 25.992)" fill="#77a4e5"/>
      <rect id="Rectangle_2426" data-name="Rectangle 2426" width="0.442" height="4.318" transform="translate(36.402 25.992)" fill="#77a4e5"/>
      <rect id="Rectangle_2427" data-name="Rectangle 2427" width="0.442" height="4.318" transform="translate(33.655 25.992)" fill="#77a4e5"/>
      <rect id="Rectangle_2428" data-name="Rectangle 2428" width="0.442" height="4.318" transform="translate(30.75 25.992)" fill="#77a4e5"/>
      <rect id="Rectangle_2429" data-name="Rectangle 2429" width="0.442" height="4.318" transform="translate(26.297 25.992)" fill="#77a4e5"/>
      <rect id="Rectangle_2430" data-name="Rectangle 2430" width="0.441" height="4.318" transform="translate(41.11 25.992)" fill="#77a4e5"/>
      <rect id="Rectangle_2431" data-name="Rectangle 2431" width="0.442" height="4.318" transform="translate(42.05 25.992)" fill="#77a4e5"/>
      <rect id="Rectangle_2432" data-name="Rectangle 2432" width="0.441" height="4.318" transform="translate(42.958 25.992)" fill="#77a4e5"/>
      <path id="Path_9887" data-name="Path 9887" d="M2110.685,1535.651v4.318h.276a.928.928,0,0,0,.166-.015v-4.288a.906.906,0,0,0-.166-.015Z" transform="translate(-2067.045 -1509.66)" fill="#77a4e5"/>
      <path id="Path_9888" data-name="Path 9888" d="M2114.924,1536.089v4.191a.948.948,0,0,0,.441-.352v-3.488A.947.947,0,0,0,2114.924,1536.089Z" transform="translate(-2070.67 -1510.034)" fill="#77a4e5"/>
      <path id="Path_9889" data-name="Path 9889" d="M1866.292,1506.762v2.438a.931.931,0,0,1-.161.525.948.948,0,0,1-.441.352.9.9,0,0,1-.172.048.931.931,0,0,1-.166.015H1826.51a.943.943,0,0,1-.939-.892c0-.016,0-.032,0-.048v-2.438c0-.016,0-.032,0-.049a.943.943,0,0,1,.939-.891h38.842a.931.931,0,0,1,.166.015.863.863,0,0,1,.172.048.945.945,0,0,1,.441.352A.931.931,0,0,1,1866.292,1506.762Z" transform="translate(-1823.206 -1484.149)" fill="#afcdfb"/>
      <path id="Path_9890" data-name="Path 9890" d="M1844.663,1505.822h-18.254a.891.891,0,0,0-.838.891c0,.016,0,.032,0,.049v2.438c0,.016,0,.032,0,.048a.891.891,0,0,0,.838.892h20.81A7.735,7.735,0,0,1,1844.663,1505.822Z" transform="translate(-1823.206 -1484.149)" fill="#77a4e5"/>
      <rect id="Rectangle_2433" data-name="Rectangle 2433" width="0.441" height="4.318" transform="translate(37.918 21.673)" fill="#77a4e5"/>
      <rect id="Rectangle_2434" data-name="Rectangle 2434" width="0.442" height="4.318" transform="translate(36.424 21.673)" fill="#77a4e5"/>
      <rect id="Rectangle_2435" data-name="Rectangle 2435" width="0.442" height="4.318" transform="translate(34.632 21.673)" fill="#77a4e5"/>
      <rect id="Rectangle_2436" data-name="Rectangle 2436" width="0.441" height="4.318" transform="translate(31.885 21.673)" fill="#77a4e5"/>
      <rect id="Rectangle_2437" data-name="Rectangle 2437" width="0.442" height="4.318" transform="translate(28.981 21.673)" fill="#77a4e5"/>
      <rect id="Rectangle_2438" data-name="Rectangle 2438" width="0.441" height="4.318" transform="translate(24.528 21.673)" fill="#77a4e5"/>
      <rect id="Rectangle_2439" data-name="Rectangle 2439" width="0.441" height="4.318" transform="translate(39.341 21.673)" fill="#77a4e5"/>
      <rect id="Rectangle_2440" data-name="Rectangle 2440" width="0.441" height="4.318" transform="translate(40.281 21.673)" fill="#77a4e5"/>
      <rect id="Rectangle_2441" data-name="Rectangle 2441" width="0.442" height="4.318" transform="translate(41.188 21.673)" fill="#77a4e5"/>
      <path id="Path_9891" data-name="Path 9891" d="M2098.463,1505.822v4.318h.276a.931.931,0,0,0,.166-.015v-4.288a.931.931,0,0,0-.166-.015Z" transform="translate(-2056.592 -1484.149)" fill="#77a4e5"/>
      <path id="Path_9892" data-name="Path 9892" d="M2102.7,1506.26v4.192a.945.945,0,0,0,.441-.352v-3.488A.944.944,0,0,0,2102.7,1506.26Z" transform="translate(-2060.216 -1484.523)" fill="#77a4e5"/>
      <path id="Path_9893" data-name="Path 9893" d="M1880.268,1476.793v2.439a.932.932,0,0,1-.161.525.943.943,0,0,1-.441.351.851.851,0,0,1-.172.049.916.916,0,0,1-.166.015h-38.843a.943.943,0,0,1-.939-.892c0-.016,0-.032,0-.048v-2.439c0-.016,0-.032,0-.048a.943.943,0,0,1,.939-.892h38.843a.928.928,0,0,1,.166.015.874.874,0,0,1,.172.048.945.945,0,0,1,.441.352A.931.931,0,0,1,1880.268,1476.793Z" transform="translate(-1835.158 -1458.519)" fill="#afcdfb"/>
      <path id="Path_9894" data-name="Path 9894" d="M1858.639,1475.853h-18.254a.891.891,0,0,0-.838.892c0,.016,0,.032,0,.048v2.439c0,.016,0,.032,0,.048a.891.891,0,0,0,.838.892h20.809A7.739,7.739,0,0,1,1858.639,1475.853Z" transform="translate(-1835.158 -1458.519)" fill="#77a4e5"/>
      <rect id="Rectangle_2442" data-name="Rectangle 2442" width="0.442" height="4.318" transform="translate(39.942 17.335)" fill="#77a4e5"/>
      <rect id="Rectangle_2443" data-name="Rectangle 2443" width="0.442" height="4.318" transform="translate(38.447 17.335)" fill="#77a4e5"/>
      <rect id="Rectangle_2444" data-name="Rectangle 2444" width="0.441" height="4.318" transform="translate(36.655 17.335)" fill="#77a4e5"/>
      <rect id="Rectangle_2445" data-name="Rectangle 2445" width="0.441" height="4.318" transform="translate(33.909 17.335)" fill="#77a4e5"/>
      <rect id="Rectangle_2446" data-name="Rectangle 2446" width="0.441" height="4.318" transform="translate(31.004 17.335)" fill="#77a4e5"/>
      <rect id="Rectangle_2447" data-name="Rectangle 2447" width="0.442" height="4.318" transform="translate(26.551 17.335)" fill="#77a4e5"/>
      <rect id="Rectangle_2448" data-name="Rectangle 2448" width="0.441" height="4.318" transform="translate(41.364 17.335)" fill="#77a4e5"/>
      <rect id="Rectangle_2449" data-name="Rectangle 2449" width="0.441" height="4.318" transform="translate(42.304 17.335)" fill="#77a4e5"/>
      <rect id="Rectangle_2450" data-name="Rectangle 2450" width="0.441" height="4.318" transform="translate(43.211 17.335)" fill="#77a4e5"/>
      <path id="Path_9895" data-name="Path 9895" d="M2112.439,1475.853v4.318h.276a.919.919,0,0,0,.166-.015v-4.288a.919.919,0,0,0-.166-.015Z" transform="translate(-2068.545 -1458.519)" fill="#77a4e5"/>
      <path id="Path_9896" data-name="Path 9896" d="M2116.676,1476.291v4.192a.948.948,0,0,0,.441-.352v-3.488A.948.948,0,0,0,2116.676,1476.291Z" transform="translate(-2072.169 -1458.893)" fill="#77a4e5"/>
      <path id="Path_9897" data-name="Path 9897" d="M1866.292,1446.965v2.438a.93.93,0,0,1-.161.525.948.948,0,0,1-.441.352.889.889,0,0,1-.172.048.942.942,0,0,1-.166.015H1826.51a.943.943,0,0,1-.939-.891c0-.016,0-.032,0-.048v-2.438c0-.016,0-.032,0-.048a.943.943,0,0,1,.939-.892h38.842a.92.92,0,0,1,.166.015.864.864,0,0,1,.172.048.946.946,0,0,1,.441.352A.931.931,0,0,1,1866.292,1446.965Z" transform="translate(-1823.206 -1433.009)" fill="#afcdfb"/>
      <path id="Path_9898" data-name="Path 9898" d="M1844.663,1446.025h-18.254a.891.891,0,0,0-.838.892c0,.016,0,.032,0,.048v2.438c0,.016,0,.032,0,.048a.891.891,0,0,0,.838.891h20.81A7.735,7.735,0,0,1,1844.663,1446.025Z" transform="translate(-1823.206 -1433.009)" fill="#77a4e5"/>
      <rect id="Rectangle_2451" data-name="Rectangle 2451" width="0.441" height="4.318" transform="translate(37.918 13.017)" fill="#77a4e5"/>
      <rect id="Rectangle_2452" data-name="Rectangle 2452" width="0.442" height="4.318" transform="translate(36.424 13.017)" fill="#77a4e5"/>
      <rect id="Rectangle_2453" data-name="Rectangle 2453" width="0.442" height="4.318" transform="translate(34.632 13.017)" fill="#77a4e5"/>
      <rect id="Rectangle_2454" data-name="Rectangle 2454" width="0.441" height="4.318" transform="translate(31.885 13.017)" fill="#77a4e5"/>
      <rect id="Rectangle_2455" data-name="Rectangle 2455" width="0.442" height="4.318" transform="translate(28.981 13.017)" fill="#77a4e5"/>
      <rect id="Rectangle_2456" data-name="Rectangle 2456" width="0.441" height="4.318" transform="translate(24.528 13.017)" fill="#77a4e5"/>
      <rect id="Rectangle_2457" data-name="Rectangle 2457" width="0.441" height="4.318" transform="translate(39.341 13.017)" fill="#77a4e5"/>
      <rect id="Rectangle_2458" data-name="Rectangle 2458" width="0.441" height="4.318" transform="translate(40.281 13.017)" fill="#77a4e5"/>
      <rect id="Rectangle_2459" data-name="Rectangle 2459" width="0.442" height="4.318" transform="translate(41.188 13.017)" fill="#77a4e5"/>
      <path id="Path_9899" data-name="Path 9899" d="M2098.463,1446.025v4.318h.276a.942.942,0,0,0,.166-.015v-4.288a.92.92,0,0,0-.166-.015Z" transform="translate(-2056.592 -1433.009)" fill="#77a4e5"/>
      <path id="Path_9900" data-name="Path 9900" d="M2102.7,1446.464v4.191a.943.943,0,0,0,.441-.352v-3.488A.942.942,0,0,0,2102.7,1446.464Z" transform="translate(-2060.216 -1433.384)" fill="#77a4e5"/>
      <path id="Path_9901" data-name="Path 9901" d="M1866.292,1417v2.439a.931.931,0,0,1-.161.525.945.945,0,0,1-.441.351.856.856,0,0,1-.172.048.92.92,0,0,1-.166.015H1826.51a.943.943,0,0,1-.939-.892c0-.016,0-.032,0-.048V1417c0-.016,0-.032,0-.048a.943.943,0,0,1,.939-.891h38.842a.931.931,0,0,1,.166.015.9.9,0,0,1,.172.048.948.948,0,0,1,.441.352A.931.931,0,0,1,1866.292,1417Z" transform="translate(-1823.206 -1407.378)" fill="#afcdfb"/>
      <path id="Path_9902" data-name="Path 9902" d="M1844.663,1416.056h-18.254a.891.891,0,0,0-.838.891c0,.016,0,.032,0,.048v2.439c0,.016,0,.032,0,.048a.891.891,0,0,0,.838.892h20.81A7.735,7.735,0,0,1,1844.663,1416.056Z" transform="translate(-1823.206 -1407.378)" fill="#77a4e5"/>
      <rect id="Rectangle_2460" data-name="Rectangle 2460" width="0.441" height="4.318" transform="translate(37.918 8.678)" fill="#77a4e5"/>
      <rect id="Rectangle_2461" data-name="Rectangle 2461" width="0.442" height="4.318" transform="translate(36.424 8.678)" fill="#77a4e5"/>
      <rect id="Rectangle_2462" data-name="Rectangle 2462" width="0.442" height="4.318" transform="translate(34.632 8.678)" fill="#77a4e5"/>
      <rect id="Rectangle_2463" data-name="Rectangle 2463" width="0.441" height="4.318" transform="translate(31.885 8.678)" fill="#77a4e5"/>
      <rect id="Rectangle_2464" data-name="Rectangle 2464" width="0.442" height="4.318" transform="translate(28.981 8.678)" fill="#77a4e5"/>
      <rect id="Rectangle_2465" data-name="Rectangle 2465" width="0.441" height="4.318" transform="translate(24.528 8.678)" fill="#77a4e5"/>
      <rect id="Rectangle_2466" data-name="Rectangle 2466" width="0.441" height="4.318" transform="translate(39.341 8.678)" fill="#77a4e5"/>
      <rect id="Rectangle_2467" data-name="Rectangle 2467" width="0.441" height="4.318" transform="translate(40.281 8.678)" fill="#77a4e5"/>
      <rect id="Rectangle_2468" data-name="Rectangle 2468" width="0.442" height="4.318" transform="translate(41.188 8.678)" fill="#77a4e5"/>
      <path id="Path_9903" data-name="Path 9903" d="M2098.463,1416.056v4.318h.276a.92.92,0,0,0,.166-.015v-4.288a.931.931,0,0,0-.166-.015Z" transform="translate(-2056.592 -1407.378)" fill="#77a4e5"/>
      <path id="Path_9904" data-name="Path 9904" d="M2102.7,1416.493v4.191a.942.942,0,0,0,.441-.352v-3.488A.944.944,0,0,0,2102.7,1416.493Z" transform="translate(-2060.216 -1407.752)" fill="#77a4e5"/>
      <path id="Path_9905" data-name="Path 9905" d="M1849.961,1387.026v2.439a.931.931,0,0,1-.161.525.946.946,0,0,1-.441.352.9.9,0,0,1-.172.048.944.944,0,0,1-.166.015h-38.843a.943.943,0,0,1-.939-.891c0-.016,0-.032,0-.048v-2.439c0-.016,0-.032,0-.048a.943.943,0,0,1,.939-.891h38.843a.9.9,0,0,1,.166.015.864.864,0,0,1,.172.048.945.945,0,0,1,.441.352A.931.931,0,0,1,1849.961,1387.026Z" transform="translate(-1809.239 -1381.747)" fill="#afcdfb"/>
      <path id="Path_9906" data-name="Path 9906" d="M1828.332,1386.086h-18.254a.891.891,0,0,0-.838.891c0,.016,0,.032,0,.048v2.439c0,.016,0,.032,0,.048a.891.891,0,0,0,.838.891h20.81A7.738,7.738,0,0,1,1828.332,1386.086Z" transform="translate(-1809.239 -1381.747)" fill="#77a4e5"/>
      <rect id="Rectangle_2469" data-name="Rectangle 2469" width="0.442" height="4.318" transform="translate(35.554 4.339)" fill="#77a4e5"/>
      <rect id="Rectangle_2470" data-name="Rectangle 2470" width="0.441" height="4.318" transform="translate(34.06 4.339)" fill="#77a4e5"/>
      <rect id="Rectangle_2471" data-name="Rectangle 2471" width="0.441" height="4.318" transform="translate(32.268 4.339)" fill="#77a4e5"/>
      <rect id="Rectangle_2472" data-name="Rectangle 2472" width="0.442" height="4.318" transform="translate(29.521 4.339)" fill="#77a4e5"/>
      <rect id="Rectangle_2473" data-name="Rectangle 2473" width="0.442" height="4.318" transform="translate(26.616 4.339)" fill="#77a4e5"/>
      <rect id="Rectangle_2474" data-name="Rectangle 2474" width="0.442" height="4.318" transform="translate(22.163 4.339)" fill="#77a4e5"/>
      <rect id="Rectangle_2475" data-name="Rectangle 2475" width="0.442" height="4.318" transform="translate(36.977 4.339)" fill="#77a4e5"/>
      <rect id="Rectangle_2476" data-name="Rectangle 2476" width="0.441" height="4.318" transform="translate(37.916 4.339)" fill="#77a4e5"/>
      <rect id="Rectangle_2477" data-name="Rectangle 2477" width="0.441" height="4.318" transform="translate(38.824 4.339)" fill="#77a4e5"/>
      <path id="Path_9907" data-name="Path 9907" d="M2082.131,1386.086v4.318h.276a.942.942,0,0,0,.166-.015V1386.1a.9.9,0,0,0-.166-.015Z" transform="translate(-2042.625 -1381.747)" fill="#77a4e5"/>
      <path id="Path_9908" data-name="Path 9908" d="M2086.369,1386.523v4.192a.945.945,0,0,0,.441-.352v-3.488A.946.946,0,0,0,2086.369,1386.523Z" transform="translate(-2046.249 -1382.121)" fill="#77a4e5"/>
      <path id="Path_9909" data-name="Path 9909" d="M1858.853,1357.055v2.438a.931.931,0,0,1-.161.525.95.95,0,0,1-.441.352.875.875,0,0,1-.172.048.925.925,0,0,1-.165.015h-38.843a.943.943,0,0,1-.939-.891c0-.016,0-.032,0-.048v-2.438c0-.016,0-.032,0-.049a.943.943,0,0,1,.939-.891h38.843a.892.892,0,0,1,.165.015.851.851,0,0,1,.172.048.948.948,0,0,1,.441.351A.932.932,0,0,1,1858.853,1357.055Z" transform="translate(-1816.844 -1356.115)" fill="#afcdfb"/>
      <path id="Path_9910" data-name="Path 9910" d="M1837.225,1356.115h-18.254a.891.891,0,0,0-.838.891c0,.016,0,.032,0,.049v2.438c0,.016,0,.032,0,.048a.891.891,0,0,0,.838.891h20.81A7.734,7.734,0,0,1,1837.225,1356.115Z" transform="translate(-1816.845 -1356.115)" fill="#77a4e5"/>
      <rect id="Rectangle_2478" data-name="Rectangle 2478" width="0.441" height="4.318" transform="translate(36.842 0)" fill="#77a4e5"/>
      <rect id="Rectangle_2479" data-name="Rectangle 2479" width="0.441" height="4.318" transform="translate(35.347 0)" fill="#77a4e5"/>
      <rect id="Rectangle_2480" data-name="Rectangle 2480" width="0.442" height="4.318" transform="translate(33.555 0)" fill="#77a4e5"/>
      <rect id="Rectangle_2481" data-name="Rectangle 2481" width="0.442" height="4.318" transform="translate(30.808 0)" fill="#77a4e5"/>
      <rect id="Rectangle_2482" data-name="Rectangle 2482" width="0.442" height="4.318" transform="translate(27.904 0)" fill="#77a4e5"/>
      <rect id="Rectangle_2483" data-name="Rectangle 2483" width="0.442" height="4.318" transform="translate(23.451 0)" fill="#77a4e5"/>
      <rect id="Rectangle_2484" data-name="Rectangle 2484" width="0.442" height="4.318" transform="translate(38.264 0)" fill="#77a4e5"/>
      <rect id="Rectangle_2485" data-name="Rectangle 2485" width="0.442" height="4.318" transform="translate(39.204 0)" fill="#77a4e5"/>
      <rect id="Rectangle_2486" data-name="Rectangle 2486" width="0.441" height="4.318" transform="translate(40.111 0)" fill="#77a4e5"/>
      <path id="Path_9911" data-name="Path 9911" d="M2091.023,1356.115v4.318h.276a.93.93,0,0,0,.166-.015v-4.288a.9.9,0,0,0-.166-.015Z" transform="translate(-2050.229 -1356.115)" fill="#77a4e5"/>
      <path id="Path_9912" data-name="Path 9912" d="M2095.262,1356.554v4.191a.95.95,0,0,0,.441-.352v-3.488A.948.948,0,0,0,2095.262,1356.554Z" transform="translate(-2053.855 -1356.49)" fill="#77a4e5"/>
    </g>
    <g id="Group_17135" data-name="Group 17135" transform="translate(387.844 240.332)">
      <path id="Path_9913" data-name="Path 9913" d="M940.45,432.194l-34.873,37.694L855.325,423.4h0l-21.174-19.589,34.873-37.693,39.535,36.576Z" transform="translate(-834.151 -366.112)" fill="#dceaff"/>
      <g id="Group_17134" data-name="Group 17134" transform="translate(7.043 7.122)">
        <path id="Path_9914" data-name="Path 9914" d="M974.075,474.7,947,503.966l-64.2-59.4,27.074-29.264ZM949.431,499.55l20.418-22.069a3.7,3.7,0,0,0-.2-5.222L912.7,419.577a3.762,3.762,0,0,0-5.316.207l-20.336,21.981a3.73,3.73,0,0,0,.2,5.271l56.979,52.716A3.677,3.677,0,0,0,949.431,499.55Z" transform="translate(-882.801 -415.306)" fill="#c0d8fb"/>
      </g>
      <circle id="Ellipse_1272" data-name="Ellipse 1272" cx="10.726" cy="10.726" r="10.726" transform="translate(38.548 56.964) rotate(-66.307)" fill="#c0d8fb"/>
    </g>
    <g id="Group_17137" data-name="Group 17137" transform="translate(439.002 219.04)">
      <path id="Path_9915" data-name="Path 9915" d="M1245.75,316.094l-51.219,3.7-4.927-68.283h0l-2.076-28.771,51.217-3.7,3.877,53.72Z" transform="translate(-1187.528 -219.04)" fill="#dceaff"/>
      <g id="Group_17136" data-name="Group 17136" transform="translate(6.036 4.684)">
        <path id="Path_9916" data-name="Path 9916" d="M1275.283,338.63l-39.763,2.869-6.3-87.235,39.763-2.869Zm-34.972,1.306,29.987-2.164a3.7,3.7,0,0,0,3.42-3.951l-5.583-77.374a3.762,3.762,0,0,0-4.023-3.481l-29.868,2.155a3.73,3.73,0,0,0-3.452,3.989l5.587,77.424A3.676,3.676,0,0,0,1240.311,339.935Z" transform="translate(-1229.224 -251.395)" fill="#c0d8fb"/>
      </g>
      <circle id="Ellipse_1273" data-name="Ellipse 1273" cx="10.726" cy="10.726" r="10.726" transform="translate(13.896 49.736) rotate(-45)" fill="#c0d8fb"/>
    </g>
    <g id="Group_17164" data-name="Group 17164" transform="translate(371.952 389.068)">
      <circle id="Ellipse_1274" data-name="Ellipse 1274" cx="27.542" cy="27.542" r="27.542" transform="translate(2.403 0)" fill="#e2810e"/>
      <path id="Path_10080" data-name="Path 10080" d="M27.542,0A27.542,27.542,0,1,1,0,27.542,27.542,27.542,0,0,1,27.542,0Z" transform="translate(0)" fill="#eff3ff"/>
      <g id="Group_17162" data-name="Group 17162" transform="translate(2.448 2.774)">
        <path id="Path_9966" data-name="Path 9966" d="M766.38,1462.856a25.093,25.093,0,1,1,17.744-7.35A24.929,24.929,0,0,1,766.38,1462.856Zm0-48.69a23.6,23.6,0,1,0,23.6,23.6A23.623,23.623,0,0,0,766.38,1414.166Z" transform="translate(-741.287 -1412.669)" fill="#34c6c8"/>
      </g>
    </g>
    <g id="Group_17166" data-name="Group 17166" transform="translate(443.241 263.916)">
      <path id="Path_9968" data-name="Path 9968" d="M1311.8,533.883V704.4a4.876,4.876,0,0,1-4.863,4.859h-85.266a4.873,4.873,0,0,1-4.86-4.859V533.883a4.874,4.874,0,0,1,4.86-4.862h85.266A4.876,4.876,0,0,1,1311.8,533.883Z" transform="translate(-1216.811 -529.021)" fill="#0b0b0b"/>
      <g id="Group_17165" data-name="Group 17165" transform="translate(31.376 4.901)">
        <path id="Path_9969" data-name="Path 9969" d="M1489.485,564.8h-24.692a.964.964,0,0,1-.961-.961h0a.964.964,0,0,1,.961-.961h24.692a.963.963,0,0,1,.96.961h0A.963.963,0,0,1,1489.485,564.8Z" transform="translate(-1459.447 -562.877)" fill="#5e92dd" opacity="0.4"/>
        <path id="Path_9970" data-name="Path 9970" d="M1434.5,564.8h0a.963.963,0,0,1-.961-.961h0a.963.963,0,0,1,.961-.961h0a.964.964,0,0,1,.961.961h0A.964.964,0,0,1,1434.5,564.8Z" transform="translate(-1433.539 -562.877)" fill="#5e92dd" opacity="0.4"/>
      </g>
      <path id="Path_9971" data-name="Path 9971" d="M1522.587,1668.612a6.2,6.2,0,1,1-6.2-6.2A6.179,6.179,0,0,1,1522.587,1668.612Z" transform="translate(-1467.72 -1498.336)" fill="#34c6c8"/>
      <rect id="Rectangle_2608" data-name="Rectangle 2608" width="84.232" height="149.931" transform="translate(5.688 11.103)" fill="#dceaff"/>
    </g>
    <g id="Group_17170" data-name="Group 17170" transform="translate(541.73 317.767)">
      <path id="Path_9973" data-name="Path 9973" d="M2015.688,1314.989a14.578,14.578,0,0,1-5.07,5.417h-11.751S2017.4,1312.008,2015.688,1314.989Z" transform="translate(-1984.138 -1254.509)" fill="#d87225"/>
      <g id="Group_17167" data-name="Group 17167" transform="translate(0 0)">
        <path id="Path_9974" data-name="Path 9974" d="M2051.065,1470.084a1.087,1.087,0,0,0-.194,1.162.009.009,0,0,0,0,.006,7.223,7.223,0,0,0,2.281,2.5c.137.111.26.212.366.305.028.025.056.049.082.074l.063.057c1,.925.626,1.136,2.427,3.013,2.055,2.137,3.469,2.176,3.872,1.981.34-.166-.352-1.3-1.118-2.574l-.112-.186c-.1-.169-.2-.341-.3-.512-.9-1.534-.668-2.253-.455-4.536.173-1.855,2.885-10.362,2.885-10.362l-3.937-.678s-1.186,6.774-2.492,7.818c-.7.556-1.48.563-2.152.975-.047.029-.094.058-.139.088A5.156,5.156,0,0,0,2051.065,1470.084Z" transform="translate(-2028.539 -1379.362)" fill="#ffb27d"/>
        <path id="Path_9975" data-name="Path 9975" d="M2051.065,1522.026a1.087,1.087,0,0,0-.194,1.162.009.009,0,0,0,0,.006,8.364,8.364,0,0,0,2.285,2.5c.136.113.256.216.363.313.028.025.056.049.082.074s.043.039.063.057c1,.925.626,1.137,2.427,3.013,2.055,2.138,3.469,2.176,3.872,1.982.34-.166-.352-1.3-1.118-2.574a8.753,8.753,0,0,1-3.663-2.7c-1.237-1.579-2.062-3.607-2.9-4.782-.047.029-.094.058-.139.088A5.156,5.156,0,0,0,2051.065,1522.026Z" transform="translate(-2028.539 -1431.304)" fill="#233862"/>
        <path id="Path_9976" data-name="Path 9976" d="M2253.414,1460.546c.243,1.215,1.976,1.013,3.911.539s1.476.09,4.23-.215,3.589-1.332,3.673-1.742c.075-.363-1.286-.491-2.745-.66-.184-.021-.368-.043-.553-.066-1.648-.207-2.856-1.27-4.353-2.144-1.418-.827-3.534-4.2-3.534-4.2l-3.778.3s1.983,3.011,2.75,4.32a4.565,4.565,0,0,1,.37,2.574A4.855,4.855,0,0,0,2253.414,1460.546Z" transform="translate(-2199.14 -1372.283)" fill="#ffb27d"/>
        <path id="Path_9977" data-name="Path 9977" d="M2275.586,1498.943c1.935-.473,1.475.089,4.23-.215s3.589-1.332,3.673-1.742c.075-.363-1.286-.492-2.746-.66l-.013.028a7.765,7.765,0,0,1-3.945,1.226c-1.869.046-3.848-.49-5.139-.469a4.837,4.837,0,0,0,.029,1.292C2271.918,1499.619,2273.65,1499.416,2275.586,1498.943Z" transform="translate(-2217.402 -1410.141)" fill="#233862"/>
        <path id="Path_9978" data-name="Path 9978" d="M2095.454,1308.048l-3.532,9.5-4.611,12.408a7.461,7.461,0,0,1-2.449-.224,10.6,10.6,0,0,1-2.369-1.153s1.28-13.322,3.668-20.97a13.623,13.623,0,0,1,2.055-4.445C2091.919,1298.792,2095.454,1308.048,2095.454,1308.048Z" transform="translate(-2055.658 -1243.941)" fill="#d87225"/>
        <path id="Path_9979" data-name="Path 9979" d="M1922.838,1244.416s23.395-7.91,28.612-6.227,20.883,32.85,20.883,32.85a3.032,3.032,0,0,1-1.319.832,12.449,12.449,0,0,1-3.07.315s-14.138-12.118-15.821-15.652-2.356-6.9-4.04-6.564c-1.028.206-8.977,5.1-16.1,5.1H1921.68c-4.455-4.8-3.208-12.4-3.208-12.4Z" transform="translate(-1915.244 -1189.173)" fill="#0b0b0b"/>
        <path id="Path_9980" data-name="Path 9980" d="M1936.64,902.424a5.674,5.674,0,0,0-3.016-.824,1.437,1.437,0,0,1,.669-.256,4.763,4.763,0,0,0-1.728.31c-7.071-3.376-9.052,7.268-9.093,9.774s-.247,5.377-4.059,7.33c-7.5,3.843-2.059,11.995-2.059,11.995.054.038,2.9,5.847,2.9,5.847-.027-2.029,10.1-11.94,15.2-14.747a14.069,14.069,0,0,0,2.025-4.924,13.3,13.3,0,0,1-1.348,4.493C1940.526,917.96,1939.194,904.15,1936.64,902.424Z" transform="translate(-1912.795 -900.998)" fill="#b5453c"/>
        <path id="Path_9981" data-name="Path 9981" d="M1997.683,995.652c.022.015-2.509.879-4.2.129-1.592-.7-2.8-3.323-2.774-3.324.724-.034,1.519-.667,2.132-4.822l.308.111,5.185,1.866s-.376,1.664-.619,3.248C1997.51,994.19,1997.4,995.464,1997.683,995.652Z" transform="translate(-1977.159 -975.093)" fill="#ffb27d"/>
        <path id="Path_9982" data-name="Path 9982" d="M2012.75,990.265s-.375,1.664-.618,3.248c-2.978-.536-4.147-3.5-4.567-5.114Z" transform="translate(-1991.576 -975.746)" fill="#ed975d"/>
        <path id="Path_9983" data-name="Path 9983" d="M1987.036,913.828a15.9,15.9,0,0,1-1.966-4.647c-.271-1.529.507-7.2,6.2-6.381a7.737,7.737,0,0,1,3.209,1.213c1.237.835,3.022,2.638,1.026,7.584l-.518,1.671Z" transform="translate(-1972.298 -902.471)" fill="#b5453c"/>
        <path id="Path_9984" data-name="Path 9984" d="M2010.454,938.974s-7.094-.952-6.434-5.361.191-7.5,4.748-7.08,5.183,2.236,5.321,3.761S2012.316,939.108,2010.454,938.974Z" transform="translate(-1988.507 -922.803)" fill="#ffb27d"/>
        <path id="Path_9985" data-name="Path 9985" d="M1999.982,922.272s-2.719,4.879-5.808,5.194-4.258-.676-4.258-.676a8.517,8.517,0,0,0,3.506-4.559S1998.893,919.59,1999.982,922.272Z" transform="translate(-1976.483 -918.164)" fill="#b5453c"/>
        <path id="Path_9986" data-name="Path 9986" d="M2055.7,927.836a6.325,6.325,0,0,1,1.456,2.549c.183,1.176-.007,3.511.678,3.534,0,0,1.99-3.295.65-5.531C2057.06,926.017,2055.7,927.836,2055.7,927.836Z" transform="translate(-2032.74 -923.38)" fill="#b5453c"/>
        <path id="Path_9987" data-name="Path 9987" d="M1910.756,1057.955c.386,1.072,1.57,1.348,3.157,1.161,3.025-.354,7.519-2.384,10.757-3.789,4.937-2.14,7.181-.129,8.752-1.491s-1.8-4.391,1.122-18.453c.99-4.769-5.339-15.027-5.339-15.027s-.484,2.994-6.482-.567c-.212-.126-2.573,3.371-4.847,7.681-2.507,4.755-4.908,10.5-4.2,13.459C1915.019,1046.572,1909.634,1054.841,1910.756,1057.955Z" transform="translate(-1908.65 -1002.589)" fill="#34c6c8"/>
        <path id="Path_9988" data-name="Path 9988" d="M1910.756,1135.953c.386,1.072,1.57,1.348,3.157,1.161,2.094-.912,11.138-4.417,11.038-6.791-.151-3.516-1.74-3.628-.617-7.967.9-3.484-7.457-9.962-8.79-11.371-2.507,4.755-2.576,4.98-1.87,7.94C1915.019,1124.569,1909.634,1132.839,1910.756,1135.953Z" transform="translate(-1908.65 -1080.586)" fill="#1e3d70"/>
        <path id="Path_9989" data-name="Path 9989" d="M2091.922,1350.747l-4.611,12.408a7.47,7.47,0,0,1-2.449-.224,10.592,10.592,0,0,1-2.369-1.153s1.28-13.322,3.668-20.97Z" transform="translate(-2055.658 -1277.137)" fill="#0b0b0b"/>
        <path id="Path_9990" data-name="Path 9990" d="M2039.108,1023.723s6.171,1.046,6.9,3.7,4.989,18.278,4.989,18.278-3.137.563-4.587-.886-5.043-13.446-5.043-13.446Z" transform="translate(-2018.553 -1005.956)" fill="#2a4e96"/>
        <path id="Path_9991" data-name="Path 9991" d="M1911.2,1019.809s-5.833.359-7.853,3.176c-2.843,3.965-8.482,20.861-5.25,23.115,3.64,2.538,16.564.664,16.564.664s.43-2.01-.168-2.983-10.323-2.543-10.772-2.992,5.61-8.752,5.61-10.1S1911.2,1019.809,1911.2,1019.809Z" transform="translate(-1897.123 -1002.609)" fill="#2a4e96"/>
      </g>
      <g id="Group_17169" data-name="Group 17169" transform="translate(6.573 33.492)">
        <g id="Group_17168" data-name="Group 17168">
          <path id="Path_9992" data-name="Path 9992" d="M1996,1148.008h24.911l4.491-15.66h-24.872Z" transform="translate(-1988.257 -1132.348)" fill="#b5453c"/>
          <rect id="Rectangle_2609" data-name="Rectangle 2609" width="32.566" height="0.61" transform="translate(32.566 15.66) rotate(180)" fill="#b5453c"/>
        </g>
        <path id="Path_9993" data-name="Path 9993" d="M2101.415,1178.79a.726.726,0,0,0-.711-1,1.429,1.429,0,0,0-1.283,1,.726.726,0,0,0,.711,1A1.429,1.429,0,0,0,2101.415,1178.79Z" transform="translate(-2076.673 -1171.214)" fill="#f99746"/>
      </g>
    </g>
    <g id="Group_17174" data-name="Group 17174" transform="translate(517.9 234.949)">
      <g id="Group_17172" data-name="Group 17172" transform="translate(0 0)">
        <path id="Path_10000" data-name="Path 10000" d="M1778.953,332.353a3.426,3.426,0,0,0-3.426-3.426H1736.47a3.954,3.954,0,0,0-3.954,3.954V341a4.651,4.651,0,0,0,1.162,3.074l-1.162,5.313,6.7-3.714h36.117a3.618,3.618,0,0,0,3.618-3.618Z" transform="translate(-1732.516 -328.927)" fill="#fff"/>
      </g>
      <g id="Group_17173" data-name="Group 17173" transform="translate(4.156 4.945)">
        <path id="Path_10001" data-name="Path 10001" d="M1764.385,363.085l.978,1.981,2.187.318-1.582,1.542.373,2.178-1.955-1.028-1.955,1.028.373-2.178-1.582-1.542,2.187-.318Z" transform="translate(-1761.221 -363.085)" fill="#ffb93e"/>
        <path id="Path_10002" data-name="Path 10002" d="M1821.359,363.085l.978,1.981,2.186.318-1.582,1.542.374,2.178-1.956-1.028L1819.4,369.1l.374-2.178-1.582-1.542,2.187-.318Z" transform="translate(-1809.946 -363.085)" fill="#ffb93e"/>
        <path id="Path_10003" data-name="Path 10003" d="M1878.332,363.085l.978,1.981,2.186.318-1.582,1.542.373,2.178-1.956-1.028-1.956,1.028.373-2.178-1.582-1.542,2.187-.318Z" transform="translate(-1858.672 -363.085)" fill="#ffb93e"/>
        <path id="Path_10004" data-name="Path 10004" d="M1935.306,363.085l.978,1.981,2.186.318-1.582,1.542.373,2.178-1.956-1.028-1.955,1.028.373-2.178-1.582-1.542,2.186-.318Z" transform="translate(-1907.398 -363.085)" fill="#ffb93e"/>
        <path id="Path_10005" data-name="Path 10005" d="M1992.279,363.085l.978,1.981,2.186.318-1.582,1.542.373,2.178-1.956-1.028-1.956,1.028.374-2.178-1.582-1.542,2.187-.318Z" transform="translate(-1956.123 -363.085)" fill="#ffb93e"/>
      </g>
    </g>
    <rect id="Rectangle_2610" data-name="Rectangle 2610" width="84.07" height="56.656" transform="translate(448.929 275.019)" fill="#34c6c8"/>
    <g id="Group_17175" data-name="Group 17175" transform="translate(459.758 285.042)">
      <path id="Path_10006" data-name="Path 10006" d="M1391.18,712.51H1333.2a2.3,2.3,0,0,1-2.294-2.294V677.242a2.3,2.3,0,0,1,2.294-2.294h57.985a2.3,2.3,0,0,1,2.295,2.294v32.974A2.3,2.3,0,0,1,1391.18,712.51ZM1333.2,675.381a1.863,1.863,0,0,0-1.861,1.861v32.974a1.863,1.863,0,0,0,1.861,1.861h57.985a1.863,1.863,0,0,0,1.861-1.861V677.242a1.863,1.863,0,0,0-1.861-1.861Z" transform="translate(-1330.901 -674.948)" fill="#ebf3fa"/>
    </g>
    <path id="Path_10007" data-name="Path 10007" d="M1381.828,869.16l-13.37.1a1.032,1.032,0,0,1-1.036-1.02v-.128a1.032,1.032,0,0,1,1.021-1.037l13.37-.1a1.031,1.031,0,0,1,1.036,1.021v.129A1.031,1.031,0,0,1,1381.828,869.16Z" transform="translate(-902.376 -554.133)" fill="#fff"/>
    <path id="Path_10008" data-name="Path 10008" d="M1503.532,868.213l-13.37.1a1.032,1.032,0,0,1-1.036-1.02v-.129a1.032,1.032,0,0,1,1.021-1.036l13.37-.1a1.032,1.032,0,0,1,1.036,1.02v.128A1.032,1.032,0,0,1,1503.532,868.213Z" transform="translate(-1006.461 -553.323)" fill="#fff"/>
    <path id="Path_10009" data-name="Path 10009" d="M1380.337,714.19l-13.084.1a1.032,1.032,0,0,1-1.037-1.021h0a1.031,1.031,0,0,1,1.021-1.037l13.084-.1a1.032,1.032,0,0,1,1.037,1.021h0A1.032,1.032,0,0,1,1380.337,714.19Z" transform="translate(-901.345 -421.708)" fill="#fff"/>
    <g id="Group_17180" data-name="Group 17180" transform="translate(515.731 288.392)">
      <g id="Group_17176" data-name="Group 17176" transform="translate(0 1.725)">
        <path id="Path_10010" data-name="Path 10010" d="M1718.249,711.056a1.575,1.575,0,0,0-.355-.985.169.169,0,0,0-.252-.011l-.061.063a.167.167,0,0,0-.011.22,1.153,1.153,0,0,1,.011,1.436.167.167,0,0,0,.015.22l.062.062a.169.169,0,0,0,.252-.015A1.577,1.577,0,0,0,1718.249,711.056Z" transform="translate(-1717.533 -710.008)" fill="#fff"/>
      </g>
      <g id="Group_17177" data-name="Group 17177" transform="translate(0.618 1.114)">
        <path id="Path_10011" data-name="Path 10011" d="M1722.747,707.436a2.413,2.413,0,0,0-.619-1.6.168.168,0,0,0-.245,0l-.034.036a.169.169,0,0,0,0,.23,2.039,2.039,0,0,1,.021,2.685.169.169,0,0,0,.007.23l.035.035a.168.168,0,0,0,.245-.007A2.414,2.414,0,0,0,1722.747,707.436Z" transform="translate(-1721.803 -705.783)" fill="#fff"/>
      </g>
      <g id="Group_17178" data-name="Group 17178" transform="translate(1.17 0.578)">
        <path id="Path_10012" data-name="Path 10012" d="M1726.749,704.268a3.159,3.159,0,0,0-.845-2.129.168.168,0,0,0-.244,0h0a.168.168,0,0,0,0,.231,2.828,2.828,0,0,1,.03,3.817.167.167,0,0,0,.006.23h0a.168.168,0,0,0,.244-.005A3.161,3.161,0,0,0,1726.749,704.268Z" transform="translate(-1725.614 -702.086)" fill="#fff"/>
      </g>
      <g id="Group_17179" data-name="Group 17179" transform="translate(1.67)">
        <path id="Path_10013" data-name="Path 10013" d="M1730.507,700.845a3.96,3.96,0,0,0-1.09-2.7.169.169,0,0,0-.244,0l-.059.062a.167.167,0,0,0,0,.232,3.55,3.55,0,0,1,.038,4.84.167.167,0,0,0,0,.232l.061.061a.169.169,0,0,0,.244-.005A3.962,3.962,0,0,0,1730.507,700.845Z" transform="translate(-1729.067 -698.091)" fill="#fff"/>
      </g>
    </g>
    <g id="Group_17201" data-name="Group 17201" transform="translate(448.929 275.019)">
      <g id="Group_17200" data-name="Group 17200" transform="translate(0 0)" clip-path="url(#clip-path)">
        <g id="Group_17183" data-name="Group 17183" transform="translate(67.961 61.14)">
          <path id="Path_10014" data-name="Path 10014" d="M1725.68,1031.539a1.263,1.263,0,0,1,.169-.268h0a1.291,1.291,0,0,1,.164-.166l.248-.251.065.048c1.267-.62,3.882.037,6.529,1.765,3.2,2.088,5.251,4.963,4.659,6.491l.09.067-.356.354c-.017.018-.034.036-.052.053l-.01.01,0,0a1.457,1.457,0,0,1-.308.214h0c-1.251.655-3.895,0-6.57-1.744C1727.046,1035.987,1724.976,1033.043,1725.68,1031.539Z" transform="translate(-1725.543 -1030.292)" fill="#88add8"/>
          <path id="Path_10015" data-name="Path 10015" d="M1735.483,1030.038c-3.258-2.127-6.47-2.632-7.174-1.127s1.365,4.448,4.623,6.575,6.47,2.632,7.174,1.127S1738.741,1032.165,1735.483,1030.038Z" transform="translate(-1727.79 -1028.044)" fill="#afcdfb"/>
          <g id="Group_17181" data-name="Group 17181" transform="translate(1.132 0.548)">
            <path id="Path_10016" data-name="Path 10016" d="M1737.552,1038.3a12.839,12.839,0,0,1-3.308-3.031c-.788-1.086-1.06-2.037-.766-2.678a1.242,1.242,0,0,1,.838-.669c1.2-.346,3.332.316,5.427,1.688h0a12.838,12.838,0,0,1,3.308,3.031c.788,1.087,1.06,2.037.766,2.678a1.24,1.24,0,0,1-.838.668,2.606,2.606,0,0,1-.717.091A9.575,9.575,0,0,1,1737.552,1038.3Zm-3.17-6.147a1.014,1.014,0,0,0-.687.538c-.252.551.018,1.439.742,2.438a12.59,12.59,0,0,0,3.246,2.971,9.445,9.445,0,0,0,4.587,1.739,2.335,2.335,0,0,0,.643-.081,1.014,1.014,0,0,0,.687-.538c.252-.551-.018-1.439-.743-2.438a12.586,12.586,0,0,0-3.246-2.971,9.45,9.45,0,0,0-4.586-1.739A2.342,2.342,0,0,0,1734.381,1032.149Z" transform="translate(-1733.362 -1031.828)" fill="#98b9ea"/>
          </g>
          <g id="Group_17182" data-name="Group 17182" transform="translate(2.984 2.558)">
            <path id="Path_10017" data-name="Path 10017" d="M1751.142,1048.724a.389.389,0,0,0,.187-.007.2.2,0,0,0,.115-.1.342.342,0,0,0,.026-.193.784.784,0,0,0-.061-.227.933.933,0,0,0-.161-.245,1.615,1.615,0,0,0-.286-.248,2.512,2.512,0,0,0-.43-.235l-.073-.748a4.111,4.111,0,0,1,.749.418,3.291,3.291,0,0,1,.536.473,2.358,2.358,0,0,1,.345.492,2.073,2.073,0,0,1,.18.477l.711.312.04.411-.715-.314a.7.7,0,0,1-.1.359.477.477,0,0,1-.263.2.926.926,0,0,1-.414.017,2.261,2.261,0,0,1-.56-.176,3.2,3.2,0,0,1-.611-.346,3.037,3.037,0,0,1-.469-.425,3.614,3.614,0,0,1-.373-.5q-.167-.27-.331-.583-.1-.193-.192-.333a1.726,1.726,0,0,0-.188-.244,1.183,1.183,0,0,0-.208-.177,1.6,1.6,0,0,0-.243-.132,1.35,1.35,0,0,0-.245-.083.455.455,0,0,0-.191-.007.183.183,0,0,0-.12.08.28.28,0,0,0-.029.179.733.733,0,0,0,.247.437,2.2,2.2,0,0,0,.657.411l.073.747a4.368,4.368,0,0,1-.655-.353,3.5,3.5,0,0,1-.52-.415,2.531,2.531,0,0,1-.375-.459,1.767,1.767,0,0,1-.215-.481l-.779-.342-.04-.414.769.338a.637.637,0,0,1,.108-.355.5.5,0,0,1,.272-.189.949.949,0,0,1,.418-.015,2.278,2.278,0,0,1,.55.172,3.209,3.209,0,0,1,.615.348,2.959,2.959,0,0,1,.467.425,3.533,3.533,0,0,1,.37.5q.166.271.323.583a3.231,3.231,0,0,0,.179.318,1.681,1.681,0,0,0,.189.243,1.28,1.28,0,0,0,.217.185,1.739,1.739,0,0,0,.268.145A1.055,1.055,0,0,0,1751.142,1048.724Z" transform="translate(-1746.154 -1045.712)" fill="#98b9ea"/>
          </g>
        </g>
        <g id="Group_17186" data-name="Group 17186" transform="translate(2.429 67.733)">
          <path id="Path_10018" data-name="Path 10018" d="M1280.43,1089.229a1.275,1.275,0,0,1,.169-.268h0a1.293,1.293,0,0,1,.164-.166l.247-.251.065.048c1.267-.62,3.882.037,6.529,1.765,3.2,2.088,5.251,4.963,4.659,6.491l.09.067-.356.354c-.017.018-.035.036-.053.052l-.01.01,0,0a1.458,1.458,0,0,1-.308.214h0c-1.25.655-3.894,0-6.569-1.744C1281.8,1093.677,1279.726,1090.733,1280.43,1089.229Z" transform="translate(-1279.219 -1086.223)" fill="#88add8"/>
          <ellipse id="Ellipse_1276" data-name="Ellipse 1276" cx="2.972" cy="7.06" rx="2.972" ry="7.06" transform="translate(0 4.875) rotate(-55.108)" fill="#afcdfb"/>
          <g id="Group_17184" data-name="Group 17184" transform="translate(2.206 2.307)">
            <path id="Path_10019" data-name="Path 10019" d="M1292.3,1095.987a12.832,12.832,0,0,1-3.308-3.031c-.788-1.086-1.06-2.037-.766-2.678a1.241,1.241,0,0,1,.838-.668c1.2-.346,3.333.316,5.427,1.688h0a12.835,12.835,0,0,1,3.309,3.031c.788,1.086,1.06,2.037.766,2.678a1.242,1.242,0,0,1-.838.668,2.605,2.605,0,0,1-.717.091A9.575,9.575,0,0,1,1292.3,1095.987Zm-3.171-6.148a1.015,1.015,0,0,0-.687.538c-.252.551.018,1.439.743,2.438a12.584,12.584,0,0,0,3.246,2.971,9.447,9.447,0,0,0,4.586,1.738,2.34,2.34,0,0,0,.643-.08,1.014,1.014,0,0,0,.687-.538c.252-.551-.018-1.439-.742-2.438a12.587,12.587,0,0,0-3.246-2.971,9.445,9.445,0,0,0-4.586-1.739A2.339,2.339,0,0,0,1289.131,1089.839Z" transform="translate(-1288.111 -1089.519)" fill="#98b9ea"/>
          </g>
          <g id="Group_17185" data-name="Group 17185" transform="translate(4.058 4.316)">
            <path id="Path_10020" data-name="Path 10020" d="M1305.893,1106.415a.385.385,0,0,0,.187-.007.2.2,0,0,0,.114-.1.343.343,0,0,0,.026-.193.768.768,0,0,0-.061-.226.928.928,0,0,0-.161-.246,1.611,1.611,0,0,0-.285-.248,2.538,2.538,0,0,0-.43-.234l-.073-.748a4.1,4.1,0,0,1,.749.418,3.292,3.292,0,0,1,.536.473,2.375,2.375,0,0,1,.345.492,2.087,2.087,0,0,1,.18.476l.711.313.04.411-.715-.314a.707.707,0,0,1-.1.36.477.477,0,0,1-.263.2.926.926,0,0,1-.415.017,2.253,2.253,0,0,1-.56-.176,3.205,3.205,0,0,1-.611-.346,3.025,3.025,0,0,1-.469-.426,3.573,3.573,0,0,1-.374-.5q-.168-.27-.332-.583-.1-.194-.192-.333a1.685,1.685,0,0,0-.189-.244,1.176,1.176,0,0,0-.208-.177,1.56,1.56,0,0,0-.243-.132,1.309,1.309,0,0,0-.245-.083.454.454,0,0,0-.192-.008.181.181,0,0,0-.119.08.279.279,0,0,0-.029.179.733.733,0,0,0,.247.437,2.2,2.2,0,0,0,.657.411l.073.747a4.372,4.372,0,0,1-.655-.353,3.476,3.476,0,0,1-.52-.415,2.523,2.523,0,0,1-.375-.46,1.739,1.739,0,0,1-.215-.481l-.78-.342-.04-.414.769.338a.643.643,0,0,1,.108-.355.505.505,0,0,1,.272-.189.952.952,0,0,1,.418-.014,2.255,2.255,0,0,1,.55.172,3.211,3.211,0,0,1,.615.348,2.983,2.983,0,0,1,.468.425,3.565,3.565,0,0,1,.37.5q.165.271.323.583a3.2,3.2,0,0,0,.178.317,1.683,1.683,0,0,0,.189.243,1.271,1.271,0,0,0,.217.185,1.727,1.727,0,0,0,.268.145A1.049,1.049,0,0,0,1305.893,1106.415Z" transform="translate(-1300.904 -1103.403)" fill="#98b9ea"/>
          </g>
        </g>
        <g id="Group_17189" data-name="Group 17189" transform="translate(69.327 118.872)">
          <path id="Path_10021" data-name="Path 10021" d="M1735.121,1430.507a1.339,1.339,0,0,1,.178-.282h0a1.392,1.392,0,0,1,.172-.175l.261-.264.069.051c1.334-.653,4.089.039,6.876,1.859,3.368,2.2,5.53,5.227,4.907,6.836l.095.07-.375.373c-.018.019-.036.037-.055.055l-.01.011,0,0a1.542,1.542,0,0,1-.324.225h0c-1.317.69-4.1,0-6.918-1.836C1736.559,1435.192,1734.379,1432.092,1735.121,1430.507Z" transform="translate(-1734.976 -1429.194)" fill="#88add8"/>
          <path id="Path_10022" data-name="Path 10022" d="M1745.444,1428.927c-3.431-2.24-6.814-2.771-7.556-1.187s1.438,4.685,4.869,6.925,6.814,2.771,7.556,1.187S1748.875,1431.167,1745.444,1428.927Z" transform="translate(-1737.342 -1426.827)" fill="#afcdfb"/>
          <g id="Group_17187" data-name="Group 17187" transform="translate(1.192 0.577)">
            <path id="Path_10023" data-name="Path 10023" d="M1747.623,1437.624a13.523,13.523,0,0,1-3.484-3.192c-.83-1.144-1.116-2.146-.807-2.82a1.306,1.306,0,0,1,.883-.7c1.266-.365,3.51.333,5.715,1.777h0a13.512,13.512,0,0,1,3.484,3.192c.83,1.144,1.116,2.146.807,2.82a1.307,1.307,0,0,1-.883.7,2.729,2.729,0,0,1-.755.1A10.088,10.088,0,0,1,1747.623,1437.624Zm-3.339-6.474a1.069,1.069,0,0,0-.724.567c-.266.58.019,1.516.782,2.568a13.267,13.267,0,0,0,3.418,3.129,9.947,9.947,0,0,0,4.83,1.831,2.469,2.469,0,0,0,.677-.085,1.068,1.068,0,0,0,.723-.567c.266-.58-.019-1.516-.782-2.568a13.258,13.258,0,0,0-3.419-3.129,9.946,9.946,0,0,0-4.83-1.831A2.458,2.458,0,0,0,1744.284,1431.15Z" transform="translate(-1743.21 -1430.813)" fill="#98b9ea"/>
          </g>
          <g id="Group_17188" data-name="Group 17188" transform="translate(3.143 2.694)">
            <path id="Path_10024" data-name="Path 10024" d="M1761.938,1448.606a.4.4,0,0,0,.2-.008.2.2,0,0,0,.12-.1.359.359,0,0,0,.028-.2.815.815,0,0,0-.065-.238.979.979,0,0,0-.17-.258,1.7,1.7,0,0,0-.3-.261,2.681,2.681,0,0,0-.453-.247l-.076-.787a4.318,4.318,0,0,1,.788.44,3.448,3.448,0,0,1,.564.5,2.512,2.512,0,0,1,.364.518,2.186,2.186,0,0,1,.19.5l.749.329.042.433-.753-.331a.742.742,0,0,1-.108.379.5.5,0,0,1-.277.206.975.975,0,0,1-.436.018,2.367,2.367,0,0,1-.59-.185,3.366,3.366,0,0,1-.644-.365,3.2,3.2,0,0,1-.495-.448,3.779,3.779,0,0,1-.393-.529q-.176-.285-.35-.614c-.071-.135-.138-.253-.2-.351a1.813,1.813,0,0,0-.2-.257,1.25,1.25,0,0,0-.219-.186,1.675,1.675,0,0,0-.256-.139,1.4,1.4,0,0,0-.259-.088.476.476,0,0,0-.2-.008.19.19,0,0,0-.126.084.293.293,0,0,0-.031.188.772.772,0,0,0,.26.46,2.317,2.317,0,0,0,.692.433l.076.787a4.624,4.624,0,0,1-.69-.372,3.7,3.7,0,0,1-.548-.438,2.694,2.694,0,0,1-.395-.484,1.866,1.866,0,0,1-.226-.506l-.821-.36-.042-.436.81.356a.672.672,0,0,1,.114-.374.531.531,0,0,1,.287-.2,1,1,0,0,1,.441-.015,2.362,2.362,0,0,1,.579.181,3.391,3.391,0,0,1,.647.367,3.146,3.146,0,0,1,.493.447,3.693,3.693,0,0,1,.39.529q.175.285.34.614a3.333,3.333,0,0,0,.188.334,1.793,1.793,0,0,0,.2.255,1.334,1.334,0,0,0,.229.194,1.793,1.793,0,0,0,.283.153A1.114,1.114,0,0,0,1761.938,1448.606Z" transform="translate(-1756.684 -1445.434)" fill="#98b9ea"/>
          </g>
        </g>
        <g id="Group_17192" data-name="Group 17192" transform="translate(26.781 132.9)">
          <path id="Path_10025" data-name="Path 10025" d="M1441.288,1528.8a1.844,1.844,0,0,1,.245-.389h0a1.9,1.9,0,0,1,.238-.241l.359-.364.094.07c1.839-.9,5.635.054,9.476,2.562,4.642,3.03,7.622,7.2,6.762,9.421l.131.1-.516.514c-.025.026-.05.052-.076.076l-.015.015,0,0a2.106,2.106,0,0,1-.447.311l0,0h0c-1.815.951-5.652,0-9.535-2.531C1443.27,1535.255,1440.266,1530.983,1441.288,1528.8Z" transform="translate(-1441.088 -1526.989)" fill="#88add8"/>
          <path id="Path_10026" data-name="Path 10026" d="M1455.516,1526.62c-4.729-3.087-9.391-3.82-10.413-1.636s1.982,6.456,6.71,9.543,9.391,3.82,10.413,1.636S1460.245,1529.707,1455.516,1526.62Z" transform="translate(-1444.351 -1523.727)" fill="#afcdfb"/>
          <g id="Group_17190" data-name="Group 17190" transform="translate(1.643 0.795)">
            <path id="Path_10027" data-name="Path 10027" d="M1458.519,1538.607a18.624,18.624,0,0,1-4.8-4.4c-1.144-1.577-1.539-2.957-1.112-3.887a1.8,1.8,0,0,1,1.216-.97c1.745-.5,4.837.459,7.876,2.449h0a18.622,18.622,0,0,1,4.8,4.4c1.144,1.577,1.538,2.957,1.112,3.887a1.8,1.8,0,0,1-1.216.97,3.765,3.765,0,0,1-1.041.132A13.9,13.9,0,0,1,1458.519,1538.607Zm-4.6-8.922a1.471,1.471,0,0,0-1,.781c-.366.8.026,2.089,1.078,3.539a18.277,18.277,0,0,0,4.711,4.313,13.717,13.717,0,0,0,6.657,2.523,3.4,3.4,0,0,0,.934-.117,1.471,1.471,0,0,0,1-.781c.366-.8-.026-2.089-1.078-3.538a18.27,18.27,0,0,0-4.711-4.312,13.713,13.713,0,0,0-6.657-2.523A3.393,3.393,0,0,0,1453.917,1529.684Z" transform="translate(-1452.438 -1529.219)" fill="#98b9ea"/>
          </g>
          <g id="Group_17191" data-name="Group 17191" transform="translate(4.331 3.712)">
            <path id="Path_10028" data-name="Path 10028" d="M1478.245,1553.742a.56.56,0,0,0,.271-.01.284.284,0,0,0,.166-.141.5.5,0,0,0,.038-.28,1.142,1.142,0,0,0-.089-.328,1.362,1.362,0,0,0-.234-.356,2.333,2.333,0,0,0-.414-.36,3.65,3.65,0,0,0-.624-.341l-.105-1.085a5.972,5.972,0,0,1,1.087.607,4.748,4.748,0,0,1,.778.687,3.437,3.437,0,0,1,.5.714,3.007,3.007,0,0,1,.262.692l1.032.453.058.6-1.037-.456a1.017,1.017,0,0,1-.149.522.691.691,0,0,1-.382.283,1.34,1.34,0,0,1-.6.025,3.3,3.3,0,0,1-.813-.255,4.641,4.641,0,0,1-.887-.5,4.4,4.4,0,0,1-.681-.617,5.227,5.227,0,0,1-.542-.729q-.242-.392-.481-.845-.147-.281-.279-.484a2.5,2.5,0,0,0-.274-.354,1.731,1.731,0,0,0-.3-.257,2.3,2.3,0,0,0-.353-.191,1.878,1.878,0,0,0-.356-.12.662.662,0,0,0-.278-.011.263.263,0,0,0-.173.116.408.408,0,0,0-.042.26,1.063,1.063,0,0,0,.359.634,3.189,3.189,0,0,0,.954.6l.105,1.085a6.335,6.335,0,0,1-.951-.513,5.046,5.046,0,0,1-.754-.6,3.686,3.686,0,0,1-.544-.667,2.568,2.568,0,0,1-.312-.7l-1.131-.5-.058-.6,1.116.49a.929.929,0,0,1,.157-.515.732.732,0,0,1,.395-.274,1.377,1.377,0,0,1,.607-.021,3.287,3.287,0,0,1,.8.25,4.665,4.665,0,0,1,.892.505,4.34,4.34,0,0,1,.678.616,5.147,5.147,0,0,1,.537.728q.24.393.469.846a4.721,4.721,0,0,0,.259.461,2.494,2.494,0,0,0,.274.352,1.845,1.845,0,0,0,.316.268,2.492,2.492,0,0,0,.39.21A1.51,1.51,0,0,0,1478.245,1553.742Z" transform="translate(-1471.005 -1549.37)" fill="#98b9ea"/>
          </g>
        </g>
        <g id="Group_17194" data-name="Group 17194" transform="translate(77.055 107.775)">
          <path id="Path_10029" data-name="Path 10029" d="M1788.585,1355.916a2.089,2.089,0,0,1,.277-.439h0a2.168,2.168,0,0,1,.269-.273l.406-.412.107.079c2.079-1.018,6.373.061,10.716,2.9,5.249,3.427,8.619,8.146,7.647,10.654l.148.109-.584.582c-.028.03-.057.058-.086.086l-.017.017,0,0a2.39,2.39,0,0,1-.5.351l0,0h0c-2.053,1.075-6.392,0-10.783-2.862C1790.826,1363.217,1787.429,1358.385,1788.585,1355.916Z" transform="translate(-1788.359 -1353.869)" fill="#88add8"/>
          <path id="Path_10030" data-name="Path 10030" d="M1804.674,1353.452c-5.347-3.491-10.62-4.32-11.776-1.85s2.241,7.3,7.589,10.793,10.62,4.319,11.776,1.85S1810.022,1356.943,1804.674,1353.452Z" transform="translate(-1792.048 -1350.18)" fill="#afcdfb"/>
          <g id="Group_17193" data-name="Group 17193" transform="translate(1.858 0.899)">
            <path id="Path_10031" data-name="Path 10031" d="M1808.071,1367.008a21.062,21.062,0,0,1-5.43-4.975c-1.293-1.783-1.74-3.344-1.258-4.4a2.036,2.036,0,0,1,1.375-1.1c1.974-.568,5.469.519,8.907,2.77h0a21.056,21.056,0,0,1,5.431,4.975c1.293,1.783,1.74,3.344,1.258,4.4a2.037,2.037,0,0,1-1.375,1.1,4.263,4.263,0,0,1-1.177.149C1813.775,1369.927,1810.9,1368.862,1808.071,1367.008Zm-5.2-10.09a1.662,1.662,0,0,0-1.127.884c-.415.9.029,2.362,1.218,4a20.67,20.67,0,0,0,5.328,4.877c2.741,1.795,5.589,2.854,7.528,2.854a3.835,3.835,0,0,0,1.056-.132,1.661,1.661,0,0,0,1.127-.884c.415-.9-.03-2.362-1.218-4a20.666,20.666,0,0,0-5.328-4.877c-2.741-1.8-5.589-2.854-7.528-2.854A3.834,3.834,0,0,0,1802.867,1356.917Z" transform="translate(-1801.194 -1356.391)" fill="#98b9ea"/>
          </g>
        </g>
        <g id="Group_17196" data-name="Group 17196" transform="translate(-9.935 88.042)">
          <path id="Path_10032" data-name="Path 10032" d="M1187.7,1219.606a2.086,2.086,0,0,1,.277-.44h0a2.134,2.134,0,0,1,.269-.273l.406-.412.107.079c2.079-1.018,6.373.061,10.716,2.9,5.249,3.427,8.619,8.146,7.647,10.654l.148.109-.584.582c-.028.03-.057.058-.086.086l-.016.016-.005,0a2.411,2.411,0,0,1-.505.352l0,0h0c-2.052,1.076-6.392,0-10.783-2.862C1189.942,1226.907,1186.545,1222.075,1187.7,1219.606Z" transform="translate(-1187.475 -1217.559)" fill="#88add8"/>
          <path id="Path_10033" data-name="Path 10033" d="M1203.791,1217.142c-5.347-3.492-10.62-4.32-11.776-1.85s2.241,7.3,7.588,10.792,10.62,4.32,11.776,1.85S1209.138,1220.633,1203.791,1217.142Z" transform="translate(-1191.164 -1213.87)" fill="#afcdfb"/>
          <g id="Group_17195" data-name="Group 17195" transform="translate(1.858 0.899)">
            <path id="Path_10034" data-name="Path 10034" d="M1207.187,1230.7a21.062,21.062,0,0,1-5.43-4.975c-1.293-1.783-1.74-3.344-1.258-4.4a2.038,2.038,0,0,1,1.375-1.1c1.974-.568,5.47.519,8.908,2.77h0a21.069,21.069,0,0,1,5.431,4.975c1.293,1.783,1.74,3.345,1.258,4.4a2.037,2.037,0,0,1-1.375,1.1,4.263,4.263,0,0,1-1.177.149C1212.891,1233.616,1210.019,1232.551,1207.187,1230.7Zm-5.2-10.09a1.664,1.664,0,0,0-1.127.884c-.415.9.03,2.362,1.219,4a20.673,20.673,0,0,0,5.328,4.877c2.741,1.8,5.589,2.853,7.528,2.853a3.838,3.838,0,0,0,1.056-.132,1.663,1.663,0,0,0,1.127-.884c.414-.9-.03-2.362-1.219-4a20.665,20.665,0,0,0-5.328-4.877c-2.741-1.8-5.589-2.854-7.528-2.854A3.848,3.848,0,0,0,1201.983,1220.607Z" transform="translate(-1200.31 -1220.081)" fill="#98b9ea"/>
          </g>
        </g>
        <g id="Group_17199" data-name="Group 17199" transform="translate(0.725 129.83)">
          <path id="Path_10035" data-name="Path 10035" d="M1289.19,1520.37a1.443,1.443,0,0,0-.193-.305h0a1.458,1.458,0,0,0-.187-.189l-.282-.286-.074.055c-1.445-.708-4.431.042-7.45,2.014-3.65,2.383-5.993,5.663-5.317,7.407l-.1.076.406.4c.019.02.039.04.06.06l.011.011,0,0a1.67,1.67,0,0,0,.351.244l0,0h0c1.427.748,4.444,0,7.5-1.99C1287.632,1525.446,1289.994,1522.087,1289.19,1520.37Z" transform="translate(-1273.476 -1516.94)" fill="#88add8"/>
          <ellipse id="Ellipse_1277" data-name="Ellipse 1277" cx="8.057" cy="3.391" rx="8.057" ry="3.391" transform="matrix(0.82, -0.572, 0.572, 0.82, 0, 9.217)" fill="#afcdfb"/>
          <g id="Group_17197" data-name="Group 17197" transform="translate(2.517 2.632)">
            <path id="Path_10036" data-name="Path 10036" d="M1280.4,1530.111a2.966,2.966,0,0,1-.818-.1,1.418,1.418,0,0,1-.956-.762c-.335-.731-.025-1.816.875-3.056a14.647,14.647,0,0,1,3.775-3.459h0c2.39-1.565,4.821-2.321,6.193-1.926a1.416,1.416,0,0,1,.956.763c.335.731.025,1.816-.874,3.056a14.643,14.643,0,0,1-3.775,3.459A10.928,10.928,0,0,1,1280.4,1530.111Zm8.259-9.137a10.784,10.784,0,0,0-5.234,1.984,14.364,14.364,0,0,0-3.7,3.39c-.827,1.14-1.135,2.154-.847,2.782a1.157,1.157,0,0,0,.784.614,2.677,2.677,0,0,0,.734.092,10.783,10.783,0,0,0,5.234-1.984,14.371,14.371,0,0,0,3.7-3.391c.827-1.14,1.135-2.154.848-2.782a1.156,1.156,0,0,0-.784-.614A2.666,2.666,0,0,0,1288.658,1520.974Z" transform="translate(-1278.493 -1520.701)" fill="#98b9ea"/>
          </g>
          <g id="Group_17198" data-name="Group 17198" transform="translate(4.631 4.926)">
            <path id="Path_10037" data-name="Path 10037" d="M1295.511,1539.894a1.979,1.979,0,0,0,.306-.166,1.447,1.447,0,0,0,.248-.211,1.962,1.962,0,0,0,.215-.277,3.767,3.767,0,0,0,.2-.362q.179-.356.368-.665a4.014,4.014,0,0,1,.423-.573,3.393,3.393,0,0,1,.533-.484,3.653,3.653,0,0,1,.7-.4,2.579,2.579,0,0,1,.627-.2,1.084,1.084,0,0,1,.477.016.577.577,0,0,1,.311.215.733.733,0,0,1,.123.4l.877-.385-.046.472-.889.391a2.013,2.013,0,0,1-.245.549,2.893,2.893,0,0,1-.428.524,3.993,3.993,0,0,1-.593.474,5,5,0,0,1-.748.4l.083-.853a2.51,2.51,0,0,0,.75-.469.836.836,0,0,0,.282-.5.321.321,0,0,0-.033-.2.207.207,0,0,0-.136-.091.517.517,0,0,0-.219.008,1.5,1.5,0,0,0-.28.095,1.845,1.845,0,0,0-.277.15,1.359,1.359,0,0,0-.237.2,1.951,1.951,0,0,0-.215.278q-.1.16-.219.38-.188.357-.378.665a4.107,4.107,0,0,1-.426.573,3.45,3.45,0,0,1-.535.485,3.64,3.64,0,0,1-.7.4,2.6,2.6,0,0,1-.639.2,1.058,1.058,0,0,1-.473-.02.544.544,0,0,1-.3-.223.8.8,0,0,1-.117-.411l-.816.358.045-.469.812-.357a2.372,2.372,0,0,1,.206-.544,2.722,2.722,0,0,1,.394-.562,3.737,3.737,0,0,1,.612-.54,4.673,4.673,0,0,1,.854-.477l-.083.853a2.885,2.885,0,0,0-.491.268,1.828,1.828,0,0,0-.325.283,1.055,1.055,0,0,0-.184.28.877.877,0,0,0-.07.258.391.391,0,0,0,.03.22.222.222,0,0,0,.13.111.442.442,0,0,0,.213.008A1.205,1.205,0,0,0,1295.511,1539.894Z" transform="translate(-1293.091 -1536.545)" fill="#98b9ea"/>
          </g>
        </g>
      </g>
    </g>
    <g id="Group_17205" data-name="Group 17205" transform="translate(469.285 340.325)">
      <path id="Path_10038" data-name="Path 10038" d="M1441.379,1056.818v63.431l-2.171-1.016-2.447,1.016-1-.96-3.047.96-2.065-.608-3.627.608-3.355-.608-3.835.608-2.556-.96-3.54.96-2.851-.608-3.245.608-3.442-.608-2.261.608-2.459-.608-2.774.608v-63.431Z" transform="translate(-1396.71 -1056.818)" fill="#fff"/>
      <g id="Group_17202" data-name="Group 17202" transform="translate(6.319 8.255)">
        <path id="Path_10039" data-name="Path 10039" d="M1470.741,1114.872h-29.867a.518.518,0,0,1-.517-.517h0a.518.518,0,0,1,.517-.517h29.867a.518.518,0,0,1,.516.517h0A.518.518,0,0,1,1470.741,1114.872Z" transform="translate(-1440.357 -1113.839)" fill="#699ff0"/>
        <path id="Path_10040" data-name="Path 10040" d="M1470.741,1144.969h-29.867a.518.518,0,0,1-.517-.517h0a.518.518,0,0,1,.517-.517h29.867a.518.518,0,0,1,.516.517h0A.518.518,0,0,1,1470.741,1144.969Z" transform="translate(-1440.357 -1139.579)" fill="#699ff0"/>
        <path id="Rectangle_2612" data-name="Rectangle 2612" d="M.517,0H18.069a.517.517,0,0,1,.517.517v0a.517.517,0,0,1-.517.517H.517A.517.517,0,0,1,0,.517v0A.517.517,0,0,1,.517,0Z" transform="translate(6.158 8.715)" fill="#699ff0"/>
        <path id="Rectangle_2613" data-name="Rectangle 2613" d="M.517,0H18.069a.517.517,0,0,1,.517.517v0a.517.517,0,0,1-.517.517H.517A.517.517,0,0,1,0,.517v0A.517.517,0,0,1,.517,0Z" transform="translate(6.158 13.072)" fill="#699ff0"/>
        <path id="Rectangle_2614" data-name="Rectangle 2614" d="M.517,0H18.069a.517.517,0,0,1,.517.517v0a.517.517,0,0,1-.517.517H.517A.517.517,0,0,1,0,.517v0A.517.517,0,0,1,.517,0Z" transform="translate(6.158 17.429)" fill="#699ff0"/>
      </g>
      <g id="Group_17204" data-name="Group 17204" transform="translate(12.537 34.13)">
        <g id="Group_17203" data-name="Group 17203">
          <path id="Path_10041" data-name="Path 10041" d="M1492.572,1311.1a9.262,9.262,0,1,1,9.262-9.262A9.273,9.273,0,0,1,1492.572,1311.1Zm0-17.78a8.518,8.518,0,1,0,8.518,8.518A8.528,8.528,0,0,0,1492.572,1293.317Z" transform="translate(-1483.31 -1292.573)" fill="#699ff0"/>
        </g>
        <path id="Path_10042" data-name="Path 10042" d="M1510.077,1320.983l5.563,7.239,4.383-10.732-5.215,5.559Z" transform="translate(-1506.202 -1313.882)" fill="#34c6c8"/>
      </g>
    </g>
    <g id="Group_17211" data-name="Group 17211" transform="translate(603.058 307.983)">
      <g id="Group_17210" data-name="Group 17210" transform="translate(0 0)">
        <g id="Group_17209" data-name="Group 17209">
          <path id="Path_10043" data-name="Path 10043" d="M2348.634,1074.269c0-.081,1.191-2.544.812-2.734s-1.058-.161-1.137.271A15.05,15.05,0,0,0,2348.634,1074.269Z" transform="translate(-2344.311 -1036.967)" fill="#ffb27d"/>
          <path id="Path_10044" data-name="Path 10044" d="M2473.454,851.125s6.986-8.395,10.684-3.023c0,0,2.759,1.145,3.757,5.841,1.018,4.791-2.168,8.434-3.816,7.534-1.057-.577-1.857,1.272-1.857,1.272Z" transform="translate(-2451.347 -844.441)" fill="#233862"/>
          <path id="Path_10045" data-name="Path 10045" d="M2349.2,1039.006c-5.554-2.046-10.9-11.55-10.9-11.55l1.752-1.226c1.459,2.134,8.022,6.232,8.022,6.232.15-1.8.367-3.43.636-4.908,1.822-10.044,5.99-13.02,7.109-13.651a2.524,2.524,0,0,1,.282-.143s0,.074-.012.214c-.016.3-.052.911-.11,1.746C2355.537,1021.938,2353.836,1040.717,2349.2,1039.006Z" transform="translate(-2335.753 -987.651)" fill="#ffb27d"/>
          <path id="Path_10046" data-name="Path 10046" d="M2541.982,836.226s.939-3.757,6.458-2.583c0,0-2.642-.333-3.366.685,0,0,2.094-.959,3.4-.156s1.526,3.5,1.331,4.324-1.644,3.268-2.6,3.268a4.411,4.411,0,0,1-2.094-.841Z" transform="translate(-2509.955 -833.415)" fill="#233862"/>
          <path id="Path_10047" data-name="Path 10047" d="M2466.483,996.773c-2.743-6.153-4.056-7.893-4.1-9.829-.036-1.531.719-3.183,2.185-7.233a15.094,15.094,0,0,0,.73-2.928c1.16-7.809-3.356-16.25-6.163-16.826-.781-.206-2.1-3.027-2.088-7.571l-.351.069-5.91,1.17s.134,1.86.138,3.612c0,1.46-.084,2.844-.415,3.018-.426.039-.677.064-.677.064s-4.928,6.843-5.342,13.208,3.946,9.129-.033,21.848C2440.394,1008.365,2468,1000.173,2466.483,996.773Z" transform="translate(-2426.198 -935.162)" fill="#ffb27d"/>
          <path id="Path_10048" data-name="Path 10048" d="M2490.579,954.034s.134,1.86.138,3.612c3.307-.093,5.055-3.11,5.771-4.782Z" transform="translate(-2465.993 -935.571)" fill="#e8945b"/>
          <path id="Path_10049" data-name="Path 10049" d="M2475.112,876.686a17.384,17.384,0,0,0,2.149-5.08c.3-1.672-.554-7.868-6.781-6.976a8.457,8.457,0,0,0-3.508,1.326c-1.352.913-3.3,2.884-1.122,8.291l.566,1.827Z" transform="translate(-2444.006 -860.037)" fill="#233862"/>
          <path id="Path_10050" data-name="Path 10050" d="M2467.556,894.412s7.824.129,7.829-4.745,1.02-8.139-3.976-8.428-5.968,1.57-6.365,3.2S2465.521,894.253,2467.556,894.412Z" transform="translate(-2444.075 -874.291)" fill="#ffb27d"/>
          <path id="Path_10051" data-name="Path 10051" d="M2484.95,874.739s2.142,5.718,5.43,6.563,4.714-.035,4.714-.035a9.311,9.311,0,0,1-3.045-5.5S2486.566,872.017,2484.95,874.739Z" transform="translate(-2461.179 -867.909)" fill="#233862"/>
          <path id="Path_10052" data-name="Path 10052" d="M2465.214,878.289a6.908,6.908,0,0,0-1.99,2.518c-.39,1.241-.566,3.8-1.31,3.709,0,0-1.614-3.886.2-6.085C2464.037,876.1,2465.214,878.289,2465.214,878.289Z" transform="translate(-2440.913 -870.995)" fill="#233862"/>
          <path id="Path_10053" data-name="Path 10053" d="M2457.427,1327.668a77.315,77.315,0,0,1-4.932,13.834l-2.58-.179a72.968,72.968,0,0,0,1.192-14.153,59.247,59.247,0,0,0-3-18.822c-7.72-22.049-6.472-38.1-6.472-38.1l14.519,1.7.676.079c.061,6.667.233,15.72.384,22.8.133,6.367.25,11.135.25,11.135C2460.253,1311.976,2459.24,1320.461,2457.427,1327.668Z" transform="translate(-2424.07 -1207.011)" fill="#0b0b0b"/>
          <path id="Path_10054" data-name="Path 10054" d="M2563.447,1047.173l-2.349.7s-7.749-12.856-8.453-16.2c-.23-1.089-.793-3.268-1.451-5.71-1.361-5.057-3.117-11.245-3.117-11.245l-.578-2.5-1.972-8.542a26.759,26.759,0,0,1,5.985,1.31,2.743,2.743,0,0,1,1.484,1.1c1.623,3.568,3.243,12.574,4.382,19,.634,3.581,1.118,6.36,1.371,6.949C2559.455,1033.671,2561.607,1042.711,2563.447,1047.173Z" transform="translate(-2512.987 -979.026)" fill="#ffb27d"/>
          <path id="Path_10055" data-name="Path 10055" d="M2507.571,1308.355a35.723,35.723,0,0,1-4.51,14.67l-1.233.9s-1.167-6.277-1.992-13.744c-.787-7.1-1.865-14.609-3.085-16.9-4.842-9.092-6.3-43.414-6.3-43.414l14.72-.73c1.48,2.489,2.126,6.571,2.279,11.212.387,11.714-2.366,26.988-2.778,29.2a.009.009,0,0,1,0,.005.772.772,0,0,0,.1.494C2507.7,1295.837,2508.12,1302.47,2507.571,1308.355Z" transform="translate(-2465.884 -1188.949)" fill="#0b0b0b"/>
          <path id="Path_10056" data-name="Path 10056" d="M2486.565,875.935s1.526,5.988,5.675,7.905c0,0-4.149-3.679-4.5-7.631S2486.565,875.935,2486.565,875.935Z" transform="translate(-2462.56 -868.448)" fill="#233862"/>
          <path id="Path_10057" data-name="Path 10057" d="M2452.439,1046.382a3.494,3.494,0,0,1-.092,1.176c-.313.985-1.389,1.434-3.989,1.166-1.589-.165-2.3-2.829-2.614-5.1q-1.432,4.877-4.019,5.459c-2.521.561-15.238,2.107-16.07-3.938-.915-6.649,1.826-18.421,1.977-24.769a31.42,31.42,0,0,1-.461-5.882c.106-4.522,1.433-7.056,2.454-8.077a3.481,3.481,0,0,1,1.739-.56c.593-.1,1.414-.218,2.579-.371a4.392,4.392,0,0,1,.465-.036c-.215.385-3.1,4.746-2.871,5.867.236,1.174,10.45.117,11.155-.528s1.819-5.591,1.819-5.591,3.617.4,5.387,1.682l-.019.023a1.486,1.486,0,0,1,.465.489c1.888,3.594,3.772,12.664,5.1,19.134a9.421,9.421,0,0,1-6.892,1.01C2449.687,1034.987,2452.27,1042.987,2452.439,1046.382Z" transform="translate(-2410.309 -980.328)" fill="#34c6c8"/>
          <path id="Path_10058" data-name="Path 10058" d="M2325.044,1063.168c0-.242.2-3.737-.419-4.471s-1.893-1.778-2.292-1.746a3.932,3.932,0,0,0-1.493,3.7,13.062,13.062,0,0,0,2.452,3.744Z" transform="translate(-2320.753 -1024.589)" fill="#ffb27d"/>
          <g id="Group_17206" data-name="Group 17206" transform="translate(0.43 26.952)">
            <path id="Path_10059" data-name="Path 10059" d="M2334.748,1026.941l-3.622,1.085a.228.228,0,0,1-.283-.152l-2.07-6.906a.227.227,0,0,1,.153-.283l3.622-1.086a.228.228,0,0,1,.283.153l2.069,6.906A.227.227,0,0,1,2334.748,1026.941Z" transform="translate(-2328.034 -1019.59)" fill="#f1a34f"/>
            <path id="Path_10060" data-name="Path 10060" d="M2329.5,1028.846l-3.285.985a.4.4,0,0,1-.5-.27l-1.969-6.569a.4.4,0,0,1,.271-.5l3.285-.985a.4.4,0,0,1,.5.271l1.969,6.569A.4.4,0,0,1,2329.5,1028.846Z" transform="translate(-2323.723 -1021.213)" fill="#d86713"/>
          </g>
          <path id="Path_10061" data-name="Path 10061" d="M2563,1658.216a35.725,35.725,0,0,1-4.51,14.67l-1.255,1.143s-1.144-6.523-1.97-13.991A13.206,13.206,0,0,0,2563,1658.216Z" transform="translate(-2521.319 -1538.81)" fill="#ffb27d"/>
          <path id="Path_10062" data-name="Path 10062" d="M2506.787,1663.914a77.326,77.326,0,0,1-4.932,13.834l-2.58-.179a72.957,72.957,0,0,0,1.193-14.153C2501.343,1663.858,2503.15,1664.306,2506.787,1663.914Z" transform="translate(-2473.43 -1543.258)" fill="#d9935c"/>
          <g id="Group_17207" data-name="Group 17207" transform="translate(18.317 130.683)">
            <path id="Path_10063" data-name="Path 10063" d="M2458.872,1742.081h-1.647c-.552-.087-.959-.247-1.525-.321a1.528,1.528,0,0,0-1.334.321l-.015.017h-7c-.176-.252-.007-.834.158-1.262a1,1,0,0,1,.655-.6,7.549,7.549,0,0,0,3.544-1.619c.754-.681,3.64-2.5,3.64-2.5l.015,0c.063,0,.365.094,1.677,1.2.679.572,1.835-.808,1.835-.808a1.655,1.655,0,0,1,.379.514,1.736,1.736,0,0,1,.15,1.075,6.976,6.976,0,0,0,.5,2.594c.163.48.3.821.3.821S2460.289,1741.9,2458.872,1742.081Z" transform="translate(-2447.279 -1736.11)" fill="#233862"/>
            <path id="Path_10064" data-name="Path 10064" d="M2506.947,1737.019a5.215,5.215,0,0,1-1.774.895c-.743.1-2.133-1.8-2.133-1.8l.015,0c.063,0,.365.094,1.678,1.2.679.572,1.835-.808,1.835-.808A1.649,1.649,0,0,1,2506.947,1737.019Z" transform="translate(-2494.968 -1736.11)" fill="#466aa5"/>
            <path id="Path_10065" data-name="Path 10065" d="M2458.872,1769.124h-1.647c-.552-.087-.959-.247-1.525-.32a1.528,1.528,0,0,0-1.334.32l-.015.017h-7c-.176-.252-.007-.834.158-1.262.212-.189.272.821.389.982a31.189,31.189,0,0,0,6.032-.176,3.375,3.375,0,0,1,2.641-.322,6.367,6.367,0,0,0,3.336-.631c.163.48.3.821.3.821S2460.289,1768.947,2458.872,1769.124Z" transform="translate(-2447.279 -1763.152)" fill="#466aa5"/>
          </g>
          <g id="Group_17208" data-name="Group 17208" transform="translate(27.107 130.683)">
            <path id="Path_10066" data-name="Path 10066" d="M2519.592,1742.081h-1.647c-.552-.087-.959-.247-1.525-.321a1.527,1.527,0,0,0-1.333.321.155.155,0,0,0-.015.017h-7c-.176-.252-.007-.834.159-1.262a1,1,0,0,1,.655-.6,7.545,7.545,0,0,0,3.544-1.619c.754-.681,3.64-2.5,3.64-2.5l.015,0c.063,0,.365.094,1.678,1.2.678.572,1.835-.808,1.835-.808a1.642,1.642,0,0,1,.379.514,1.737,1.737,0,0,1,.151,1.075,6.964,6.964,0,0,0,.5,2.594c.163.48.3.821.3.821S2521.009,1741.9,2519.592,1742.081Z" transform="translate(-2507.998 -1736.11)" fill="#233862"/>
            <path id="Path_10067" data-name="Path 10067" d="M2567.666,1737.019a5.215,5.215,0,0,1-1.774.895c-.743.1-2.133-1.8-2.133-1.8l.015,0c.064,0,.365.094,1.678,1.2.678.572,1.835-.808,1.835-.808A1.649,1.649,0,0,1,2567.666,1737.019Z" transform="translate(-2555.687 -1736.11)" fill="#466aa5"/>
            <path id="Path_10068" data-name="Path 10068" d="M2519.592,1769.124h-1.647c-.552-.087-.959-.247-1.525-.32a1.527,1.527,0,0,0-1.333.32.162.162,0,0,0-.015.017h-7c-.176-.252-.007-.834.159-1.262.212-.189.272.821.39.982a31.183,31.183,0,0,0,6.031-.176,3.375,3.375,0,0,1,2.641-.322,6.364,6.364,0,0,0,3.336-.631c.163.48.3.821.3.821S2521.009,1768.947,2519.592,1769.124Z" transform="translate(-2507.998 -1763.152)" fill="#466aa5"/>
          </g>
          <path id="Path_10069" data-name="Path 10069" d="M2552.841,1136.954c-1.747-.583-3.988-2.135-6.68-5.613-7.126-9.21-.605-20.034.269-20.235s2.52,7,2.52,7C2550.088,1125.559,2552.671,1133.559,2552.841,1136.954Z" transform="translate(-2510.711 -1070.901)" fill="#34c6c8"/>
          <path id="Path_10070" data-name="Path 10070" d="M2418.765,1012.184s-4.88,2.455-6.5,12.365a8.433,8.433,0,0,0,3.849,2.837,4.478,4.478,0,0,0,1,.172C2419.876,1027.7,2418.765,1012.184,2418.765,1012.184Z" transform="translate(-2399.013 -986.304)" fill="#34c6c8"/>
          <path id="Path_10071" data-name="Path 10071" d="M2329.082,1045.833s1.508-2.321,1.877-2.191c.527.184-1.367,3.129-1.367,3.129s1.4-2.2,1.622-2.035c.5.377-.3,1.76-1.083,2.82,0,0,1.411-1.292,1.457-1.059.161.815-1.549,2.79-1.549,2.79l-.956-2.183Z" transform="translate(-2327.876 -1013.202)" fill="#ffb27d"/>
          <path id="Path_10072" data-name="Path 10072" d="M2321.268,1042.176c.073-.284.441-5.825.6-5.3s.533,3.431.533,3.431Z" transform="translate(-2321.193 -1007.391)" fill="#ffb27d"/>
        </g>
      </g>
      <path id="Path_10073" data-name="Path 10073" d="M2477.394,950.253s-.135.574-1.564.486c0,0-1.2-.074-1.163-.705A3.858,3.858,0,0,1,2477.394,950.253Z" transform="translate(-2452.385 -933.024)" fill="#fff"/>
    </g>
    <g id="Group_17213" data-name="Group 17213" transform="translate(597.637 317.628)">
      <circle id="Ellipse_1278" data-name="Ellipse 1278" cx="5.27" cy="5.27" r="5.27" transform="translate(0)" fill="#fff"/>
    </g>
    <g id="Group_17215" data-name="Group 17215" transform="translate(607.431 289.711)">
      <circle id="Ellipse_1279" data-name="Ellipse 1279" cx="7.628" cy="7.628" r="7.628" transform="translate(0 10.787) rotate(-45)" fill="#fff"/>
    </g>
    <g id="Group_17217" data-name="Group 17217" transform="translate(592.581 252.872)">
      <circle id="Ellipse_1280" data-name="Ellipse 1280" cx="14.181" cy="14.181" r="14.181" transform="translate(0 28.205) rotate(-83.953)" fill="#fff"/>
    </g>
    <path id="Path_10077" data-name="Path 10077" d="M2655.434,1304.142s2.834,1.884,3.267,2.678,1.444,3.718,1.444,3.718-.722.108-1.444-1.155-3.1-1.155-3.9-1.841a10.749,10.749,0,0,1-1.718-2.7Z" transform="translate(-2001.915 -928.012)" fill="#ffb27d"/>
    <path id="Path_10078" data-name="Path 10078" d="M2655.213,1313.3a9.427,9.427,0,0,0,1.049,2.868c.578.65,1.372,1.732,1.7,1.444s-.361-2.707-.361-2.707Z" transform="translate(-2003.735 -935.845)" fill="#ffb27d"/>
    <path id="Path_10079" data-name="Path 10079" d="M2689.135,1324.385c.072.108,2.563,2.755,2.563,2.755s-.9.409-1.155,0S2689.135,1324.385,2689.135,1324.385Z" transform="translate(-2032.746 -945.324)" fill="#ffb27d"/>
    <path id="Icon_awesome-rupee-sign" data-name="Icon awesome-rupee-sign" d="M13.543,5.064a.528.528,0,0,0,.528-.528V2.778a.528.528,0,0,0-.528-.528H.528A.528.528,0,0,0,0,2.778V4.745a.528.528,0,0,0,.528.528h3.75a3.172,3.172,0,0,1,2.681,1.2H.528A.528.528,0,0,0,0,7V8.757a.528.528,0,0,0,.528.528h6.98a3.039,3.039,0,0,1-3.287,2.578H.528A.528.528,0,0,0,0,12.391v2.331a.528.528,0,0,0,.17.388l7.257,6.7a.528.528,0,0,0,.358.14h3.63a.528.528,0,0,0,.358-.915L5.139,14.909A6.024,6.024,0,0,0,11.22,9.285h2.322a.528.528,0,0,0,.528-.528V7a.528.528,0,0,0-.528-.528H10.962a6.023,6.023,0,0,0-.627-1.407Z" transform="translate(393.185 404.9)" fill="#34c6c8"/>
    <path id="Icon_awesome-rupee-sign-2" data-name="Icon awesome-rupee-sign" d="M5.909,3.478a.23.23,0,0,0,.23-.23V2.48a.23.23,0,0,0-.23-.23H.23A.23.23,0,0,0,0,2.48v.858a.23.23,0,0,0,.23.23H1.866a1.384,1.384,0,0,1,1.17.523H.23a.23.23,0,0,0-.23.23v.767a.23.23,0,0,0,.23.23H3.276A1.326,1.326,0,0,1,1.842,6.444H.23a.23.23,0,0,0-.23.23V7.692a.23.23,0,0,0,.074.169l3.167,2.923a.23.23,0,0,0,.156.061H4.981a.23.23,0,0,0,.156-.4L2.242,7.773A2.628,2.628,0,0,0,4.9,5.32H5.909a.23.23,0,0,0,.23-.23V4.322a.23.23,0,0,0-.23-.23H4.783a2.628,2.628,0,0,0-.273-.614Z" transform="translate(605.108 261.921)" fill="#34c6c8" opacity="0.37"/>
    <path id="Icon_awesome-rupee-sign-3" data-name="Icon awesome-rupee-sign" d="M4.157,3.114a.162.162,0,0,0,.162-.162v-.54a.162.162,0,0,0-.162-.162h-4A.162.162,0,0,0,0,2.412v.6a.162.162,0,0,0,.162.162H1.313a.974.974,0,0,1,.823.368H.162A.162.162,0,0,0,0,3.708v.54a.162.162,0,0,0,.162.162H2.3A.933.933,0,0,1,1.3,5.2H.162A.162.162,0,0,0,0,5.363v.716A.162.162,0,0,0,.052,6.2L2.28,8.254a.162.162,0,0,0,.11.043H3.5a.162.162,0,0,0,.11-.281L1.577,6.136A1.849,1.849,0,0,0,3.444,4.41h.713a.162.162,0,0,0,.162-.162v-.54a.162.162,0,0,0-.162-.162H3.365a1.849,1.849,0,0,0-.192-.432Z" transform="translate(616.058 295.225)" fill="#34c6c8" opacity="0.37"/>
    <path id="Icon_awesome-rupee-sign-4" data-name="Icon awesome-rupee-sign" d="M2.224,2.712a.087.087,0,0,0,.087-.087V2.337a.087.087,0,0,0-.087-.087H.087A.087.087,0,0,0,0,2.337V2.66a.087.087,0,0,0,.087.087H.7a.521.521,0,0,1,.44.2H.087A.087.087,0,0,0,0,3.03v.289a.087.087,0,0,0,.087.087H1.233a.5.5,0,0,1-.54.423H.087A.087.087,0,0,0,0,3.915V4.3a.087.087,0,0,0,.028.064l1.192,1.1a.087.087,0,0,0,.059.023h.6a.087.087,0,0,0,.059-.15L.844,4.329a.989.989,0,0,0,1-.924h.381a.087.087,0,0,0,.087-.087V3.03a.087.087,0,0,0-.087-.087H1.8a.989.989,0,0,0-.1-.231Z" transform="translate(601.752 319.03)" fill="#34c6c8" opacity="0.37"/>
  </g>
</svg>
