<svg xmlns="http://www.w3.org/2000/svg" width="285.445" height="227.562" viewBox="0 0 285.445 227.562">
  <g id="Group_16992" data-name="Group 16992" transform="translate(-36.474 -85.349)">
    <g id="Group_16959" data-name="Group 16959" transform="translate(49.972 243.634)">
      <g id="Group_16956" data-name="Group 16956" transform="translate(0 28.53)">
        <rect id="Rectangle_2283" data-name="Rectangle 2283" width="24.341" height="14.291" fill="#fc0" opacity="0.5" style="mix-blend-mode: screen;isolation: isolate"/>
      </g>
      <g id="Group_16957" data-name="Group 16957" transform="translate(10 14.182)">
        <rect id="Rectangle_2284" data-name="Rectangle 2284" width="35.862" height="14.291" fill="#fc0" opacity="0.5" style="mix-blend-mode: screen;isolation: isolate"/>
      </g>
      <g id="Group_16958" data-name="Group 16958" transform="translate(4.304)">
        <rect id="Rectangle_2285" data-name="Rectangle 2285" width="27.334" height="14.291" fill="#fc0" opacity="0.5" style="mix-blend-mode: screen;isolation: isolate"/>
      </g>
    </g>
    <g id="Group_16960" data-name="Group 16960" transform="translate(151.347 85.349)">
      <rect id="Rectangle_2286" data-name="Rectangle 2286" width="138.36" height="203.196" rx="18" fill="#7e8082"/>
      <rect id="Rectangle_2287" data-name="Rectangle 2287" width="162.423" height="111.624" transform="translate(124.992 13.368) rotate(90)" fill="#fff"/>
      <rect id="Rectangle_2288" data-name="Rectangle 2288" width="6.016" height="36.094" transform="translate(19.718 53.138)" fill="#f3a100" opacity="0.5"/>
      <rect id="Rectangle_2289" data-name="Rectangle 2289" width="6.016" height="42.778" transform="translate(29.076 46.454)" fill="#1e2346" opacity="0.5"/>
      <rect id="Rectangle_2290" data-name="Rectangle 2290" width="6.016" height="55.478" transform="translate(38.433 33.755)" fill="#f3a100" opacity="0.5"/>
      <rect id="Rectangle_2291" data-name="Rectangle 2291" width="6.016" height="40.773" transform="translate(47.791 48.46)" fill="#1e2346" opacity="0.5"/>
      <rect id="Rectangle_2292" data-name="Rectangle 2292" width="6.016" height="25.399" transform="translate(57.149 63.833)" fill="#f3a100" opacity="0.5"/>
      <rect id="Rectangle_2293" data-name="Rectangle 2293" width="6.016" height="43.781" transform="translate(66.507 45.452)" fill="#f3a100" opacity="0.5"/>
      <rect id="Rectangle_2294" data-name="Rectangle 2294" width="6.016" height="16.71" transform="translate(75.864 72.522)" fill="#1e2346" opacity="0.5"/>
      <rect id="Rectangle_2295" data-name="Rectangle 2295" width="6.016" height="11.697" transform="translate(85.222 77.535)" fill="#f3a100" opacity="0.5"/>
      <rect id="Rectangle_2296" data-name="Rectangle 2296" width="6.016" height="24.063" transform="translate(94.58 65.17)" fill="#f3a100" opacity="0.5"/>
      <rect id="Rectangle_2297" data-name="Rectangle 2297" width="6.016" height="30.747" transform="translate(103.937 58.486)" fill="#1e2346" opacity="0.5"/>
      <rect id="Rectangle_2298" data-name="Rectangle 2298" width="6.016" height="36.094" transform="translate(113.295 53.138)" fill="#f3a100" opacity="0.5"/>
      <rect id="Rectangle_2299" data-name="Rectangle 2299" width="6.016" height="36.094" transform="translate(119.311 160.752) rotate(180)" fill="#f3a100" opacity="0.5"/>
      <rect id="Rectangle_2300" data-name="Rectangle 2300" width="6.016" height="42.778" transform="translate(109.953 160.752) rotate(180)" fill="#1e2346" opacity="0.5"/>
      <rect id="Rectangle_2301" data-name="Rectangle 2301" width="6.016" height="55.478" transform="translate(100.595 160.752) rotate(180)" fill="#f3a100" opacity="0.5"/>
      <rect id="Rectangle_2302" data-name="Rectangle 2302" width="6.016" height="40.773" transform="translate(91.238 160.752) rotate(180)" fill="#1e2346" opacity="0.5"/>
      <rect id="Rectangle_2303" data-name="Rectangle 2303" width="6.016" height="25.399" transform="translate(81.88 160.752) rotate(180)" fill="#f3a100" opacity="0.5"/>
      <rect id="Rectangle_2304" data-name="Rectangle 2304" width="6.016" height="43.781" transform="translate(72.522 160.752) rotate(180)" fill="#f3a100" opacity="0.5"/>
      <rect id="Rectangle_2305" data-name="Rectangle 2305" width="6.016" height="16.71" transform="translate(63.165 160.752) rotate(180)" fill="#1e2346" opacity="0.5"/>
      <rect id="Rectangle_2306" data-name="Rectangle 2306" width="6.016" height="11.697" transform="translate(53.807 160.752) rotate(180)" fill="#f3a100" opacity="0.5"/>
      <rect id="Rectangle_2307" data-name="Rectangle 2307" width="6.016" height="24.063" transform="translate(44.449 160.752) rotate(180)" fill="#f3a100" opacity="0.5"/>
      <rect id="Rectangle_2308" data-name="Rectangle 2308" width="6.016" height="30.747" transform="translate(35.091 160.752) rotate(180)" fill="#1e2346" opacity="0.5"/>
      <rect id="Rectangle_2309" data-name="Rectangle 2309" width="6.016" height="36.094" transform="translate(25.734 160.752) rotate(180)" fill="#f3a100" opacity="0.5"/>
      <circle id="Ellipse_1170" data-name="Ellipse 1170" cx="7.018" cy="7.018" r="7.018" transform="translate(62.162 180.804)" fill="#fff"/>
    </g>
    <g id="Group_16967" data-name="Group 16967" transform="translate(169.156 159.699)">
      <g id="Group_16962" data-name="Group 16962" transform="translate(7.547 7.435)">
        <rect id="Rectangle_2310" data-name="Rectangle 2310" width="134.583" height="69.462" fill="#6cacac"/>
        <path id="Path_9277" data-name="Path 9277" d="M365.71,273.341H268.186v-1.085c0-6.583-4.812-11.938-10.727-11.938h-.975V232.1h.975c5.915,0,10.727-5.355,10.727-11.938v-1.085H365.71v1.085c0,6.583,4.813,11.938,10.728,11.938h.975v28.22h-.975c-5.915,0-10.728,5.355-10.728,11.938Zm-95.61-2.17h93.7c.476-6.917,5.452-12.454,11.666-12.983v-23.96c-6.215-.529-11.19-6.066-11.666-12.982H270.1c-.475,6.916-5.451,12.454-11.666,12.982v23.96C264.649,258.717,269.625,264.254,270.1,271.171Z" transform="translate(-249.657 -211.477)" fill="#5a9997"/>
        <g id="Group_16961" data-name="Group 16961" transform="translate(52.663 14.471)">
          <path id="Path_9278" data-name="Path 9278" d="M352.752,237.65h-3.441a11.193,11.193,0,0,0-1.538-2.7h3.546l3-4.4-1.564-1.192h-24.16l-3,4.4,1.564,1.192h11.706a6.8,6.8,0,0,1,3.311.855,6.914,6.914,0,0,1,1.3,1.849H328.056l-3,4.4,1.564,1.192h17.012a6.856,6.856,0,0,1-6.334,4.235H325.87l-.007,5.033,9.2,16.18,1.564,1.192h6.312l-9.35-16.819h5.14c.043,0,.09,0,.134,0s.068,0,.1,0a11.248,11.248,0,0,0,11.054-9.821h1.3l3-4.4Z" transform="translate(-325.059 -229.358)" fill="#5a9997"/>
          <path id="Path_9279" data-name="Path 9279" d="M346.209,233.753h3.546l3-4.4h-24.16l-3,4.4H337.3a6.854,6.854,0,0,1,6.179,3.9H328.056l-3,4.4h18.949a6.859,6.859,0,0,1-6.707,5.427H325.87l-.007,5.033,9.2,16.18h6.312l-9.35-16.819h5.14c.043,0,.09,0,.134,0s.068,0,.1,0a11.248,11.248,0,0,0,11.054-9.821h1.3l3-4.4h-4.6A11.2,11.2,0,0,0,346.209,233.753Z" transform="translate(-325.059 -229.358)" fill="#a2c2c0"/>
        </g>
      </g>
      <g id="Group_16964" data-name="Group 16964" transform="translate(4.703 3.859)">
        <rect id="Rectangle_2311" data-name="Rectangle 2311" width="134.583" height="69.462" fill="#7bc3c3"/>
        <path id="Path_9280" data-name="Path 9280" d="M361.456,267.991H263.931v-1.085c0-6.583-4.812-11.939-10.727-11.939h-.975V226.748h.975c5.915,0,10.727-5.355,10.727-11.938v-1.086h97.525v1.086c0,6.583,4.813,11.938,10.727,11.938h.975v28.219h-.975c-5.915,0-10.727,5.356-10.727,11.939Zm-95.611-2.171h93.7c.475-6.917,5.451-12.454,11.666-12.982v-23.96c-6.215-.529-11.19-6.066-11.666-12.983h-93.7c-.475,6.917-5.451,12.454-11.666,12.983v23.96C260.394,253.367,265.37,258.9,265.845,265.82Z" transform="translate(-245.402 -206.126)" fill="#68b0ae"/>
        <g id="Group_16963" data-name="Group 16963" transform="translate(52.663 14.471)">
          <path id="Path_9281" data-name="Path 9281" d="M348.5,232.3h-3.441a11.182,11.182,0,0,0-1.538-2.7h3.546l3-4.4-1.564-1.192h-24.16l-3,4.4L322.9,229.6H334.61a6.8,6.8,0,0,1,3.311.855,6.89,6.89,0,0,1,1.3,1.849H323.8l-3,4.4,1.564,1.192H339.38a6.855,6.855,0,0,1-6.334,4.236h-11.43l-.007,5.033,9.2,16.18,1.564,1.192h6.312l-9.35-16.819h5.14c.044,0,.09,0,.134,0s.068,0,.1,0a11.248,11.248,0,0,0,11.053-9.822h1.3l3-4.4Z" transform="translate(-320.804 -224.008)" fill="#68b0ae"/>
          <path id="Path_9282" data-name="Path 9282" d="M341.954,228.4H345.5l3-4.4h-24.16l-3,4.4h11.706a6.854,6.854,0,0,1,6.179,3.9H323.8l-3,4.4h18.949a6.859,6.859,0,0,1-6.707,5.427h-11.43l-.007,5.033,9.2,16.18h6.312l-9.35-16.819h5.373A11.248,11.248,0,0,0,344.2,236.7h1.3l3-4.4h-4.6A11.2,11.2,0,0,0,341.954,228.4Z" transform="translate(-320.804 -224.008)" fill="#b5d9d7"/>
        </g>
      </g>
      <g id="Group_16966" data-name="Group 16966">
        <rect id="Rectangle_2312" data-name="Rectangle 2312" width="134.583" height="69.462" fill="#86d4d4"/>
        <path id="Path_9283" data-name="Path 9283" d="M354.419,262.217H256.9v-1.085c0-6.583-4.813-11.939-10.728-11.939h-.975V220.975h.975c5.915,0,10.728-5.356,10.728-11.939V207.95h97.524v1.086c0,6.583,4.813,11.939,10.728,11.939h.975v28.219h-.975c-5.915,0-10.728,5.356-10.728,11.939Zm-95.61-2.17h93.7c.476-6.917,5.452-12.454,11.666-12.983V223.1c-6.215-.529-11.19-6.066-11.666-12.983h-93.7c-.475,6.917-5.451,12.454-11.666,12.983v23.96C253.358,247.593,258.334,253.13,258.809,260.047Z" transform="translate(-238.366 -200.353)" fill="#72c1bf"/>
        <g id="Group_16965" data-name="Group 16965" transform="translate(52.663 14.471)">
          <path id="Path_9284" data-name="Path 9284" d="M341.461,226.526h-3.44a11.226,11.226,0,0,0-1.538-2.7h3.546l3-4.4-1.564-1.192H317.3l-3,4.4,1.564,1.192h11.706a6.8,6.8,0,0,1,3.311.854,6.887,6.887,0,0,1,1.3,1.849H316.764l-3,4.4,1.564,1.192h17.012a6.856,6.856,0,0,1-6.334,4.236h-11.43l-.008,5.033,9.2,16.18,1.565,1.191h6.312L322.3,241.934h5.139c.044,0,.09,0,.134,0s.068,0,.1,0a11.247,11.247,0,0,0,11.054-9.821h1.3l3-4.4Z" transform="translate(-313.768 -218.234)" fill="#72c1bf"/>
          <path id="Path_9285" data-name="Path 9285" d="M334.918,222.63h3.546l3-4.4H317.3l-3,4.4H326.01a6.851,6.851,0,0,1,6.178,3.9H316.764l-3,4.4h18.949a6.86,6.86,0,0,1-6.707,5.427h-11.43l-.008,5.033,9.2,16.18h6.312l-9.35-16.82h5.14c.044,0,.09,0,.134,0s.068,0,.1,0a11.248,11.248,0,0,0,11.054-9.821h1.3l3-4.4h-4.6A11.193,11.193,0,0,0,334.918,222.63Z" transform="translate(-313.768 -218.234)" fill="#c3eae8"/>
        </g>
      </g>
    </g>
    <g id="Group_16969" data-name="Group 16969" transform="translate(77.711 88.59)" opacity="0.5">
      <path id="Path_9286" data-name="Path 9286" d="M101.653,172.613l-3.485-3.122L148.9,112.873l32.017,32.312L241.946,90.2l23.415,33.456L285.7,105.845l3.082,3.52L264.518,130.61,241.147,97.216l-60.418,54.433-31.662-31.955Z" transform="translate(-98.168 -90.198)" fill="#1e2346"/>
      <g id="Group_16968" data-name="Group 16968" transform="translate(179.85 7.455)">
        <path id="Path_9287" data-name="Path 9287" d="M381.071,121.227l6.765-19.875-20.6,4.076Z" transform="translate(-367.24 -101.352)" fill="#1e2346"/>
      </g>
    </g>
    <g id="Group_16970" data-name="Group 16970" transform="translate(226.704 224.016)">
      <circle id="Ellipse_1171" data-name="Ellipse 1171" cx="40.945" cy="40.945" r="40.945" fill="#34c6c8"/>
      <circle id="Ellipse_1173" data-name="Ellipse 1173" cx="30.233" cy="30.233" r="30.233" transform="translate(10.712 10.712)" fill="#eff3ff"/>
      <path id="Path_9288" data-name="Path 9288" d="M389.768,331.558H386.1a11.933,11.933,0,0,0-1.638-2.881h3.777l3.193-4.683-1.666-1.27H364.029l-3.193,4.683,1.666,1.27h12.471a7.247,7.247,0,0,1,3.526.91,7.357,7.357,0,0,1,1.39,1.97H363.458l-3.193,4.683,1.666,1.27h18.123a7.3,7.3,0,0,1-6.748,4.512H361.13l-.008,5.362,9.8,17.237,1.666,1.27h6.725l-9.961-17.919h5.476c.047,0,.1,0,.143,0s.072,0,.106,0a11.982,11.982,0,0,0,11.776-10.463h1.386l3.193-4.683Z" transform="translate(-334.071 -302.728)" fill="#34c6c8"/>
    </g>
    <rect id="Rectangle_2313" data-name="Rectangle 2313" width="61.271" height="36.317" transform="translate(154.02 265.484)" fill="#7e8082"/>
    <g id="Group_16971" data-name="Group 16971" transform="translate(137.311 182.679)">
      <path id="Path_9290" data-name="Path 9290" d="M277.6,259.292a11.469,11.469,0,0,0-6.016-.585l3.676-9.358,4.261,2.172Z" transform="translate(-215.272 -237.06)" fill="#141930"/>
      <circle id="Ellipse_1174" data-name="Ellipse 1174" cx="3.384" cy="3.384" r="3.384" transform="translate(56.564 10.451)" fill="#e6976d"/>
      <path id="Path_9291" data-name="Path 9291" d="M257.142,245.521s-1.086,5.6-2.172,6.851-2.59,2.423-1.755,3.76,2.757,1.658,4.345,1.42c1.671-.251,3.426-.668,4.512-.167s.334-6.517.334-6.517l-2.172-7.269S256.807,245.437,257.142,245.521Z" transform="translate(-209.1 -235.153)" fill="#141930"/>
      <path id="Path_9292" data-name="Path 9292" d="M213.3,313.349a54.84,54.84,0,0,1-7.8,2.785,8.109,8.109,0,0,0,9.692-.445Z" transform="translate(-193.359 -258.282)" fill="#e6976d"/>
      <path id="Path_9293" data-name="Path 9293" d="M242.233,271.515a49.562,49.562,0,0,1-25.065,27.962l1.671,3.453s13.368-2.005,27.516-20.163Z" transform="translate(-197.227 -244.41)" fill="#e59303"/>
      <path id="Path_9294" data-name="Path 9294" d="M204.438,391.224s-3.76,5.6-7.6,7.1c0,0,4.178.334,6.517-1.838A4.958,4.958,0,0,0,204.438,391.224Z" transform="translate(-190.485 -284.105)" fill="#e6976d"/>
      <path id="Path_9295" data-name="Path 9295" d="M224.967,349.393s11.979,26.479,12.609,31.523-3.993,12.4-3.993,12.4h2.1l6.935-8.616-7.776-32.573,6.935-.84-3.573-9.037-13.029-.21Z" transform="translate(-199.814 -267.795)" fill="#e37463"/>
      <path id="Path_9296" data-name="Path 9296" d="M219.042,326.563s-5.674-1.261-6.935,3.783-7.262,44.763-7.262,44.763l5.464-1.471,9.247-35.1,15.341.63S227.237,329.294,219.042,326.563Z" transform="translate(-193.141 -262.617)" fill="#e6976d"/>
      <path id="Path_9297" data-name="Path 9297" d="M204.5,397.059a5.175,5.175,0,0,1-.63,4.414c-1.471,1.891-3.894,4.8-3.894,4.8l-.63-1.051,1.372-3.963-8.552,1.051-4.833-2.732a30.287,30.287,0,0,0,11.7-1.051Z" transform="translate(-187.335 -286.039)" fill="#42528e"/>
      <path id="Path_9298" data-name="Path 9298" d="M238.465,414.478l6.935-8.616a4.773,4.773,0,0,1,1.261,3.853l-.28,7.145H245.12l-.56-6.164-5.464,5.464h-5.744l3.013-1.681Z" transform="translate(-202.594 -288.958)" fill="#42528e"/>
      <path id="Path_9299" data-name="Path 9299" d="M268.76,268.069l6.058,2.645a3.274,3.274,0,0,1,1.849,3.862,75.392,75.392,0,0,0-1.16,26.6h-19.5s-2.8-17.254-2.539-29.6a3.271,3.271,0,0,1,2.7-3.146l5.395-.969Z" transform="translate(-209.258 -243.063)" fill="#f9a91c"/>
      <path id="Path_9300" data-name="Path 9300" d="M273.609,271.97c-.173,2.336-3.533,3.991-7.5,3.7s-7.048-2.427-6.875-4.764,3.533-3.991,7.5-3.7S273.782,269.634,273.609,271.97Z" transform="translate(-211.173 -242.97)" fill="#e37463"/>
      <path id="Path_9301" data-name="Path 9301" d="M271.683,256.561a44.4,44.4,0,0,0,.923,8.2,20.006,20.006,0,0,1-8.1,0s1.743-1.743,2.051-7.179Z" transform="translate(-212.924 -239.451)" fill="#e37463"/>
      <path id="Path_9302" data-name="Path 9302" d="M253.89,277.769l-4.2,8.1s1.333,4.409,7.075,3.9l5.947-3.9Z" transform="translate(-208.01 -246.484)" fill="#f9a91c"/>
      <path id="Path_9303" data-name="Path 9303" d="M267.943,317.9s2.96,7.988,3.126,13.143c.159,4.928-1.271,11.128-12.453,11.977-10.516.8-12.189,1.06-20.244,1.06,0,0-2.226-16.111-7.737-20.562,0,0,8.32-2.65,17.806-5.618Z" transform="translate(-201.693 -259.791)" fill="#42528e"/>
      <path id="Path_9304" data-name="Path 9304" d="M277.215,274.755a5.932,5.932,0,0,0-.8-.481c-2.725-1.348-5.575,2.993-5.575,2.993s-4.35,8.953-15.436,16.925c.356,3.015.708,5.54.948,7.171A48.916,48.916,0,0,0,273.092,290c1.04-1.12,1.916-2.161,2.66-3.135a60.492,60.492,0,0,1,1.564-10.118A3.253,3.253,0,0,0,277.215,274.755Z" transform="translate(-209.906 -245.239)" fill="#d68505"/>
      <path id="Path_9305" data-name="Path 9305" d="M264.108,275.818s-8.467,15.93-30.357,23.338l1.56,3.676s18.27-1.894,30.58-14.2c11.029-11.029,5.3-14.837,3.9-15.6C267.116,271.584,264.108,275.818,264.108,275.818Z" transform="translate(-202.726 -244.813)" fill="#f3a100"/>
      <path id="Path_9306" data-name="Path 9306" d="M229.689,312.265l-8.188,3.064,1.56,3.787s4.121.668,8.188-3.175Z" transform="translate(-198.664 -257.922)" fill="#e6976d"/>
      <path id="Path_9307" data-name="Path 9307" d="M272.207,261.72c-.063-.566-.114-1.123-.155-1.644l-5.237-2-.049.009a14.324,14.324,0,0,1-1.627,6.591A10.877,10.877,0,0,0,272.207,261.72Z" transform="translate(-213.134 -239.955)" fill="#e37463" opacity="0.4" style="mix-blend-mode: multiply;isolation: isolate"/>
      <path id="Rectangle_2314" data-name="Rectangle 2314" d="M0,0H10.87a0,0,0,0,1,0,0V9.126a5.435,5.435,0,0,1-5.435,5.435h0A5.435,5.435,0,0,1,0,9.126V0A0,0,0,0,1,0,0Z" transform="translate(48.915 8.189)" fill="#e6976d"/>
      <path id="Path_9308" data-name="Path 9308" d="M266.207,239.409a8.617,8.617,0,0,0,2.339,5.514s.919-2.423,2.089-.836.084,3.258-1.838,3.509c0,0-.585,4.428,1.253,6.35s1.838-1.587,4.261-1.253,4.01-.334,2.674-2.507-3.593-7.687-3.843-10.36-1.086-6.935-4.094-5.932a3.571,3.571,0,0,0-3.426-2.924c-3.008-.167-5.1,2.674-7.436,2.256s-4.679.5-5.013,3.342c-.411,3.494.836,6.016,5.18,5.431C258.353,242,264.787,241,266.207,239.409Z" transform="translate(-209.142 -230.963)" fill="#1e2346"/>
    </g>
    <rect id="Rectangle_2315" data-name="Rectangle 2315" width="94.753" height="3.604" transform="translate(125.553 244.709)" fill="#1a427d"/>
    <rect id="Rectangle_2316" data-name="Rectangle 2316" width="96.926" height="0.742" transform="translate(124.467 246.14)" fill="#a9bff8"/>
    <g id="Group_16972" data-name="Group 16972" transform="translate(66.304 143.744)">
      <circle id="Ellipse_1175" data-name="Ellipse 1175" cx="49.629" cy="49.629" r="49.629" transform="translate(0)" fill="#34c6c8"/>
      <circle id="Ellipse_1177" data-name="Ellipse 1177" cx="36.645" cy="36.645" r="36.645" transform="matrix(0.224, -0.974, 0.974, 0.224, 5.694, 77.113)" fill="#eff3ff"/>
      <path id="Path_9309" data-name="Path 9309" d="M164.362,219.682H159.92a14.475,14.475,0,0,0-1.987-3.492h4.579l3.87-5.676-2.02-1.539h-31.2l-3.87,5.675,2.02,1.539H146.43a8.785,8.785,0,0,1,4.275,1.1,8.91,8.91,0,0,1,1.684,2.388H132.472l-3.87,5.676,2.02,1.539h21.967a8.853,8.853,0,0,1-8.179,5.469H129.651l-.01,6.5,11.882,20.892,2.019,1.539h8.151L139.62,239.579h6.637c.057,0,.116,0,.173,0s.088,0,.129,0A14.524,14.524,0,0,0,160.833,226.9h1.679l3.87-5.676Z" transform="translate(-96.853 -184.737)" fill="#34c6c8"/>
    </g>
    <rect id="Rectangle_2317" data-name="Rectangle 2317" width="91.149" height="1.696" transform="translate(127.673 248.313)" fill="#102f54"/>
    <path id="Path_9311" data-name="Path 9311" d="M162.855,394.6h-3.021l11.129-62.9h4.61Z" transform="translate(-40.906 -81.687)" fill="#e6976d"/>
    <path id="Path_9312" data-name="Path 9312" d="M308.693,394.6h3.021l-11.129-62.9h-4.61Z" transform="translate(-86.049 -81.687)" fill="#e6976d"/>
    <g id="Group_16973" data-name="Group 16973" transform="translate(127.673 222.921)">
      <path id="Path_9313" data-name="Path 9313" d="M209.247,311.3H178.333l-5.417-20.127H203.83Z" transform="translate(-172.916 -291.169)" fill="#f0f1f5"/>
      <path id="Path_9314" data-name="Path 9314" d="M224.231,311.3h-.919L217.9,291.169l.919.956Z" transform="translate(-187.831 -291.169)" fill="#cbced8"/>
      <rect id="Rectangle_2318" data-name="Rectangle 2318" width="43.948" height="1.662" transform="translate(5.417 20.127)" fill="#cbced8"/>
      <path id="Path_9315" data-name="Path 9315" d="M198.183,305.245a2.816,2.816,0,1,1-3.327-2.669A3.033,3.033,0,0,1,198.183,305.245Z" transform="translate(-179.458 -294.938)" fill="#cbced8"/>
    </g>
    <g id="Group_16982" data-name="Group 16982" transform="translate(36.474 238.221)">
      <path id="Path_9316" data-name="Path 9316" d="M66.833,405.592H49.082L46.865,383.5H69.05Z" transform="translate(-39.919 -337.085)" fill="#f0f1f3"/>
      <path id="Path_9317" data-name="Path 9317" d="M69.049,382.4c0-1.225-4.966-2.217-11.092-2.217s-11.092.993-11.092,2.217,4.966,2.217,11.092,2.217S69.049,383.622,69.049,382.4Z" transform="translate(-39.919 -335.985)" fill="#f0f1f3"/>
      <path id="Path_9318" data-name="Path 9318" d="M68.372,382.531c0-1.076-4.364-1.948-9.747-1.948s-9.746.872-9.746,1.948,4.363,1.948,9.746,1.948S68.372,383.606,68.372,382.531Z" transform="translate(-40.587 -336.119)" fill="#1e2346"/>
      <path id="Path_9319" data-name="Path 9319" d="M67.933,415.342c0-1.224-3.974-2.216-8.876-2.216s-8.875.993-8.875,2.216,3.974,2.217,8.875,2.217S67.933,416.567,67.933,415.342Z" transform="translate(-41.019 -346.91)" fill="#f0f1f3"/>
      <g id="Group_16976" data-name="Group 16976" transform="translate(17.347 13.446)">
        <g id="Group_16975" data-name="Group 16975">
          <g id="Group_16974" data-name="Group 16974">
            <path id="Path_9320" data-name="Path 9320" d="M73.755,359.5a4.235,4.235,0,0,0-.771-2.474c-.385-.674-.689-1.258-.245-1.9a4.239,4.239,0,0,1,1.208-.946,19.865,19.865,0,0,1,1.9-.989,18.5,18.5,0,0,0,4.11-2.451,6.757,6.757,0,0,0,1.305-1.511,4.706,4.706,0,0,0,.629-1.44,16.686,16.686,0,0,0,.307-2.7,1.808,1.808,0,0,1,.769-1.177,10.94,10.94,0,0,1,1.692-1.018c.651-.317,1.367-.595,2.017-.91a11.11,11.11,0,0,0,1.759-.957,2.688,2.688,0,0,0,.651-.709,3.648,3.648,0,0,0,.434-.85,7.144,7.144,0,0,0,.37-1.878,2.77,2.77,0,0,0-1.45-2.732,5.992,5.992,0,0,0-1.879-.633,4.119,4.119,0,0,0-1.066-.02,3.3,3.3,0,0,0-1.039.344,8.94,8.94,0,0,0-1.871,1.37c-.608.574-1.223,1.184-1.79,1.773a14.091,14.091,0,0,1-1.6,1.543,2.485,2.485,0,0,1-1.422.666,10.086,10.086,0,0,0-2.993.233,6.333,6.333,0,0,0-1.72.8,8.456,8.456,0,0,0-1.807,1.718,13.88,13.88,0,0,0-2.354,5.21c-.241.852-.4,1.668-.56,2.355a5.8,5.8,0,0,1-.575,1.61c-.439.756-1.112.757-1.926.763a3.8,3.8,0,0,0-2.736.824,2.2,2.2,0,0,0-.644,1.5,11.613,11.613,0,0,0,.14,2.462c.112.942.337,2.027.547,3.186.188,1.15.453,2.413.616,3.72a1.038,1.038,0,0,0,1.777.638,16.039,16.039,0,0,1,2.91-2.1,25.649,25.649,0,0,1,2.63-1.321,14.515,14.515,0,0,0,1.894-.96A1.4,1.4,0,0,0,73.755,359.5Z" transform="translate(-62.427 -334.177)" fill="#26377c"/>
          </g>
        </g>
        <path id="Path_9321" data-name="Path 9321" d="M64.217,369.263a.256.256,0,0,1-.154-.333l.5-1.568c.146-.5.368-1.1.629-1.779s.533-1.456.908-2.272A52.236,52.236,0,0,1,72.739,352a51.426,51.426,0,0,1,9.213-9.339c1.4-1.128,2.652-1.944,3.5-2.551l1.4-.87a.259.259,0,0,1,.363.064.266.266,0,0,1-.1.356l-1.382.862c-.844.6-2.087,1.408-3.47,2.527a50.953,50.953,0,0,0-9.128,9.251A51.722,51.722,0,0,0,66.552,363.5c-.372.807-.646,1.575-.9,2.251s-.478,1.264-.623,1.762l-.493,1.552A.27.27,0,0,1,64.217,369.263Z" transform="translate(-62.965 -335.84)" fill="#fff"/>
      </g>
      <g id="Group_16978" data-name="Group 16978" transform="translate(0 13.752)">
        <g id="Group_16977" data-name="Group 16977">
          <path id="Path_9322" data-name="Path 9322" d="M57.673,355.6a3.558,3.558,0,0,0-2.406-1.25c-.777-.154-1.418-.273-1.641-1.022a4.8,4.8,0,0,1-.132-1.536c.02-.642.081-1.4.068-2.21a11.46,11.46,0,0,0-.938-5.118,6.929,6.929,0,0,0-1.293-1.852,5.326,5.326,0,0,0-1.43-.981,8.988,8.988,0,0,0-2.746-.62,2.059,2.059,0,0,1-1.168-.8,11.373,11.373,0,0,1-1.138-1.64c-.393-.62-.827-1.267-1.265-1.881a6.432,6.432,0,0,0-.7-.842,6.314,6.314,0,0,0-.738-.67,2.7,2.7,0,0,0-.884-.443,3.607,3.607,0,0,0-.983-.1,5.627,5.627,0,0,0-1.843.411,3.085,3.085,0,0,0-1.867,2.466,7.281,7.281,0,0,0-.067,1.811,3.16,3.16,0,0,0,.2.838,2.063,2.063,0,0,0,.424.723,4.312,4.312,0,0,0,.616.537l.744.516c.511.355,1.094.682,1.609,1.04a8.291,8.291,0,0,1,1.3,1.112,1.428,1.428,0,0,1,.415,1.16,16.461,16.461,0,0,0-.4,2.476,3.714,3.714,0,0,0,.205,1.358,4.872,4.872,0,0,0,.807,1.489,14.472,14.472,0,0,0,3.181,2.682,15.529,15.529,0,0,1,1.525,1.139,3.3,3.3,0,0,1,.89,1.009c.249.63-.2,1.086-.745,1.6a4.183,4.183,0,0,0-1.406,1.978c-.083.346.094.663.461,1a12.737,12.737,0,0,0,1.525,1.158A22.551,22.551,0,0,1,50,362.767a13.867,13.867,0,0,1,2.23,2.368,1.1,1.1,0,0,0,1.883-.148c.5-1.1,1.091-2.137,1.58-3.1.515-.968,1.024-1.873,1.388-2.68a10.21,10.21,0,0,0,.806-2.147A1.786,1.786,0,0,0,57.673,355.6Z" transform="translate(-36.474 -334.634)" fill="#86d4d4"/>
        </g>
        <path id="Path_9323" data-name="Path 9323" d="M54.769,369.4a.254.254,0,0,1-.255-.24l-.052-1.43c0-.456-.055-1.007-.121-1.638s-.116-1.345-.256-2.114a39.874,39.874,0,0,0-3.291-10.926,39.348,39.348,0,0,0-6.2-9.583c-1.009-1.194-1.964-2.081-2.6-2.734l-1.068-.952a.248.248,0,0,1-.019-.347.241.241,0,0,1,.344-.023l1.081.965c.643.661,1.61,1.561,2.632,2.769a42.625,42.625,0,0,1,3.275,4.291,42.64,42.64,0,0,1,3,5.409A40.389,40.389,0,0,1,54.573,363.9c.141.779.2,1.5.259,2.142s.118,1.2.122,1.658c.033.922.053,1.449.053,1.449A.237.237,0,0,1,54.769,369.4Z" transform="translate(-37.924 -336.197)" fill="#fff"/>
      </g>
      <g id="Group_16981" data-name="Group 16981" transform="translate(10.805)">
        <g id="Group_16980" data-name="Group 16980">
          <g id="Group_16979" data-name="Group 16979">
            <path id="Path_9324" data-name="Path 9324" d="M65.021,347.151a4.519,4.519,0,0,0-1.8-2.152c-.648-.485-1.182-.916-1.074-1.823a5.59,5.59,0,0,1,.662-1.644,24.373,24.373,0,0,1,1.27-2.086,24.928,24.928,0,0,0,2.649-4.881,9.568,9.568,0,0,0,.533-2.3,6.115,6.115,0,0,0-.051-1.816,18.583,18.583,0,0,0-.9-2.851,2.351,2.351,0,0,1,.192-1.613,14.881,14.881,0,0,1,1.124-2.012c.467-.7,1.014-1.406,1.483-2.108l.685-1.021a8.1,8.1,0,0,0,.546-.975,3.535,3.535,0,0,0,.3-1.075,4.383,4.383,0,0,0,.031-1.07,7.363,7.363,0,0,0-.5-1.989,2.466,2.466,0,0,0-2.609-1.661,6.466,6.466,0,0,0-2.049.539,4.909,4.909,0,0,0-1,.615,4.191,4.191,0,0,0-.81.938,10.351,10.351,0,0,0-.6,1.11,10.156,10.156,0,0,0-.517,1.282c-.3.9-.6,1.839-.857,2.732a18.137,18.137,0,0,1-.787,2.413,3.151,3.151,0,0,1-1.005,1.467,11.525,11.525,0,0,0-2.629,1.944,7.878,7.878,0,0,0-1.208,1.745,10.771,10.771,0,0,0-.868,2.686,17.257,17.257,0,0,0,.211,6.429c.164.977.392,1.876.554,2.652a7.407,7.407,0,0,1,.207,1.924c-.051,1-.652,1.361-1.377,1.8a4.162,4.162,0,0,0-2.069,2.273,2.781,2.781,0,0,0,.107,1.84,13.862,13.862,0,0,0,1.247,2.412c.528.9,1.227,1.884,1.946,2.963.693,1.081,1.514,2.246,2.264,3.517a.987.987,0,0,0,1.875-.225,19.529,19.529,0,0,1,1.61-3.68,30.985,30.985,0,0,1,1.731-2.765,16.933,16.933,0,0,0,1.247-2.027A1.916,1.916,0,0,0,65.021,347.151Z" transform="translate(-52.639 -314.061)" fill="#f3ce87"/>
          </g>
        </g>
        <path id="Path_9325" data-name="Path 9325" d="M62.749,362.66c-.134.024-.265-.1-.292-.273l-.29-1.874c-.043-.3-.106-.627-.144-.989l-.124-1.171c-.088-.836-.2-1.778-.242-2.812a64.682,64.682,0,0,1,.813-15.113,67.638,67.638,0,0,1,1.839-7.886,68.422,68.422,0,0,1,2.412-6.64c.786-1.915,1.592-3.442,2.113-4.53l.914-1.662a.286.286,0,0,1,.369-.159.292.292,0,0,1,.061.4l-.906,1.649c-.516,1.081-1.317,2.6-2.1,4.5a63.078,63.078,0,0,0-4.22,14.416,64.192,64.192,0,0,0-.807,15c.039,1.027.153,1.961.24,2.791.044.414.085.8.123,1.162s.1.684.143.981c.184,1.184.288,1.86.288,1.86A.3.3,0,0,1,62.749,362.66Z" transform="translate(-55.587 -315.873)" fill="#fff"/>
      </g>
    </g>
    <g id="Group_16991" data-name="Group 16991" transform="translate(277.1 238.221)">
      <path id="Path_9326" data-name="Path 9326" d="M426.833,405.592H409.082L406.865,383.5H429.05Z" transform="translate(-399.919 -337.085)" fill="#f0f1f3"/>
      <path id="Path_9327" data-name="Path 9327" d="M429.049,382.4c0-1.225-4.966-2.217-11.092-2.217s-11.092.993-11.092,2.217,4.966,2.217,11.092,2.217S429.049,383.622,429.049,382.4Z" transform="translate(-399.919 -335.985)" fill="#f0f1f3"/>
      <path id="Path_9328" data-name="Path 9328" d="M428.372,382.531c0-1.076-4.364-1.948-9.747-1.948s-9.746.872-9.746,1.948,4.363,1.948,9.746,1.948S428.372,383.606,428.372,382.531Z" transform="translate(-400.587 -336.119)" fill="#1e2346"/>
      <path id="Path_9329" data-name="Path 9329" d="M427.932,415.342c0-1.224-3.973-2.216-8.875-2.216s-8.875.993-8.875,2.216,3.974,2.217,8.875,2.217S427.932,416.567,427.932,415.342Z" transform="translate(-401.019 -346.91)" fill="#f0f1f3"/>
      <g id="Group_16985" data-name="Group 16985" transform="translate(17.347 13.446)">
        <g id="Group_16984" data-name="Group 16984">
          <g id="Group_16983" data-name="Group 16983">
            <path id="Path_9330" data-name="Path 9330" d="M433.755,359.5a4.235,4.235,0,0,0-.771-2.474c-.385-.674-.689-1.258-.245-1.9a4.239,4.239,0,0,1,1.208-.946,19.791,19.791,0,0,1,1.9-.989,18.5,18.5,0,0,0,4.11-2.451,6.774,6.774,0,0,0,1.305-1.511,4.705,4.705,0,0,0,.629-1.44,16.683,16.683,0,0,0,.307-2.7,1.808,1.808,0,0,1,.769-1.177,10.939,10.939,0,0,1,1.692-1.018c.651-.317,1.367-.595,2.017-.91a11.109,11.109,0,0,0,1.759-.957,2.689,2.689,0,0,0,.651-.709,3.65,3.65,0,0,0,.434-.85,7.144,7.144,0,0,0,.37-1.878,2.77,2.77,0,0,0-1.45-2.732,5.992,5.992,0,0,0-1.879-.633,4.119,4.119,0,0,0-1.066-.02,3.3,3.3,0,0,0-1.039.344,8.924,8.924,0,0,0-1.871,1.37c-.608.574-1.223,1.184-1.79,1.773a14.091,14.091,0,0,1-1.6,1.543,2.485,2.485,0,0,1-1.422.666,10.086,10.086,0,0,0-2.993.233,6.333,6.333,0,0,0-1.72.8,8.457,8.457,0,0,0-1.807,1.718,13.88,13.88,0,0,0-2.354,5.21c-.241.852-.4,1.668-.56,2.355a5.8,5.8,0,0,1-.575,1.61c-.439.756-1.112.757-1.926.763a3.8,3.8,0,0,0-2.736.824,2.2,2.2,0,0,0-.644,1.5,11.614,11.614,0,0,0,.14,2.462c.112.942.337,2.027.547,3.186.188,1.15.453,2.413.616,3.72a1.038,1.038,0,0,0,1.777.638,16.038,16.038,0,0,1,2.91-2.1,25.654,25.654,0,0,1,2.63-1.321,14.512,14.512,0,0,0,1.894-.96A1.4,1.4,0,0,0,433.755,359.5Z" transform="translate(-422.427 -334.177)" fill="#26377c"/>
          </g>
        </g>
        <path id="Path_9331" data-name="Path 9331" d="M424.216,369.263a.256.256,0,0,1-.153-.333l.5-1.568c.146-.5.368-1.1.629-1.779s.533-1.456.908-2.272A52.236,52.236,0,0,1,432.739,352a51.426,51.426,0,0,1,9.213-9.339c1.4-1.128,2.652-1.944,3.5-2.551l1.395-.87a.26.26,0,0,1,.364.064.266.266,0,0,1-.1.356l-1.382.862c-.844.6-2.087,1.408-3.47,2.527a50.953,50.953,0,0,0-9.128,9.251,51.723,51.723,0,0,0-6.578,11.207c-.372.807-.646,1.575-.9,2.251s-.478,1.264-.623,1.762l-.493,1.552A.271.271,0,0,1,424.216,369.263Z" transform="translate(-422.965 -335.84)" fill="#fff"/>
      </g>
      <g id="Group_16987" data-name="Group 16987" transform="translate(0 13.752)">
        <g id="Group_16986" data-name="Group 16986">
          <path id="Path_9332" data-name="Path 9332" d="M417.673,355.6a3.558,3.558,0,0,0-2.406-1.25c-.777-.154-1.418-.273-1.641-1.022a4.8,4.8,0,0,1-.132-1.536c.02-.642.081-1.4.068-2.21a11.47,11.47,0,0,0-.939-5.118,6.9,6.9,0,0,0-1.293-1.852,5.305,5.305,0,0,0-1.43-.981,8.98,8.98,0,0,0-2.746-.62,2.059,2.059,0,0,1-1.168-.8,11.377,11.377,0,0,1-1.138-1.64c-.393-.62-.827-1.267-1.265-1.881a6.431,6.431,0,0,0-.7-.842,6.311,6.311,0,0,0-.738-.67,2.7,2.7,0,0,0-.884-.443,3.607,3.607,0,0,0-.983-.1,5.627,5.627,0,0,0-1.843.411,3.085,3.085,0,0,0-1.867,2.466,7.282,7.282,0,0,0-.067,1.811,3.161,3.161,0,0,0,.2.838,2.063,2.063,0,0,0,.424.723,4.312,4.312,0,0,0,.616.537l.744.516c.511.355,1.094.682,1.609,1.04a8.29,8.29,0,0,1,1.3,1.112,1.428,1.428,0,0,1,.415,1.16,16.545,16.545,0,0,0-.4,2.476,3.728,3.728,0,0,0,.206,1.358,4.873,4.873,0,0,0,.807,1.489,14.472,14.472,0,0,0,3.181,2.682,15.526,15.526,0,0,1,1.525,1.139,3.3,3.3,0,0,1,.89,1.009c.249.63-.2,1.086-.745,1.6a4.189,4.189,0,0,0-1.406,1.978c-.082.346.094.663.462,1a12.686,12.686,0,0,0,1.525,1.158,22.55,22.55,0,0,1,2.144,1.62,13.866,13.866,0,0,1,2.23,2.368,1.1,1.1,0,0,0,1.883-.148c.5-1.1,1.091-2.137,1.58-3.1.515-.968,1.024-1.873,1.388-2.68a10.168,10.168,0,0,0,.805-2.147A1.784,1.784,0,0,0,417.673,355.6Z" transform="translate(-396.474 -334.634)" fill="#86d4d4"/>
        </g>
        <path id="Path_9333" data-name="Path 9333" d="M414.769,369.4a.254.254,0,0,1-.255-.24l-.052-1.43c0-.456-.055-1.007-.121-1.638s-.116-1.345-.256-2.114a39.9,39.9,0,0,0-3.291-10.926,39.347,39.347,0,0,0-6.2-9.583c-1.01-1.194-1.964-2.081-2.6-2.734l-1.068-.952a.248.248,0,0,1-.019-.347.241.241,0,0,1,.344-.023l1.081.965c.643.661,1.61,1.561,2.632,2.769a39.861,39.861,0,0,1,6.275,9.7,40.368,40.368,0,0,1,3.332,11.061c.141.779.2,1.5.259,2.142s.118,1.2.122,1.658c.033.922.053,1.449.053,1.449A.237.237,0,0,1,414.769,369.4Z" transform="translate(-397.924 -336.197)" fill="#fff"/>
      </g>
      <g id="Group_16990" data-name="Group 16990" transform="translate(10.805)">
        <g id="Group_16989" data-name="Group 16989">
          <g id="Group_16988" data-name="Group 16988">
            <path id="Path_9334" data-name="Path 9334" d="M425.021,347.151a4.519,4.519,0,0,0-1.8-2.152c-.648-.485-1.182-.916-1.074-1.823a5.589,5.589,0,0,1,.662-1.644,24.373,24.373,0,0,1,1.27-2.086,24.963,24.963,0,0,0,2.649-4.881,9.529,9.529,0,0,0,.533-2.3,6.094,6.094,0,0,0-.051-1.816,18.583,18.583,0,0,0-.9-2.851,2.351,2.351,0,0,1,.192-1.613,14.87,14.87,0,0,1,1.124-2.012c.467-.7,1.014-1.406,1.482-2.108l.684-1.021a8.1,8.1,0,0,0,.547-.975,3.536,3.536,0,0,0,.3-1.075,4.384,4.384,0,0,0,.031-1.07,7.36,7.36,0,0,0-.5-1.989,2.466,2.466,0,0,0-2.609-1.661,6.466,6.466,0,0,0-2.049.539,4.908,4.908,0,0,0-1,.615,4.19,4.19,0,0,0-.81.938,10.356,10.356,0,0,0-.6,1.11,10.152,10.152,0,0,0-.517,1.282c-.3.9-.6,1.839-.857,2.732a18.14,18.14,0,0,1-.787,2.413,3.151,3.151,0,0,1-1.005,1.467,11.526,11.526,0,0,0-2.629,1.944,7.878,7.878,0,0,0-1.208,1.745,10.77,10.77,0,0,0-.868,2.686,17.257,17.257,0,0,0,.211,6.429c.164.977.392,1.876.554,2.652a7.408,7.408,0,0,1,.207,1.924c-.052,1-.652,1.361-1.377,1.8a4.159,4.159,0,0,0-2.069,2.273,2.781,2.781,0,0,0,.107,1.84,13.865,13.865,0,0,0,1.247,2.412c.528.9,1.227,1.884,1.946,2.963.693,1.081,1.514,2.246,2.264,3.517a.987.987,0,0,0,1.875-.225,19.527,19.527,0,0,1,1.61-3.68,30.983,30.983,0,0,1,1.731-2.765,16.926,16.926,0,0,0,1.247-2.027A1.916,1.916,0,0,0,425.021,347.151Z" transform="translate(-412.639 -314.061)" fill="#f3ce87"/>
          </g>
        </g>
        <path id="Path_9335" data-name="Path 9335" d="M422.749,362.66c-.134.024-.265-.1-.292-.273l-.29-1.874c-.043-.3-.106-.627-.144-.989l-.124-1.171c-.088-.836-.2-1.778-.243-2.812a64.721,64.721,0,0,1,.814-15.113,67.631,67.631,0,0,1,1.839-7.886,68.425,68.425,0,0,1,2.412-6.64c.786-1.915,1.592-3.442,2.113-4.53l.914-1.662a.286.286,0,0,1,.369-.159.293.293,0,0,1,.061.4l-.906,1.649c-.516,1.081-1.317,2.6-2.1,4.5a63.08,63.08,0,0,0-4.22,14.416,64.193,64.193,0,0,0-.807,15c.039,1.027.153,1.961.24,2.791.044.414.085.8.123,1.162s.1.684.143.981c.184,1.184.288,1.86.288,1.86A.3.3,0,0,1,422.749,362.66Z" transform="translate(-415.587 -315.873)" fill="#fff"/>
      </g>
    </g>
  </g>
</svg>
