<svg xmlns="http://www.w3.org/2000/svg" width="235.394" height="226.397" viewBox="0 0 235.394 226.397">
  <g id="Group_17701" data-name="Group 17701" transform="translate(-27.58 -36.925)">
    <g id="Background_Simple" data-name="Background Simple" transform="translate(30.275 36.925)">
      <g id="Group_17659" data-name="Group 17659" transform="translate(0)">
        <path id="Path_10299" data-name="Path 10299" d="M177.41,40.877a21.123,21.123,0,0,0-21.107-2.03c-33.422,15.371-143.741,69.61-120.5,105.87,27.314,42.615,124.189,109.842,159.735,106.636s75.82-62.816,66.77-102.053C254.7,116.332,203.583,59.713,177.41,40.877Z" transform="translate(-32.614 -36.925)" fill="#92e3a9"/>
        <path id="Path_10300" data-name="Path 10300" d="M177.41,40.877a21.123,21.123,0,0,0-21.107-2.03c-33.422,15.371-143.741,69.61-120.5,105.87,27.314,42.615,124.189,109.842,159.735,106.636s75.82-62.816,66.77-102.053C254.7,116.332,203.583,59.713,177.41,40.877Z" transform="translate(-32.614 -36.925)" fill="#c4ddde"/>
      </g>
    </g>
    <g id="Plants" transform="translate(27.58 142.643)">
      <g id="Group_17660" data-name="Group 17660" transform="translate(153.714)">
        <path id="Path_10301" data-name="Path 10301" d="M360.316,245.57c.819,1.957,4.331,5.164,4.334,5.167.036.033,1.411-2.957,1.477-3.155.753-2.3.857-7.183-1.334-8.775a3.206,3.206,0,0,0-4.636,1.127C359.194,241.587,359.619,243.9,360.316,245.57Z" transform="translate(-335.562 -236.177)" fill="#263238"/>
        <path id="Path_10302" data-name="Path 10302" d="M395.672,275.115c-1.747-2.07-6.611-1.613-8.849-.694-.193.08-3.076,1.667-3.039,1.7l.042.039c-.768.066-1.591.147-2.489.252-1.656.208-3.525.458-5.54.867a56.952,56.952,0,0,0-6.441,1.628,41.83,41.83,0,0,0-6.874,2.827c-.026.013-.051.031-.077.045.558-.564,2.067-2.193,2.168-2.331,1.432-1.949,3.055-6.558,1.468-8.754a3.206,3.206,0,0,0-4.756-.374c-1.429,1.27-1.748,3.6-1.605,5.4.161,2.031,2.3,5.9,2.474,6.2a56.747,56.747,0,0,0-6.372,4.089c-1.188.87-2.358,1.782-3.519,2.712.467-.5.881-.957.932-1.026,1.432-1.95,3.054-6.557,1.469-8.754a3.205,3.205,0,0,0-4.756-.374c-1.429,1.27-1.748,3.6-1.606,5.4.145,1.827,1.9,5.159,2.382,6.034-.442.361-.887.717-1.327,1.08-2.114,1.741-4.214,3.487-6.327,5.137-.744.582-1.5,1.128-2.251,1.676.414-.447.759-.828.806-.891,1.432-1.949,3.054-6.558,1.469-8.754a3.207,3.207,0,0,0-4.757-.374c-1.429,1.269-1.748,3.6-1.6,5.4.138,1.744,1.735,4.834,2.3,5.877-.788.539-1.576,1.079-2.365,1.566-.546.32-1.048.665-1.614.957l-1.646.89c-1.067.527-2.164,1.079-3.218,1.568-.73.345-1.433.661-2.139.981.747-.571,2.188-1.719,2.3-1.828a12.45,12.45,0,0,0,2.976-5.532,3.728,3.728,0,0,0,.458-.543,3.206,3.206,0,0,0-.955-4.674c-2.374-1.3-6.749.871-8.507,2.532-.1.1-1.111,1.287-1.734,2.047.3-.5.593-.987.893-1.509.6-1.026,1.171-2.069,1.789-3.188l.845-1.67c.294-.551.535-1.171.808-1.761.6-1.381,1.148-2.81,1.664-4.261.9.525,4.124,2.341,5.929,2.536s4.139-.056,5.449-1.447a3.206,3.206,0,0,0-.236-4.765c-2.149-1.649-6.8-.162-8.793,1.214-.124.086-1.441,1.233-2.152,1.877.3-.875.611-1.747.89-2.642.8-2.584,1.539-5.225,2.282-7.856.228-.806.463-1.607.7-2.409.319.191,4.1,2.432,6.125,2.651,1.8.2,4.138-.056,5.449-1.448a3.2,3.2,0,0,0-.236-4.764c-2.149-1.649-6.8-.162-8.793,1.213-.15.1-2.042,1.757-2.5,2.2.514-1.766,1.044-3.522,1.636-5.232a56.443,56.443,0,0,1,2.805-6.763c.148.089,4.089,2.445,6.158,2.671,1.8.195,4.138-.056,5.449-1.448a3.205,3.205,0,0,0-.236-4.764c-2.15-1.649-6.8-.162-8.793,1.214-.156.108-2.191,1.888-2.536,2.237.063-.126.115-.265.179-.39a41.327,41.327,0,0,1,3.99-6.16c.82-1.077,1.664-2.061,2.507-3,.689.514,3.863,2.83,5.7,3.238,1.765.391,4.12.4,5.576-.84a3.206,3.206,0,0,0,.289-4.762c-1.955-1.875-6.744-.908-8.873.24-.116.063-1.223.828-2.02,1.4.387-.418.778-.857,1.157-1.25,1.418-1.478,2.807-2.745,4.047-3.857.71-.627,1.365-1.179,1.982-1.689.94.151,4.732.717,6.521.24,1.746-.466,3.84-1.544,4.561-3.315a3.206,3.206,0,0,0-1.938-4.359c-2.6-.763-6.4,2.3-7.764,4.3-.117.173-1.645,3.087-1.6,3.1l.056.009c-.6.479-1.246,1-1.936,1.584-1.267,1.086-2.688,2.326-4.143,3.78a56.868,56.868,0,0,0-4.475,4.912,41.868,41.868,0,0,0-4.174,6.15c-.013.026-.025.054-.039.08.154-.778.513-2.97.521-3.142.119-2.416-1.07-7.154-3.6-8.111a3.207,3.207,0,0,0-4.174,2.312c-.491,1.849.531,3.971,1.643,5.394,1.255,1.606,5.173,3.647,5.485,3.809a56.785,56.785,0,0,0-3.058,6.927c-.512,1.38-.984,2.786-1.44,4.2.111-.677.207-1.284.211-1.37.119-2.417-1.07-7.155-3.6-8.111a3.2,3.2,0,0,0-4.173,2.311c-.493,1.848.53,3.971,1.642,5.394,1.129,1.445,4.434,3.252,5.316,3.719-.169.545-.344,1.087-.511,1.633-.8,2.618-1.591,5.234-2.443,7.776-.3.9-.628,1.767-.953,2.64.1-.6.177-1.109.181-1.188.119-2.416-1.07-7.155-3.6-8.111A3.206,3.206,0,0,0,320,276.822c-.491,1.849.531,3.971,1.643,5.394,1.078,1.379,4.114,3.075,5.158,3.634-.36.884-.72,1.77-1.108,2.61-.278.568-.507,1.134-.819,1.689L324,291.8c-.6,1.028-1.21,2.094-1.82,3.083-.419.691-.83,1.342-1.243,2,.309-.888.877-2.64.908-2.792.484-2.37.026-7.233-2.334-8.564a3.205,3.205,0,0,0-4.475,1.653c-.766,1.752-.078,4,.806,5.58.974,1.734,4.386,4.26,4.814,4.572-.687,1.084-1.365,2.132-2.021,3.111-.332.5-.656.975-.974,1.441l1.164,1.222c.375-.572.759-1.165,1.154-1.786.7-1.1,1.43-2.285,2.166-3.512a34.753,34.753,0,0,0,3.881,1.3c-.035,2.043,1.32,5.768,1.5,6.248-1.171.526-2.315,1.025-3.4,1.479a10.314,10.314,0,0,1-1.372.393l1.239,1.3a4.924,4.924,0,0,0,.771-.222c1.191-.528,2.454-1.117,3.744-1.734.295.429,2.724,3.922,4.432,4.947,1.549.929,3.781,1.683,5.555.968a3.206,3.206,0,0,0,1.781-4.426c-1.26-2.4-6.109-3-8.492-2.581-.141.024-1.637.46-2.575.751.526-.255,1.039-.5,1.578-.766,1.068-.524,2.118-1.079,3.25-1.672l1.626-.925c.549-.3,1.092-.682,1.645-1.024,1.266-.819,2.508-1.71,3.74-2.636.462.934,2.148,4.227,3.546,5.386s3.482,2.236,5.344,1.8a3.206,3.206,0,0,0,2.432-4.1c-.883-2.561-5.585-3.887-8-3.838-.15,0-1.882.233-2.83.379.736-.562,1.473-1.12,2.2-1.713,2.1-1.712,4.165-3.509,6.237-5.294.634-.547,1.273-1.084,1.911-1.624.161.334,2.081,4.292,3.646,5.59,1.39,1.154,3.483,2.237,5.344,1.8a3.205,3.205,0,0,0,2.432-4.1c-.883-2.561-5.585-3.888-8-3.839-.182,0-2.673.339-3.3.455,1.4-1.19,2.814-2.362,4.251-3.461a56.448,56.448,0,0,1,6.071-4.093c.074.155,2.06,4.3,3.662,5.625,1.391,1.153,3.483,2.236,5.344,1.8a3.205,3.205,0,0,0,2.432-4.1c-.883-2.561-5.585-3.887-8-3.839-.189,0-2.869.366-3.35.466.123-.07.243-.157.366-.226a41.269,41.269,0,0,1,6.726-2.937c1.278-.446,2.525-.8,3.745-1.118.291.809,1.661,4.491,2.971,5.847,1.255,1.3,3.216,2.606,5.114,2.375a3.205,3.205,0,0,0,2.868-3.812c-.6-2.643-5.124-4.477-7.533-4.694-.131-.012-1.476.016-2.455.05.553-.135,1.121-.285,1.654-.4,2-.451,3.856-.741,5.5-.985.938-.131,1.788-.231,2.585-.315.7.645,3.551,3.208,5.306,3.8,1.713.574,4.055.831,5.633-.248A3.207,3.207,0,0,0,395.672,275.115Z" transform="translate(-314.703 -234.396)" fill="#263238"/>
        <path id="Path_10303" data-name="Path 10303" d="M423.81,305.128c.012.048,2.809-1.687,2.972-1.817,1.9-1.5,4.677-5.518,3.728-8.056a3.206,3.206,0,0,0-4.488-1.616c-1.714.847-2.638,3.014-2.976,4.789C422.649,300.512,423.81,305.124,423.81,305.128Z" transform="translate(-365.005 -261.754)" fill="#263238"/>
      </g>
      <g id="Group_17661" data-name="Group 17661">
        <path id="Path_10304" data-name="Path 10304" d="M128.447,245.57c-.819,1.957-4.331,5.164-4.334,5.167-.036.033-1.411-2.957-1.476-3.155-.754-2.3-.858-7.183,1.334-8.775a3.206,3.206,0,0,1,4.636,1.127C129.569,241.587,129.144,243.9,128.447,245.57Z" transform="translate(-71.521 -236.177)" fill="#263238"/>
        <path id="Path_10305" data-name="Path 10305" d="M28.292,275.115c1.747-2.07,6.611-1.613,8.849-.694.193.08,3.076,1.667,3.04,1.7l-.042.039c.769.066,1.591.147,2.489.252,1.656.208,3.525.458,5.54.867a56.953,56.953,0,0,1,6.441,1.628,41.83,41.83,0,0,1,6.874,2.827c.026.013.051.031.077.045-.558-.564-2.067-2.193-2.168-2.331-1.432-1.949-3.054-6.558-1.468-8.754a3.206,3.206,0,0,1,4.756-.374c1.429,1.27,1.748,3.6,1.605,5.4-.161,2.031-2.3,5.9-2.473,6.2a56.8,56.8,0,0,1,6.372,4.089c1.188.87,2.358,1.782,3.519,2.712-.467-.5-.881-.957-.932-1.026-1.433-1.95-3.055-6.557-1.468-8.754a3.2,3.2,0,0,1,4.756-.374c1.429,1.27,1.748,3.6,1.606,5.4-.145,1.827-1.9,5.159-2.382,6.034.442.361.888.717,1.328,1.08,2.113,1.741,4.213,3.487,6.327,5.137.744.582,1.5,1.128,2.252,1.676-.414-.447-.76-.828-.806-.891-1.432-1.949-3.054-6.558-1.469-8.754a3.207,3.207,0,0,1,4.757-.374c1.429,1.269,1.747,3.6,1.6,5.4-.138,1.744-1.735,4.834-2.3,5.877.788.539,1.577,1.079,2.365,1.566.546.32,1.048.665,1.614.957l1.646.89c1.067.527,2.164,1.079,3.218,1.568.73.345,1.433.661,2.139.981-.747-.571-2.188-1.719-2.3-1.828a12.451,12.451,0,0,1-2.976-5.532,3.731,3.731,0,0,1-.458-.543,3.206,3.206,0,0,1,.956-4.674c2.374-1.3,6.749.871,8.507,2.532.1.1,1.11,1.287,1.733,2.047-.3-.5-.593-.987-.894-1.509-.6-1.026-1.171-2.069-1.789-3.188q-.419-.826-.845-1.67c-.294-.551-.535-1.171-.807-1.761-.6-1.381-1.148-2.81-1.665-4.261-.9.525-4.124,2.341-5.929,2.536s-4.139-.056-5.449-1.447a3.206,3.206,0,0,1,.236-4.765c2.149-1.649,6.8-.162,8.793,1.214.124.086,1.441,1.233,2.152,1.877-.3-.875-.611-1.747-.89-2.642-.8-2.584-1.539-5.225-2.282-7.856-.228-.806-.464-1.607-.7-2.409-.319.191-4.1,2.432-6.125,2.651-1.8.2-4.138-.056-5.449-1.448a3.205,3.205,0,0,1,.236-4.764c2.149-1.649,6.8-.162,8.793,1.213.15.1,2.042,1.757,2.5,2.2-.514-1.766-1.044-3.522-1.636-5.232a56.531,56.531,0,0,0-2.8-6.763c-.149.089-4.089,2.445-6.159,2.671-1.8.195-4.138-.056-5.449-1.448a3.205,3.205,0,0,1,.236-4.764c2.149-1.649,6.8-.162,8.793,1.214.156.108,2.191,1.888,2.537,2.237-.063-.126-.115-.265-.179-.39a41.367,41.367,0,0,0-3.99-6.16c-.82-1.077-1.664-2.061-2.507-3-.689.514-3.863,2.83-5.7,3.238-1.765.391-4.12.4-5.576-.84a3.206,3.206,0,0,1-.289-4.762c1.955-1.875,6.744-.908,8.873.24.116.063,1.223.828,2.02,1.4-.387-.418-.778-.857-1.156-1.25-1.418-1.478-2.807-2.745-4.047-3.857-.71-.627-1.365-1.179-1.982-1.689-.94.151-4.732.717-6.521.24-1.746-.466-3.84-1.544-4.561-3.315a3.206,3.206,0,0,1,1.937-4.359c2.6-.763,6.4,2.3,7.764,4.3.117.173,1.645,3.087,1.6,3.1l-.056.009c.6.479,1.247,1,1.937,1.584,1.266,1.086,2.687,2.326,4.143,3.78a56.955,56.955,0,0,1,4.474,4.912,41.786,41.786,0,0,1,4.174,6.15c.013.026.025.054.039.08-.154-.778-.513-2.97-.521-3.142-.119-2.416,1.07-7.154,3.6-8.111a3.206,3.206,0,0,1,4.174,2.312c.491,1.849-.531,3.971-1.643,5.394-1.255,1.606-5.173,3.647-5.485,3.809a56.782,56.782,0,0,1,3.059,6.927c.512,1.38.984,2.786,1.44,4.2-.111-.677-.207-1.284-.211-1.37-.119-2.417,1.07-7.155,3.6-8.111a3.205,3.205,0,0,1,4.174,2.311c.492,1.848-.531,3.971-1.643,5.394-1.129,1.445-4.434,3.252-5.316,3.719.169.545.344,1.087.511,1.633.8,2.618,1.591,5.234,2.443,7.776.3.9.628,1.767.953,2.64-.1-.6-.177-1.109-.181-1.188-.119-2.416,1.07-7.155,3.6-8.111a3.206,3.206,0,0,1,4.174,2.311c.491,1.849-.53,3.971-1.643,5.394-1.078,1.379-4.114,3.075-5.158,3.634.36.884.719,1.77,1.108,2.61.279.568.507,1.134.819,1.689l.882,1.65c.6,1.028,1.21,2.094,1.82,3.083.419.691.83,1.342,1.243,2-.309-.888-.877-2.64-.908-2.792-.485-2.37-.026-7.233,2.334-8.564a3.205,3.205,0,0,1,4.475,1.653c.766,1.752.078,4-.806,5.58-.974,1.734-4.386,4.26-4.814,4.572.687,1.084,1.365,2.132,2.022,3.111.331.5.655.975.973,1.441L105.14,303.1c-.375-.572-.759-1.165-1.154-1.786-.7-1.1-1.43-2.285-2.167-3.512a34.712,34.712,0,0,1-3.881,1.3c.035,2.043-1.32,5.768-1.5,6.248,1.171.526,2.315,1.025,3.4,1.479a10.314,10.314,0,0,0,1.372.393l-1.239,1.3a4.9,4.9,0,0,1-.77-.222c-1.191-.528-2.454-1.117-3.744-1.734-.295.429-2.724,3.922-4.432,4.947-1.549.929-3.781,1.683-5.555.968a3.206,3.206,0,0,1-1.781-4.426c1.26-2.4,6.109-3,8.492-2.581.141.024,1.637.46,2.575.751-.526-.255-1.039-.5-1.577-.766-1.069-.524-2.118-1.079-3.251-1.672l-1.626-.925c-.549-.3-1.092-.682-1.645-1.024-1.266-.819-2.508-1.71-3.74-2.636-.461.934-2.148,4.227-3.545,5.386s-3.483,2.236-5.344,1.8a3.206,3.206,0,0,1-2.432-4.1c.883-2.561,5.585-3.887,8-3.838.15,0,1.882.233,2.83.379-.736-.562-1.473-1.12-2.2-1.713-2.1-1.712-4.165-3.509-6.237-5.294-.634-.547-1.273-1.084-1.91-1.624-.161.334-2.081,4.292-3.646,5.59-1.39,1.154-3.482,2.237-5.343,1.8a3.2,3.2,0,0,1-2.432-4.1c.883-2.561,5.584-3.888,8-3.839.182,0,2.673.339,3.3.455-1.4-1.19-2.814-2.362-4.251-3.461a56.4,56.4,0,0,0-6.071-4.093c-.074.155-2.06,4.3-3.662,5.625-1.391,1.153-3.483,2.236-5.344,1.8a3.206,3.206,0,0,1-2.432-4.1c.883-2.561,5.585-3.887,8-3.839.19,0,2.869.366,3.35.466-.123-.07-.243-.157-.366-.226a41.27,41.27,0,0,0-6.726-2.937c-1.278-.446-2.525-.8-3.745-1.118-.291.809-1.661,4.491-2.97,5.847-1.256,1.3-3.216,2.606-5.114,2.375a3.205,3.205,0,0,1-2.868-3.812c.6-2.643,5.124-4.477,7.533-4.694.131-.012,1.476.016,2.455.05-.553-.135-1.121-.285-1.653-.4-2-.451-3.856-.741-5.5-.985-.937-.131-1.788-.231-2.585-.315-.7.645-3.551,3.208-5.306,3.8-1.713.574-4.055.831-5.633-.248A3.207,3.207,0,0,1,28.292,275.115Z" transform="translate(-27.58 -234.396)" fill="#263238"/>
        <path id="Path_10306" data-name="Path 10306" d="M64.329,305.128c-.012.048-2.808-1.687-2.972-1.817-1.9-1.5-4.677-5.518-3.728-8.056a3.2,3.2,0,0,1,4.488-1.616c1.714.847,2.638,3.014,2.976,4.789C65.49,300.512,64.33,305.124,64.329,305.128Z" transform="translate(-41.453 -261.754)" fill="#263238"/>
      </g>
    </g>
    <g id="Shadow" transform="translate(105.004 253.305)">
      <ellipse id="Ellipse_1302" data-name="Ellipse 1302" cx="41.414" cy="5.008" rx="41.414" ry="5.008" fill="#263238"/>
    </g>
    <g id="Icon_4" data-name="Icon 4" transform="translate(223.17 218.118)">
      <g id="Group_17662" data-name="Group 17662">
        <rect id="Rectangle_2886" data-name="Rectangle 2886" width="27.271" height="9.625" transform="translate(0 13.032)" fill="none" stroke="#263238" stroke-linecap="round" stroke-linejoin="round" stroke-width="1"/>
        <rect id="Rectangle_2887" data-name="Rectangle 2887" width="25.557" height="15.501" transform="translate(0.857 22.64)" fill="none" stroke="#263238" stroke-linecap="round" stroke-linejoin="round" stroke-width="1"/>
        <rect id="Rectangle_2888" data-name="Rectangle 2888" width="5.858" height="25.195" transform="translate(10.707 13.082)" fill="none" stroke="#263238" stroke-linecap="round" stroke-linejoin="round" stroke-width="1"/>
        <path id="Path_10307" data-name="Path 10307" d="M411.048,394.931s-2.929-6.16-6.363-5.454S402.968,395.234,411.048,394.931Z" transform="translate(-397.611 -381.902)" fill="none" stroke="#263238" stroke-linecap="round" stroke-linejoin="round" stroke-width="1"/>
        <path id="Path_10308" data-name="Path 10308" d="M418.479,394.931s2.929-6.16,6.363-5.454S426.559,395.234,418.479,394.931Z" transform="translate(-404.798 -381.902)" fill="none" stroke="#263238" stroke-linecap="round" stroke-linejoin="round" stroke-width="1"/>
        <path id="Path_10309" data-name="Path 10309" d="M424.958,375.377c.2,1.414-.5,2.929-2.625,3.838s-3.232-1.616-5.454.707.446,8.483.446,8.483,7.331-1.01,7.633,1.818-2.019,4.14-1.313,5.857,2.929.505,3.131-1.414" transform="translate(-403.644 -375.377)" fill="none" stroke="#263238" stroke-linecap="round" stroke-linejoin="round" stroke-width="1"/>
      </g>
    </g>
    <g id="Icon_3" data-name="Icon 3" transform="translate(227.921 38.249)">
      <g id="Group_17663" data-name="Group 17663">
        <circle id="Ellipse_1303" data-name="Ellipse 1303" cx="13.932" cy="13.932" r="13.932" fill="none" stroke="#263238" stroke-linecap="round" stroke-linejoin="round" stroke-width="1"/>
      </g>
    </g>
    <g id="Icon_2" data-name="Icon 2" transform="translate(47.525 41.848)">
      <g id="Group_17667" data-name="Group 17667" transform="translate(0 0)">
        <g id="Group_17664" data-name="Group 17664" transform="translate(9.36)">
          <circle id="Ellipse_1304" data-name="Ellipse 1304" cx="4.609" cy="4.609" r="4.609" transform="translate(1.051 2.095) rotate(-13.135)" fill="none" stroke="#263238" stroke-linecap="round" stroke-linejoin="round" stroke-width="1"/>
          <path id="Path_10310" data-name="Path 10310" d="M95.493,74.618C95.369,70.385,92.472,67,88.906,67s-6.463,3.388-6.587,7.621" transform="translate(-82.319 -55.82)" fill="none" stroke="#263238" stroke-linecap="round" stroke-linejoin="round" stroke-width="1"/>
        </g>
        <g id="Group_17665" data-name="Group 17665" transform="translate(21.934 0.927)">
          <circle id="Ellipse_1305" data-name="Ellipse 1305" cx="3.831" cy="3.831" r="3.831" transform="translate(0.78)" fill="none" stroke="#263238" stroke-linecap="round" stroke-linejoin="round" stroke-width="1"/>
          <path id="Path_10311" data-name="Path 10311" d="M115.891,70.1c-.1-3.518-2.511-6.334-5.474-6.334a5.327,5.327,0,0,0-4.611,3.019" transform="translate(-105.806 -55.245)" fill="none" stroke="#263238" stroke-linecap="round" stroke-linejoin="round" stroke-width="1"/>
        </g>
        <g id="Group_17666" data-name="Group 17666" transform="translate(0 0.927)">
          <circle id="Ellipse_1306" data-name="Ellipse 1306" cx="3.831" cy="3.831" r="3.831" transform="translate(1.644)" fill="none" stroke="#263238" stroke-linecap="round" stroke-linejoin="round" stroke-width="1"/>
          <path id="Path_10312" data-name="Path 10312" d="M64.836,70.1c.1-3.518,2.511-6.334,5.475-6.334a5.328,5.328,0,0,1,4.611,3.019" transform="translate(-64.836 -55.245)" fill="none" stroke="#263238" stroke-linecap="round" stroke-linejoin="round" stroke-width="1"/>
        </g>
      </g>
    </g>
    <g id="Icon_1" data-name="Icon 1" transform="translate(44.061 221.967)">
      <g id="Group_17669" data-name="Group 17669" transform="translate(0 0)">
        <circle id="Ellipse_1307" data-name="Ellipse 1307" cx="13.932" cy="13.932" r="13.932" transform="matrix(0.987, -0.159, 0.159, 0.987, 0, 4.424)" fill="none" stroke="#263238" stroke-linecap="round" stroke-linejoin="round" stroke-width="1"/>
        <g id="Group_17668" data-name="Group 17668" transform="translate(8.13 8.13)">
          <line id="Line_81" data-name="Line 81" y2="15.673" transform="translate(7.836)" fill="none" stroke="#263238" stroke-linecap="round" stroke-linejoin="round" stroke-width="4"/>
          <line id="Line_82" data-name="Line 82" x1="15.673" transform="translate(0 7.837)" fill="none" stroke="#263238" stroke-linecap="round" stroke-linejoin="round" stroke-width="4"/>
        </g>
      </g>
    </g>
    <g id="Device" transform="translate(99.973 54.5)">
      <g id="Group_17683" data-name="Group 17683">
        <g id="Group_17670" data-name="Group 17670" transform="translate(4.023 2.928)">
          <path id="Path_10313" data-name="Path 10313" d="M256.661,83.3V245.753a8.073,8.073,0,0,1-8.074,8.073h-70.2a8.074,8.074,0,0,1-8.074-8.074V83.292a8.07,8.07,0,0,1,8.069-8.069h30.13l.025.093c.751,2.7,2.48,4.46,4.4,4.46h1.1c1.918,0,3.646-1.758,4.4-4.46l.029-.093h30.121A8.074,8.074,0,0,1,256.661,83.3Z" transform="translate(-170.318 -75.223)" fill="#fff" stroke="#263238" stroke-linecap="round" stroke-linejoin="round" stroke-width="1"/>
        </g>
        <g id="Group_17682" data-name="Group 17682">
          <path id="Path_10314" data-name="Path 10314" d="M258.66,119.557V103.331h-1.467V82.558a12.805,12.805,0,0,0-12.8-12.8H175.609a12.805,12.805,0,0,0-12.8,12.8V247.626a12.805,12.805,0,0,0,12.8,12.8h68.779a12.805,12.805,0,0,0,12.8-12.8V133.386h1.467V123.8h-1.467v-4.241Zm-5.491,118.922a12.806,12.806,0,0,1-12.806,12.806H179.632a12.806,12.806,0,0,1-12.806-12.806v-153a12.805,12.805,0,0,1,12.806-12.8h25.394l.025.093c.751,2.7,2.48,4.46,4.4,4.46h1.1c1.918,0,3.646-1.758,4.4-4.46l.029-.093h25.389a12.805,12.805,0,0,1,12.806,12.8Z" transform="translate(-162.804 -69.753)" fill="#34c6c8" stroke="#263238" stroke-linecap="round" stroke-linejoin="round" stroke-width="1"/>
          <path id="Path_10315" data-name="Path 10315" d="M244.647,73.048H177.923A12.35,12.35,0,0,0,165.573,85.4V247.849a12.35,12.35,0,0,0,12.35,12.349h66.724A12.35,12.35,0,0,0,257,247.849V85.4A12.35,12.35,0,0,0,244.647,73.048Zm9.809,167.417a12.35,12.35,0,0,1-12.35,12.35H180.463a12.35,12.35,0,0,1-12.35-12.35V86.559a12.346,12.346,0,0,1,12.346-12.346h25.854l.025.093c.751,2.7,2.48,4.46,4.4,4.46h1.1c1.918,0,3.646-1.758,4.4-4.46l.029-.093h25.845a12.35,12.35,0,0,1,12.35,12.351Z" transform="translate(-164.091 -71.284)" fill="#263238" stroke="#263238" stroke-linecap="round" stroke-linejoin="round" stroke-width="1"/>
          <path id="Path_10316" data-name="Path 10316" d="M250.624,75.323a1.2,1.2,0,1,0-1.2,1.2A1.2,1.2,0,0,0,250.624,75.323Z" transform="translate(-202.492 -71.783)" fill="#fff"/>
          <g id="Group_17681" data-name="Group 17681" transform="translate(9.882 6.633)">
            <g id="Group_17671" data-name="Group 17671" transform="translate(0 0.494)">
              <path id="Path_10317" data-name="Path 10317" d="M183.077,84.086c0,1.216-1.366,1.654-1.372,2.582v.064h1.326v.409h-1.769v-.346c0-1.3,1.366-1.556,1.366-2.692,0-.414-.139-.633-.473-.633s-.473.236-.473.593v.358h-.421v-.329c0-.617.283-1.026.9-1.026S183.077,83.47,183.077,84.086Z" transform="translate(-181.262 -83.066)" fill="#263238"/>
              <path id="Path_10318" data-name="Path 10318" d="M187.2,84.081v.1a.8.8,0,0,1-.49.83.8.8,0,0,1,.49.836v.311c0,.617-.289,1.02-.911,1.02s-.9-.4-.9-1.02v-.277h.42v.306c0,.363.15.582.473.582s.473-.213.473-.622v-.312c0-.4-.167-.588-.508-.6H186v-.4h.266a.484.484,0,0,0,.484-.553V84.1c0-.415-.144-.628-.473-.628s-.473.224-.473.588v.207h-.42v-.184c0-.617.288-1.015.9-1.015S187.2,83.464,187.2,84.081Z" transform="translate(-183.179 -83.066)" fill="#263238"/>
              <path id="Path_10319" data-name="Path 10319" d="M190.03,85.531v.559H189.6v-.559Zm0,2.2v.559H189.6v-.559Z" transform="translate(-185.135 -84.211)" fill="#263238"/>
              <path id="Path_10320" data-name="Path 10320" d="M191.7,84.784a.648.648,0,0,1,.6-.335c.519,0,.749.381.749.957v.79c0,.617-.294,1.02-.91,1.02s-.905-.4-.905-1.02v-.271h.421v.3c0,.363.15.582.473.582s.473-.219.473-.582v-.784c0-.363-.15-.582-.473-.582a.435.435,0,0,0-.456.433v.092h-.42l.109-2.242h1.591v.4h-1.187Z" transform="translate(-185.895 -83.101)" fill="#263238"/>
              <path id="Path_10321" data-name="Path 10321" d="M197.218,84.075v.075h-.42v-.1c0-.363-.15-.576-.479-.576s-.49.219-.49.651v.9a.649.649,0,0,1,.651-.432c.519,0,.749.375.749.957v.611c0,.617-.306,1.02-.922,1.02s-.928-.4-.928-1.02V84.1c0-.639.289-1.037.928-1.037C196.93,83.066,197.218,83.458,197.218,84.075Zm-1.389,1.51v.6c0,.363.15.582.478.582s.479-.219.479-.582v-.6c0-.364-.156-.582-.479-.582S195.83,85.221,195.83,85.585Z" transform="translate(-187.822 -83.066)" fill="#263238"/>
            </g>
            <g id="Group_17680" data-name="Group 17680" transform="translate(52.303)">
              <rect id="Rectangle_2889" data-name="Rectangle 2889" width="1.139" height="2.848" transform="translate(0 1.68)" fill="#263238"/>
              <rect id="Rectangle_2890" data-name="Rectangle 2890" width="1.139" height="3.418" transform="translate(1.519 1.11)" fill="#263238"/>
              <rect id="Rectangle_2891" data-name="Rectangle 2891" width="1.139" height="3.824" transform="translate(3.038 0.705)" fill="#263238"/>
              <rect id="Rectangle_2892" data-name="Rectangle 2892" width="1.139" height="4.528" transform="translate(4.557)" fill="#263238"/>
              <g id="Group_17675" data-name="Group 17675" transform="translate(12.958 0.273)">
                <g id="Group_17672" data-name="Group 17672">
                  <path id="Path_10322" data-name="Path 10322" d="M310,86.83h-6.835V82.653H310Zm-6.455-.38h6.076V83.033h-6.076Z" transform="translate(-303.164 -82.653)" fill="#263238"/>
                </g>
                <g id="Group_17673" data-name="Group 17673" transform="translate(0.949 0.793)">
                  <rect id="Rectangle_2893" data-name="Rectangle 2893" width="3.607" height="2.591" fill="#263238"/>
                </g>
                <g id="Group_17674" data-name="Group 17674" transform="translate(6.598 1.596)">
                  <rect id="Rectangle_2894" data-name="Rectangle 2894" width="0.86" height="0.984" fill="#263238"/>
                </g>
              </g>
              <g id="Group_17676" data-name="Group 17676" transform="translate(7.55 2.61)">
                <path id="Path_10323" data-name="Path 10323" d="M295.964,87.949a.252.252,0,0,1-.131-.036,1.993,1.993,0,0,0-2.349-.027.255.255,0,0,1-.336-.384,2.479,2.479,0,0,1,2.946-.028.255.255,0,0,1-.131.474Z" transform="translate(-293.062 -87.018)" fill="#263238"/>
              </g>
              <g id="Group_17677" data-name="Group 17677" transform="translate(7.035 1.598)">
                <path id="Path_10324" data-name="Path 10324" d="M296.032,86.213a.257.257,0,0,1-.131-.036,2.882,2.882,0,0,0-3.377-.028.255.255,0,1,1-.337-.383,3.4,3.4,0,0,1,3.975-.028.256.256,0,0,1-.131.475Z" transform="translate(-292.101 -85.127)" fill="#263238"/>
              </g>
              <g id="Group_17678" data-name="Group 17678" transform="translate(6.568 0.458)">
                <path id="Path_10325" data-name="Path 10325" d="M296.093,84.23a.254.254,0,0,1-.131-.036c-2.547-1.515-4.241-.088-4.311-.027a.255.255,0,0,1-.337-.384,4.2,4.2,0,0,1,4.909-.028.255.255,0,0,1-.131.475Z" transform="translate(-291.228 -82.998)" fill="#263238"/>
              </g>
              <g id="Group_17679" data-name="Group 17679" transform="translate(8.403 3.328)">
                <path id="Path_10326" data-name="Path 10326" d="M295.936,89a.64.64,0,1,1-.64-.64A.64.64,0,0,1,295.936,89Z" transform="translate(-294.655 -88.36)" fill="#263238"/>
              </g>
            </g>
          </g>
        </g>
      </g>
    </g>
    <g id="Gift_1" data-name="Gift 1" transform="translate(63.535 89.237)">
      <g id="Group_17688" data-name="Group 17688">
        <line id="Line_83" data-name="Line 83" x2="6.244" transform="translate(0 23.023)" fill="none" stroke="#263238" stroke-linecap="round" stroke-linejoin="round" stroke-width="1"/>
        <line id="Line_84" data-name="Line 84" x2="6.244" transform="translate(48.388 23.023)" fill="none" stroke="#263238" stroke-linecap="round" stroke-linejoin="round" stroke-width="1"/>
        <line id="Line_85" data-name="Line 85" x2="3.512" y2="2.732" transform="translate(6.244 6.634)" fill="none" stroke="#263238" stroke-linecap="round" stroke-linejoin="round" stroke-width="1"/>
        <line id="Line_86" data-name="Line 86" x1="3.512" y2="2.732" transform="translate(44.096 6.634)" fill="none" stroke="#263238" stroke-linecap="round" stroke-linejoin="round" stroke-width="1"/>
        <line id="Line_87" data-name="Line 87" x2="0.39" y2="5.853" transform="translate(20.292)" fill="none" stroke="#263238" stroke-linecap="round" stroke-linejoin="round" stroke-width="1"/>
        <line id="Line_88" data-name="Line 88" x1="0.78" y2="5.073" transform="translate(33.169 0.78)" fill="none" stroke="#263238" stroke-linecap="round" stroke-linejoin="round" stroke-width="1"/>
        <g id="Group_17687" data-name="Group 17687" transform="translate(9.111 11.124)">
          <rect id="Rectangle_2895" data-name="Rectangle 2895" width="33.693" height="29.077" transform="translate(0 4.589)" fill="#fff" stroke="#263238" stroke-linecap="round" stroke-linejoin="round" stroke-width="1"/>
          <rect id="Rectangle_2896" data-name="Rectangle 2896" width="6.355" height="29.077" transform="translate(6.158 4.589)" fill="#34c6c8" stroke="#263238" stroke-linecap="round" stroke-linejoin="round" stroke-width="1"/>
          <rect id="Rectangle_2897" data-name="Rectangle 2897" width="14.768" height="29.077" transform="translate(18.924 4.589)" fill="#fff" stroke="#263238" stroke-linecap="round" stroke-linejoin="round" stroke-width="1"/>
          <g id="Group_17686" data-name="Group 17686" transform="translate(3.027)">
            <path id="Path_10327" data-name="Path 10327" d="M127.538,110.5l-4.938-2.162a2.206,2.206,0,0,0-.366-.019l-.082-.037h-4.971l3.874,1.816a5.366,5.366,0,0,0,.125.811,2.57,2.57,0,0,0,1.762,1.691l.031.153h.5l.013,0,8.6.116S129.882,111.689,127.538,110.5Z" transform="translate(-116.096 -108.285)" fill="#34c6c8" stroke="#263238" stroke-linecap="round" stroke-linejoin="round" stroke-width="1"/>
            <g id="Group_17684" data-name="Group 17684" transform="translate(0 0.027)">
              <path id="Path_10328" data-name="Path 10328" d="M126.2,112.9s-5.372-2.885-8.256-4.154-3,.692-2.654,2.192,2.308,1.846,2.308,1.846Z" transform="translate(-115.154 -108.336)" fill="#34c6c8" stroke="#263238" stroke-linecap="round" stroke-linejoin="round" stroke-width="1"/>
            </g>
            <path id="Path_10329" data-name="Path 10329" d="M134.751,112.927H132.86a2.054,2.054,0,0,0-2.054,2.054h6A2.054,2.054,0,0,0,134.751,112.927Z" transform="translate(-122.426 -110.442)" fill="#34c6c8" stroke="#263238" stroke-linecap="round" stroke-linejoin="round" stroke-width="1"/>
            <g id="Group_17685" data-name="Group 17685" transform="translate(9.486 0.027)">
              <path id="Path_10330" data-name="Path 10330" d="M152,108.371h-4.369l-.569,2.162c-2.344,1.185-4.552,2.371-4.552,2.371l8.6-.116.013,0h.5l.031-.153a2.57,2.57,0,0,0,1.762-1.691C153.706,109.7,153.669,108.137,152,108.371Z" transform="translate(-137.35 -108.341)" fill="#34c6c8" stroke="#263238" stroke-linecap="round" stroke-linejoin="round" stroke-width="1"/>
              <path id="Path_10331" data-name="Path 10331" d="M132.873,112.9s5.372-2.885,8.256-4.154,3,.692,2.654,2.192-2.307,1.846-2.307,1.846Z" transform="translate(-132.873 -108.336)" fill="#34c6c8" stroke="#263238" stroke-linecap="round" stroke-linejoin="round" stroke-width="1"/>
            </g>
          </g>
        </g>
      </g>
    </g>
    <g id="Character" transform="translate(71.457 97.276)">
      <g id="Group_17699" data-name="Group 17699">
        <g id="Group_17698" data-name="Group 17698">
          <g id="Group_17689" data-name="Group 17689" transform="translate(0 33.535)">
            <path id="Path_10332" data-name="Path 10332" d="M109.568,172.681s-2.816-1.876-2.2-2.468,3.638.709,4.327,1.588.342,1.495-.226,1.549A5.49,5.49,0,0,1,109.568,172.681Z" transform="translate(-107.28 -167.44)" fill="#fff" stroke="#263238" stroke-linecap="round" stroke-linejoin="round" stroke-width="1"/>
            <path id="Path_10333" data-name="Path 10333" d="M112.972,170s-4.364-2.269-3.317-.175a12.638,12.638,0,0,0,4.713,4.538c1.047.524,6.808.35,6.808.35a7.214,7.214,0,0,0-2.094-2.444C118.034,171.748,112.972,170,112.972,170Z" transform="translate(-108.308 -166.918)" fill="#fff" stroke="#263238" stroke-linecap="round" stroke-linejoin="round" stroke-width="1"/>
            <path id="Path_10334" data-name="Path 10334" d="M118.662,169.014s-5.76-3.142-5.935-1.92,4.538,5.237,6.11,5.935a11.309,11.309,0,0,0,3.84.7Z" transform="translate(-109.808 -165.928)" fill="#fff" stroke="#263238" stroke-linecap="round" stroke-linejoin="round" stroke-width="1"/>
            <path id="Path_10335" data-name="Path 10335" d="M143.905,173.625s-2.094-4.888-3.666-5.586-15.711.7-15.711.7-6.808-5.586-6.284-2.793,4.888,6.11,6.11,6.983,10.3.524,10.3.524l2.793,2.618Z" transform="translate(-112.361 -165.162)" fill="#fff" stroke="#263238" stroke-linecap="round" stroke-linejoin="round" stroke-width="1"/>
          </g>
          <g id="Group_17693" data-name="Group 17693" transform="translate(105.068 5.638)">
            <path id="Path_10336" data-name="Path 10336" d="M326.42,194.019a2.946,2.946,0,0,0-.246,2.054,5.029,5.029,0,0,0,1.232,1.808l.411,2.547,5.588.247-2.3-8.545Z" transform="translate(-314.008 -149.795)" fill="#fff" stroke="#263238" stroke-linecap="round" stroke-linejoin="round" stroke-width="1"/>
            <g id="Group_17690" data-name="Group 17690" transform="translate(6.484 27.892)">
              <path id="Path_10337" data-name="Path 10337" d="M319.627,165.595s2.331,15.151,2.681,16.083,3.03,1.981,3.962,1.515-.7-2.681-.7-2.681l.466-14.568S322.075,164.429,319.627,165.595Z" transform="translate(-317.497 -165.154)" fill="#263238" stroke="#263238" stroke-linecap="round" stroke-linejoin="round" stroke-width="1"/>
              <path id="Path_10338" data-name="Path 10338" d="M328.832,174.863s-3.264-.233-3.38.35-.117,2.564.466,2.8a19.576,19.576,0,0,0,5.244.35,1.945,1.945,0,0,0,.816-2.681C331.279,174.63,328.832,174.863,328.832,174.863Z" transform="translate(-320.175 -169.644)" fill="#fff" stroke="#263238" stroke-linecap="round" stroke-linejoin="round" stroke-width="1"/>
              <path id="Path_10339" data-name="Path 10339" d="M329.185,181.841s-3.147,0-3.03.7-.233,2.214,1.049,2.447a15.534,15.534,0,0,0,4.661-.117,1.377,1.377,0,0,0,.583-2.447C331.516,181.608,329.185,181.841,329.185,181.841Z" transform="translate(-320.529 -172.893)" fill="#fff" stroke="#263238" stroke-linecap="round" stroke-linejoin="round" stroke-width="1"/>
              <path id="Path_10340" data-name="Path 10340" d="M319.248,181.064s-.4-2.938-1.349-2.855c-.706.062-2.4.592-2.241,1.886a15.528,15.528,0,0,0,1.481,4.422,1.377,1.377,0,0,0,2.51-.162C320.156,183.223,319.248,181.064,319.248,181.064Z" transform="translate(-315.649 -171.219)" fill="#fff" stroke="#263238" stroke-linecap="round" stroke-linejoin="round" stroke-width="1"/>
              <path id="Path_10341" data-name="Path 10341" d="M329.767,187.718s-2.847,0-2.742.672-.211,2.129.949,2.353a13.229,13.229,0,0,0,4.218-.112,1.351,1.351,0,0,0,.527-2.353C331.876,187.494,329.767,187.718,329.767,187.718Z" transform="translate(-320.933 -175.624)" fill="#fff" stroke="#263238" stroke-linecap="round" stroke-linejoin="round" stroke-width="1"/>
              <path id="Path_10342" data-name="Path 10342" d="M330.407,192.5s-2.382,0-2.293.562-.177,1.782.794,1.969a11.086,11.086,0,0,0,3.529-.094,1.131,1.131,0,0,0,.441-1.969C332.171,192.315,330.407,192.5,330.407,192.5Z" transform="translate(-321.439 -177.85)" fill="#fff" stroke="#263238" stroke-linecap="round" stroke-linejoin="round" stroke-width="1"/>
            </g>
            <g id="Group_17692" data-name="Group 17692" transform="translate(0 0)">
              <path id="Path_10343" data-name="Path 10343" d="M311.5,129.19a7.968,7.968,0,0,0-6.131,13.053,7.783,7.783,0,0,0,6.131,2.882c6.993-.43,25.322,9.386,25.322,9.386V119.8S318.758,129.333,311.5,129.19Z" transform="translate(-303.537 -116.189)" fill="#fff" stroke="#263238" stroke-linecap="round" stroke-linejoin="round" stroke-width="1"/>
              <g id="Group_17691" data-name="Group 17691" transform="translate(0 12.501)">
                <path id="Path_10344" data-name="Path 10344" d="M310.08,145.156a9.955,9.955,0,0,1,5.2-8.752,16.067,16.067,0,0,1-3.782.5,7.968,7.968,0,0,0-6.131,13.053,7.783,7.783,0,0,0,6.131,2.882,11.4,11.4,0,0,1,2.421.163A9.932,9.932,0,0,1,310.08,145.156Z" transform="translate(-303.537 -136.404)" fill="#34c6c8" stroke="#263238" stroke-linecap="round" stroke-linejoin="round" stroke-width="1"/>
              </g>
              <circle id="Ellipse_1308" data-name="Ellipse 1308" cx="17.356" cy="17.356" r="17.356" transform="matrix(0.237, -0.972, 0.972, 0.237, 12.32, 33.726)" fill="#fff" stroke="#263238" stroke-linecap="round" stroke-linejoin="round" stroke-width="1"/>
              <path id="Path_10345" data-name="Path 10345" d="M367.67,139.383a14.794,14.794,0,1,1-14.794-14.794A14.794,14.794,0,0,1,367.67,139.383Z" transform="translate(-319.591 -118.413)" fill="#a6a6a6" stroke="#263238" stroke-linecap="round" stroke-linejoin="round" stroke-width="1"/>
              <path id="Path_10346" data-name="Path 10346" d="M352.877,143.563v7.226l-11.384,5.832a14.818,14.818,0,0,1-2.221-15.254Z" transform="translate(-319.591 -126.209)" fill="#fff" stroke="#263238" stroke-linecap="round" stroke-linejoin="round" stroke-width="1"/>
              <path id="Path_10347" data-name="Path 10347" d="M366.193,149.084a3.613,3.613,0,1,1-3.613-3.613A3.613,3.613,0,0,1,366.193,149.084Z" transform="translate(-329.292 -128.116)" fill="#fff" stroke="#263238" stroke-linecap="round" stroke-linejoin="round" stroke-width="1"/>
            </g>
          </g>
          <g id="Group_17694" data-name="Group 17694" transform="translate(22.908 38.6)">
            <path id="Path_10348" data-name="Path 10348" d="M326.642,205.148l-.577-2.425,7.505-.924-.169,3.368Z" transform="translate(-231.844 -187.251)" fill="#fff" stroke="#263238" stroke-linecap="round" stroke-linejoin="round" stroke-width="1"/>
            <path id="Path_10349" data-name="Path 10349" d="M151.8,181.437l-1.732-2.771,7.967-4.041.669,3.4Z" transform="translate(-150.069 -174.624)" fill="#fff" stroke="#263238" stroke-linecap="round" stroke-linejoin="round" stroke-width="1"/>
            <path id="Path_10350" data-name="Path 10350" d="M200.658,178.3s-12.8-1.422-13.941-.853-17.356,19.774-17.356,19.774L159.4,177.3,151.01,181s10.527,35.849,12.234,36.276,17.924-10.385,17.924-10.385l-1,14.226a20.388,20.388,0,0,0,16.218,14.226c13.23,2.276,21.054-7.966,22.761-11.381a69.514,69.514,0,0,0,3.272-8.393l6.117-18.067s17.213,14.084,21.054,15.791,7.4,3.272,7.824,2.418-3.841-23.615-3.841-23.615l-9.1.427.427,3.556s-11.807-15.506-12.8-17.071-3.983-1.281-7.54-2.276S200.658,178.3,200.658,178.3Z" transform="translate(-150.506 -175.497)" fill="#34c6c8" stroke="#263238" stroke-linecap="round" stroke-linejoin="round" stroke-width="1"/>
            <line id="Line_89" data-name="Line 89" y1="7.113" x2="9.531" transform="translate(30.662 24.282)" fill="none" stroke="#263238" stroke-linecap="round" stroke-linejoin="round" stroke-width="1"/>
            <line id="Line_90" data-name="Line 90" y1="0.854" x2="4.837" transform="translate(36.779 26.131)" fill="none" stroke="#263238" stroke-linecap="round" stroke-linejoin="round" stroke-width="1"/>
            <line id="Line_91" data-name="Line 91" y1="11.523" x2="3.272" transform="translate(78.034 10.483)" fill="none" stroke="#263238" stroke-linecap="round" stroke-linejoin="round" stroke-width="1"/>
            <line id="Line_92" data-name="Line 92" y1="4.979" x2="3.556" transform="translate(79.315 13.328)" fill="none" stroke="#263238" stroke-linecap="round" stroke-linejoin="round" stroke-width="1"/>
            <line id="Line_93" data-name="Line 93" x2="0.144" y2="2.813" transform="translate(94.819 28.866)" fill="none" stroke="#263238" stroke-linecap="round" stroke-linejoin="round" stroke-width="1"/>
            <line id="Line_94" data-name="Line 94" x2="0.26" y2="5.07" transform="translate(94.394 20.583)" fill="none" stroke="#263238" stroke-linecap="round" stroke-linejoin="round" stroke-width="1"/>
            <line id="Line_95" data-name="Line 95" x2="2.987" y2="6.259" transform="translate(18.855 21.721)" fill="none" stroke="#263238" stroke-linecap="round" stroke-linejoin="round" stroke-width="1"/>
          </g>
          <path id="Path_10351" data-name="Path 10351" d="M242.782,175.679l-6.259,1.138a12.986,12.986,0,0,0-3.556,6.117,51.624,51.624,0,0,0-1.707,7.967l5.406.284-4.268,4.268s1.281,1.85,3.984,5.833a84.954,84.954,0,0,0,6.97,8.535l-7.966,10.243s9.673-2.134,15.648-8.678,9.532-16.36,9.532-16.36l-4.695-3.7,4.979-1s1-8.109-4.267-13.372S242.782,175.679,242.782,175.679Z" transform="translate(-164.886 -135.843)" fill="#34c6c8" stroke="#263238" stroke-linecap="round" stroke-linejoin="round" stroke-width="1"/>
          <g id="Group_17695" data-name="Group 17695" transform="translate(74.696 39.551)">
            <path id="Path_10352" data-name="Path 10352" d="M264.091,180.1a25.535,25.535,0,0,0-1.992,9.388c-.259,4.765-2.759,10.836-4.965,15.131-1.751,3.415-3.317,5.71-3.429,5.357a32.028,32.028,0,0,1-2.4-5.778c-.357-1.033-.744-2.231-1.16-3.615-2.133-7.113-3.982-18.634-3.131-20.909a25.7,25.7,0,0,1,1.424-3.273C255.27,185.647,264.091,180.1,264.091,180.1Z" transform="translate(-246.805 -176.401)" fill="#fff" stroke="#263238" stroke-linecap="round" stroke-linejoin="round" stroke-width="1"/>
            <path id="Path_10353" data-name="Path 10353" d="M259.32,213.665l1.722,5.029c-1.751,3.415-3.316,5.71-3.429,5.357a32.027,32.027,0,0,1-2.4-5.778l2.4-4.325-2.378-4.447,2.8-2.808,3.84,3.84Z" transform="translate(-250.713 -190.476)" fill="#263238" stroke="#263238" stroke-linecap="round" stroke-linejoin="round" stroke-width="1"/>
            <path id="Path_10354" data-name="Path 10354" d="M251.719,211.53l4.695-4.837,5.719,5.393" transform="translate(-249.089 -190.476)" fill="none" stroke="#263238" stroke-linecap="round" stroke-linejoin="round" stroke-width="1"/>
            <path id="Path_10355" data-name="Path 10355" d="M249.859,176.4a29.566,29.566,0,0,0,1.707,8.393,46.419,46.419,0,0,0,3.983,7.824l6.686-9.532S254.98,183.8,249.859,176.4Z" transform="translate(-248.224 -176.401)" fill="none" stroke="#263238" stroke-linecap="round" stroke-linejoin="round" stroke-width="1"/>
          </g>
          <g id="Group_17697" data-name="Group 17697" transform="translate(65.534)">
            <path id="Path_10356" data-name="Path 10356" d="M287.871,148.235s2.031-.321,2.031,2.458a23.065,23.065,0,0,1-1.176,6.2Z" transform="translate(-256.724 -123.757)" fill="#fff" stroke="#263238" stroke-linecap="round" stroke-linejoin="round" stroke-width="1"/>
            <g id="Group_17696" data-name="Group 17696">
              <path id="Path_10357" data-name="Path 10357" d="M262.473,126.739s1.423,12.946,1.565,16.786-.284,7.255-1.565,8.962-6.4,8.536-9.1,8.82a10.292,10.292,0,0,1-6.828-2.134c-1.138-1-6.544-9.531-6.544-9.531s-4.126-.285-5.121-5.69,4.552-4.125,4.552-4.125-2.987-4.695-3.272-9.247-1.138-6.259,11.1-6.544S262.473,126.739,262.473,126.739Z" transform="translate(-232.044 -112.51)" fill="#fff" stroke="#263238" stroke-linecap="round" stroke-linejoin="round" stroke-width="1"/>
              <path id="Path_10358" data-name="Path 10358" d="M272.967,146.108l3.414,11.807-5.264-1.565" transform="translate(-248.939 -122.774)" fill="none" stroke="#263238" stroke-linecap="round" stroke-linejoin="round" stroke-width="1"/>
              <line id="Line_96" data-name="Line 96" x1="4.126" y2="0.854" transform="translate(12.789 32.154)" fill="none" stroke="#263238" stroke-linecap="round" stroke-linejoin="round" stroke-width="1"/>
              <path id="Path_10359" data-name="Path 10359" d="M257.565,163.912a6.686,6.686,0,0,0,5.548,4.552c4.552.712,6.828-.142,6.828-.142" transform="translate(-242.642 -131.047)" fill="none" stroke="#263238" stroke-linecap="round" stroke-linejoin="round" stroke-width="1"/>
              <path id="Path_10360" data-name="Path 10360" d="M259.69,168.163s-.142,7.113,2.418,7.4,1.992-5.121,1.992-5.121A11.73,11.73,0,0,1,259.69,168.163Z" transform="translate(-243.629 -133.022)" fill="#263238" stroke="#263238" stroke-linecap="round" stroke-linejoin="round" stroke-width="1"/>
              <path id="Path_10361" data-name="Path 10361" d="M260.671,177.35c.35,1.3.93,2.372,1.894,2.479a1.356,1.356,0,0,0,1.283-.532C263.354,178.422,261.636,177.7,260.671,177.35Z" transform="translate(-244.086 -137.29)" fill="#fff" stroke="#263238" stroke-linecap="round" stroke-linejoin="round" stroke-width="1"/>
              <path id="Path_10362" data-name="Path 10362" d="M261.655,150.985c0,.786-.351,1.422-.783,1.422s-.782-.637-.782-1.422.35-1.422.782-1.422S261.655,150.2,261.655,150.985Z" transform="translate(-243.816 -124.379)" fill="#263238"/>
              <path id="Path_10363" data-name="Path 10363" d="M279.458,148.593c0,.786-.35,1.423-.782,1.423s-.783-.637-.783-1.423.351-1.422.783-1.422S279.458,147.808,279.458,148.593Z" transform="translate(-252.088 -123.268)" fill="#263238"/>
              <path id="Path_10364" data-name="Path 10364" d="M256.768,145.931a6.042,6.042,0,0,1,5.406-1.992" transform="translate(-242.272 -121.743)" fill="none" stroke="#263238" stroke-linecap="round" stroke-linejoin="round" stroke-width="1"/>
              <path id="Path_10365" data-name="Path 10365" d="M275.369,141.023s1.849-3.415,4.837-1.707" transform="translate(-250.915 -119.396)" fill="none" stroke="#263238" stroke-linecap="round" stroke-linejoin="round" stroke-width="1"/>
              <path id="Path_10366" data-name="Path 10366" d="M245.041,117.036s-4.41-.711-3.415.569,3.272,2.845,2.134,3.841-3.983,2.7-3.841,3.556.427,4.41,0,5.264a2.149,2.149,0,0,1-2.418.853c-1-.142-2.418-2.7-2.987-3.414s-5.69-5.833-4.695-9.958,11.665-7.4,11.665-7.4,6.828-7.682,11.381-7.824,2.845,4.125,2.7,4.553,6.544-.427,7.824,3.7.853,5.264-4.979,6.829S245.041,117.036,245.041,117.036Z" transform="translate(-229.691 -102.523)" fill="#263238" stroke="#263238" stroke-linecap="round" stroke-linejoin="round" stroke-width="1"/>
            </g>
          </g>
        </g>
        <path id="Path_10367" data-name="Path 10367" d="M412.268,119.022l-11.6,3,2.4,1.2-6.6,2,13.394-1.8-3.4-1.6Z" transform="translate(-241.652 -110.189)" fill="#263238"/>
        <path id="Path_10368" data-name="Path 10368" d="M415.746,169.643l-11.728-2.428,1.623,2.135-6.8-1.118,12.813,4.3-2.343-2.935Z" transform="translate(-242.75 -132.582)" fill="#263238"/>
        <path id="Path_10369" data-name="Path 10369" d="M393.8,201.054l-9.875-6.776.67,2.6-5.84-3.663,10.152,8.921-1.025-3.613Z" transform="translate(-233.42 -144.66)" fill="#263238"/>
      </g>
    </g>
  </g>
</svg>
