<svg xmlns="http://www.w3.org/2000/svg" xmlns:xlink="http://www.w3.org/1999/xlink" width="375.514" height="326.806" viewBox="0 0 375.514 326.806">
  <defs>
    <clipPath id="clip-path">
      <rect x="39" width="375.514" height="229.678" fill="none"/>
    </clipPath>
  </defs>
  <g id="Group_17823" data-name="Group 17823" transform="translate(0 -146)">
    <g id="Group_17822" data-name="Group 17822">
      <g id="Group_17484" data-name="Group 17484" transform="translate(38.227 146)">
        <g id="Background_Complete" data-name="Background Complete" transform="translate(40.433 14.265)" opacity="0.18">
          <g id="Group_17304" data-name="Group 17304" transform="translate(0 0)">
            <g id="Group_17266" data-name="Group 17266" transform="translate(194.859 64.794)">
              <g id="Group_17244" data-name="Group 17244" transform="translate(0)">
                <g id="Group_17243" data-name="Group 17243">
                  <path id="Path_10084" data-name="Path 10084" d="M119.114,191.94s2.891-2.368,7.431,4.663a96.871,96.871,0,0,1,6.41,11.161s1.158,1.452,2.121.327,2.131-4.157,4-3.824c1.937.346,2.772,2.382,2.729,5.506s.114,9.968.131,10.587.453,1.461,1.232.8,5.051-6.525,7.712-4.331,1.112,10.874.961,11.827.071,1.329.535,1.514,1.714-1.922,3-3.54,3.055-3.269,4.484-1.874,2.484,7.68-2.486,18.575l-2.633,4.9-5.579.26c-11.974-.171-17.2-3.815-17.852-5.7s1.6-2.783,3.613-3.25,4.45-.7,4.482-1.194-.214-.86-1.14-1.131-9.433-2.586-10.277-5.929,6.284-4.7,7.215-5.117.347-1.181-.2-1.455-6.672-3.352-9.513-4.65-4.325-2.924-3.808-4.822c.5-1.831,3.738-1.588,5.167-1.978s.613-2.057.613-2.057a96.855,96.855,0,0,1-7.345-10.57c-4.411-7.112-.941-8.734-.941-8.734" transform="translate(-117.879 -191.557)" fill="#34c6c8"/>
                </g>
              </g>
              <g id="Group_17247" data-name="Group 17247" transform="translate(5.312 6.673)">
                <g id="Group_17246" data-name="Group 17246">
                  <g id="Group_17245" data-name="Group 17245">
                    <path id="Path_10085" data-name="Path 10085" d="M160.708,255.374c-3.26-5.21-9.211-14.373-14.278-22.267s-9.646-15.039-12.932-20.232l-3.886-6.154-1.058-1.672-.278-.433c-.064-.1-.1-.144-.1-.144s.026.054.085.154l.264.442,1.03,1.69c.9,1.467,2.208,3.58,3.839,6.184,3.26,5.21,7.824,12.369,12.89,20.26s11.034,17.045,14.32,22.238" transform="translate(-128.176 -204.471)" fill="#34c6c8"/>
                  </g>
                </g>
              </g>
              <g id="Group_17250" data-name="Group 17250" transform="translate(18.253 17.017)">
                <g id="Group_17249" data-name="Group 17249" transform="translate(0)">
                  <g id="Group_17248" data-name="Group 17248">
                    <path id="Path_10086" data-name="Path 10086" d="M164.7,224.492a1.784,1.784,0,0,0-.1.39c-.055.253-.124.621-.205,1.075-.16.91-.349,2.173-.532,3.57-.176,1.378-.335,2.624-.456,3.577-.057.429-.106.792-.145,1.083a1.836,1.836,0,0,0-.038.4,1.774,1.774,0,0,0,.1-.389c.054-.253.124-.621.2-1.076.151-.912.323-2.176.506-3.573.186-1.376.353-2.621.482-3.573.059-.429.11-.792.15-1.083A1.846,1.846,0,0,0,164.7,224.492Z" transform="translate(-163.218 -224.492)" fill="#34c6c8"/>
                  </g>
                </g>
              </g>
              <g id="Group_17253" data-name="Group 17253" transform="translate(6.179 25.177)">
                <g id="Group_17252" data-name="Group 17252">
                  <g id="Group_17251" data-name="Group 17251">
                    <path id="Path_10087" data-name="Path 10087" d="M178.63,242.371c.008-.047-2.578-.551-5.775-1.126s-5.8-1-5.806-.956,2.577.551,5.775,1.126S178.621,242.418,178.63,242.371Z" transform="translate(-167.049 -240.285)" fill="#34c6c8"/>
                  </g>
                </g>
              </g>
              <g id="Group_17256" data-name="Group 17256" transform="translate(15.701 39.026)">
                <g id="Group_17255" data-name="Group 17255">
                  <g id="Group_17254" data-name="Group 17254">
                    <path id="Path_10088" data-name="Path 10088" d="M161.318,267.094a1.946,1.946,0,0,0-.41.023l-1.11.118c-.937.1-2.231.227-3.664.318s-2.734.134-3.676.155l-1.116.026a1.892,1.892,0,0,0-.41.029,1.879,1.879,0,0,0,.409.038c.264.013.645.024,1.117.028.943.01,2.248-.011,3.686-.1s2.734-.24,3.668-.369c.467-.067.845-.125,1.1-.172A1.855,1.855,0,0,0,161.318,267.094Z" transform="translate(-150.932 -267.09)" fill="#34c6c8"/>
                  </g>
                </g>
              </g>
              <g id="Group_17259" data-name="Group 17259" transform="translate(25.988 30.157)">
                <g id="Group_17258" data-name="Group 17258" transform="translate(0)">
                  <g id="Group_17257" data-name="Group 17257">
                    <path id="Path_10089" data-name="Path 10089" d="M147.449,249.925a1.6,1.6,0,0,0-.185.332l-.445.931c-.369.789-.869,1.884-1.41,3.1s-1.024,2.317-1.365,3.118l-.4.953a1.575,1.575,0,0,0-.123.359,1.623,1.623,0,0,0,.184-.332l.446-.931c.369-.789.869-1.884,1.411-3.1s1.024-2.316,1.364-3.118c.156-.375.288-.694.4-.953A1.615,1.615,0,0,0,147.449,249.925Z" transform="translate(-143.524 -249.925)" fill="#34c6c8"/>
                  </g>
                </g>
              </g>
              <g id="Group_17262" data-name="Group 17262" transform="translate(33.447 39.613)">
                <g id="Group_17261" data-name="Group 17261" transform="translate(0)">
                  <g id="Group_17260" data-name="Group 17260">
                    <path id="Path_10090" data-name="Path 10090" d="M131.879,268.226a2.619,2.619,0,0,0-.233.426l-.576,1.191c-.479,1.009-1.13,2.406-1.839,3.955s-1.343,2.955-1.793,3.977l-.525,1.214a2.63,2.63,0,0,0-.171.454,2.566,2.566,0,0,0,.232-.426l.576-1.19c.479-1.009,1.13-2.407,1.839-3.956s1.342-2.955,1.793-3.976l.525-1.213A2.622,2.622,0,0,0,131.879,268.226Z" transform="translate(-126.741 -268.226)" fill="#34c6c8"/>
                  </g>
                </g>
              </g>
              <g id="Group_17265" data-name="Group 17265" transform="translate(20.297 50.521)">
                <g id="Group_17264" data-name="Group 17264">
                  <g id="Group_17263" data-name="Group 17263">
                    <path id="Path_10091" data-name="Path 10091" d="M149.792,289.344a2.985,2.985,0,0,0-.52.016l-1.412.1c-1.192.082-2.84.188-4.662.254s-3.473.088-4.668.093l-1.416.007a2.978,2.978,0,0,0-.52.023,3.031,3.031,0,0,0,.518.044c.334.018.818.036,1.416.048,1.2.026,2.851.026,4.676-.042s3.474-.192,4.665-.305c.6-.058,1.077-.11,1.409-.153A3.114,3.114,0,0,0,149.792,289.344Z" transform="translate(-136.594 -289.338)" fill="#34c6c8"/>
                  </g>
                </g>
              </g>
            </g>
            <g id="Group_17273" data-name="Group 17273" transform="translate(241.614 66.426)">
              <g id="Group_17271" data-name="Group 17271" transform="translate(0)">
                <g id="Group_17268" data-name="Group 17268">
                  <g id="Group_17267" data-name="Group 17267">
                    <path id="Path_10092" data-name="Path 10092" d="M41.793,213.172a14.874,14.874,0,0,0,.144,2.547,18.524,18.524,0,0,0,2.322,6.837l.054-.094H44.2l.053.094,14.472,25.665.091.161.1-.157,15.3-24.4.752-1.2.117-.187h-.221l.1.182a18.754,18.754,0,0,0,2.305-6.447,17.849,17.849,0,0,0,.229-3.354q-.046-.833-.09-1.66-.124-.819-.246-1.631a18.815,18.815,0,0,0-6.245-10.678,18.1,18.1,0,0,0-5.033-2.958l-.665-.248-.331-.123-.339-.09-1.349-.351a18.809,18.809,0,0,0-2.7-.327,18.131,18.131,0,0,0-2.623.047c-.428.034-.846.127-1.263.186l-.622.1c-.2.043-.4.1-.6.156l-1.184.321-1.123.428c-.184.073-.371.136-.55.216l-.522.261-1.024.518a18.547,18.547,0,0,0-5.943,5.486,18.886,18.886,0,0,0-2.589,5.54A16.769,16.769,0,0,0,42,210.2a12.1,12.1,0,0,0-.173,1.628q-.022.655-.035,1.006c-.007.226,0,.342,0,.342s.013-.116.028-.342.033-.567.059-1a12.489,12.489,0,0,1,.2-1.62,17.026,17.026,0,0,1,.475-2.174,18.938,18.938,0,0,1,2.61-5.489,18.459,18.459,0,0,1,5.916-5.414l1.016-.509.518-.258c.177-.078.363-.14.545-.211l1.112-.421,1.173-.313c.2-.05.395-.111.6-.153l.615-.1c.413-.057.826-.148,1.249-.18a17.888,17.888,0,0,1,2.594-.04,18.656,18.656,0,0,1,2.664.329l1.331.35.335.09.327.122.657.246a17.919,17.919,0,0,1,4.966,2.931,18.609,18.609,0,0,1,6.156,10.553q.12.8.242,1.61.044.817.088,1.64a17.618,17.618,0,0,1-.228,3.312,18.526,18.526,0,0,1-2.277,6.362l-.107.183h.213l-.1-.185-.752,1.2L58.729,248.108l.189,0L44.363,222.494l-.054.093h.113l-.055-.094A18.718,18.718,0,0,1,42,215.71c-.119-.824-.153-1.461-.18-1.888-.008-.209-.013-.369-.018-.485S41.793,213.172,41.793,213.172Z" transform="translate(-41.785 -194.715)" fill="#34c6c8"/>
                  </g>
                </g>
                <g id="Group_17270" data-name="Group 17270" transform="translate(6.496 6.824)">
                  <g id="Group_17269" data-name="Group 17269">
                    <path id="Path_10093" data-name="Path 10093" d="M54.344,219.352a1.041,1.041,0,0,0,.021-.183c.009-.133.022-.311.038-.536.008-.119.016-.251.025-.395s.047-.3.073-.472a8.255,8.255,0,0,1,.236-1.165,10.8,10.8,0,0,1,1.25-2.994A11.21,11.21,0,0,1,69.44,208.8a10.254,10.254,0,0,1,2.836,1.518,10.245,10.245,0,0,1,2.372,2.371,10.849,10.849,0,0,1,1.607,3.079,11.095,11.095,0,0,1,.019,7.06,10.839,10.839,0,0,1-1.591,3.088,10.218,10.218,0,0,1-2.36,2.384,10.283,10.283,0,0,1-2.828,1.532,11.24,11.24,0,0,1-13.478-4.743,10.8,10.8,0,0,1-1.264-2.987,8.273,8.273,0,0,1-.242-1.164c-.026-.171-.058-.327-.075-.471l-.027-.395c-.017-.226-.03-.4-.04-.536a1.023,1.023,0,0,0-.022-.183,1.07,1.07,0,0,0,0,.183c0,.133.01.312.017.538l.015.4c.013.145.041.3.064.475a8.036,8.036,0,0,0,.222,1.176,10.693,10.693,0,0,0,1.24,3.033,11.381,11.381,0,0,0,7.676,5.379,11.424,11.424,0,0,0,5.995-.5,10.5,10.5,0,0,0,2.89-1.556,10.454,10.454,0,0,0,2.413-2.429A11.062,11.062,0,0,0,76.5,222.9a11.313,11.313,0,0,0-.019-7.213,11.057,11.057,0,0,0-1.645-3.143,10.454,10.454,0,0,0-2.425-2.417,10.5,10.5,0,0,0-2.9-1.541,11.425,11.425,0,0,0-6-.466,11.386,11.386,0,0,0-7.649,5.417,10.713,10.713,0,0,0-1.225,3.04,7.97,7.97,0,0,0-.216,1.178c-.022.172-.05.33-.061.475s-.009.278-.013.4c-.006.227-.01.406-.014.539A1.048,1.048,0,0,0,54.344,219.352Z" transform="translate(-54.34 -207.923)" fill="#34c6c8"/>
                  </g>
                </g>
              </g>
              <g id="Group_17272" data-name="Group 17272" transform="translate(10.699 12.467)">
                <path id="Path_10094" data-name="Path 10094" d="M70.639,229.9l6.573-4.586-1.6-2.294L71.2,226.09l-5.7-7.246-2.2,1.73Z" transform="translate(-63.304 -218.845)" fill="#34c6c8"/>
              </g>
            </g>
            <g id="Group_17281" data-name="Group 17281" transform="translate(51.701)">
              <g id="Group_17280" data-name="Group 17280">
                <g id="Group_17279" data-name="Group 17279">
                  <g id="Group_17278" data-name="Group 17278">
                    <g id="Group_17277" data-name="Group 17277">
                      <g id="Group_17276" data-name="Group 17276">
                        <g id="Group_17275" data-name="Group 17275">
                          <g id="Group_17274" data-name="Group 17274">
                            <path id="Path_10095" data-name="Path 10095" d="M399.087,71.171a21.764,21.764,0,0,0-5.591,1.477l-4.11-3.444-7.059,5.373,2.224,4.879a21.725,21.725,0,0,0-2.914,5l-5.339.47-1.192,8.791,5.02,1.877a21.677,21.677,0,0,0,1.478,5.592l-3.444,4.11,5.372,7.059,4.879-2.224a21.746,21.746,0,0,0,5,2.912l.469,5.339,8.792,1.194,1.876-5.021a21.7,21.7,0,0,0,5.591-1.477l4.111,3.445,7.059-5.373-2.225-4.879a21.771,21.771,0,0,0,2.914-5l5.338-.471,1.193-8.791-5.021-1.876a21.678,21.678,0,0,0-1.477-5.592l3.445-4.11L420.1,73.371l-4.879,2.224a21.726,21.726,0,0,0-5-2.913l-.47-5.339-8.79-1.193-1.878,5.021Zm2.637,12.122a9.518,9.518,0,1,1-9.559,7.28A9.521,9.521,0,0,1,401.724,83.293Z" transform="translate(-375.107 -66.15)" fill="#34c6c8" fill-rule="evenodd"/>
                          </g>
                        </g>
                      </g>
                    </g>
                  </g>
                </g>
              </g>
            </g>
            <g id="Group_17289" data-name="Group 17289" transform="translate(140.167 29.867)">
              <g id="Group_17288" data-name="Group 17288" transform="translate(0)">
                <g id="Group_17287" data-name="Group 17287">
                  <g id="Group_17286" data-name="Group 17286">
                    <g id="Group_17285" data-name="Group 17285">
                      <g id="Group_17284" data-name="Group 17284">
                        <g id="Group_17283" data-name="Group 17283">
                          <g id="Group_17282" data-name="Group 17282">
                            <path id="Path_10096" data-name="Path 10096" d="M255.727,127.216a14.122,14.122,0,0,0-3.63.958l-2.668-2.236-4.582,3.488,1.444,3.167a14.124,14.124,0,0,0-1.891,3.243l-3.466.305-.773,5.706,3.259,1.218a14.072,14.072,0,0,0,.959,3.63l-2.236,2.668,3.487,4.582L248.8,152.5a14.136,14.136,0,0,0,3.244,1.891l.3,3.466,5.707.775,1.218-3.259a14.081,14.081,0,0,0,3.63-.959l2.668,2.236,4.582-3.488L268.706,150a14.145,14.145,0,0,0,1.891-3.243l3.465-.306.775-5.706-3.259-1.218a14.059,14.059,0,0,0-.959-3.63l2.236-2.668-3.487-4.582-3.168,1.444a14.112,14.112,0,0,0-3.243-1.892l-.305-3.465-5.706-.774-1.218,3.259Zm1.711,7.869a6.179,6.179,0,1,1-6.205,4.725A6.18,6.18,0,0,1,257.438,135.085Z" transform="translate(-240.16 -123.957)" fill="#34c6c8" fill-rule="evenodd"/>
                          </g>
                        </g>
                      </g>
                    </g>
                  </g>
                </g>
              </g>
            </g>
            <g id="Group_17300" data-name="Group 17300" transform="translate(84.983 55.301)">
              <g id="Group_17294" data-name="Group 17294" transform="translate(17.482 18.156)">
                <g id="Group_17293" data-name="Group 17293">
                  <g id="Group_17292" data-name="Group 17292">
                    <g id="Group_17291" data-name="Group 17291">
                      <g id="Group_17290" data-name="Group 17290">
                        <path id="Path_10097" data-name="Path 10097" d="M346.077,209.7a7.545,7.545,0,0,0-2.063,1.364,9.937,9.937,0,0,0-3.2,5.879,10.062,10.062,0,0,0,.353,4.685,10.216,10.216,0,0,0,2.95,4.514,10.222,10.222,0,0,0,5.415,2.475,10.184,10.184,0,0,0,10.638-5.835,10.224,10.224,0,0,0,.823-5.9,10.222,10.222,0,0,0-2.222-4.915,10.068,10.068,0,0,0-3.761-2.815,9.94,9.94,0,0,0-6.676-.461,7.547,7.547,0,0,0-2.259,1.006c.029.065.79-.409,2.315-.791a9.951,9.951,0,0,1,6.456.616,9.752,9.752,0,0,1,5.626,7.44,9.751,9.751,0,0,1-.81,5.581,9.672,9.672,0,0,1-10.055,5.516,9.754,9.754,0,0,1-5.14-2.316A9.754,9.754,0,0,1,341.216,217a9.949,9.949,0,0,1,2.95-5.776C345.307,210.147,346.115,209.76,346.077,209.7Z" transform="translate(-340.689 -208.322)" fill="#34c6c8"/>
                      </g>
                    </g>
                  </g>
                </g>
              </g>
              <g id="Group_17299" data-name="Group 17299">
                <g id="Group_17298" data-name="Group 17298">
                  <g id="Group_17297" data-name="Group 17297">
                    <g id="Group_17296" data-name="Group 17296">
                      <g id="Group_17295" data-name="Group 17295">
                        <path id="Path_10098" data-name="Path 10098" d="M317.492,184.671a2.143,2.143,0,0,0-.076-.342l-.271-1.03-1.111-4.058-.044.1,8.185-4.428-.179-.031,3.709,4.225.067.076.1-.024a22.76,22.76,0,0,1,5.986-.633l.114,0,.056-.1,2.743-4.911-.236.1,8.927,2.625-.162-.23c-.11,1.738-.23,3.652-.353,5.614l-.009.143.123.074a22.636,22.636,0,0,1,4.676,3.763l.1.109.145-.041,5.407-1.54-.294-.123,4.466,8.165.057-.328-4.214,3.722-.123.109.039.161a22.706,22.706,0,0,1,.645,5.959l0,.167.147.082,4.918,2.732-.133-.324-2.608,8.933.291-.2-5.615-.344-.173-.01-.089.148a22.559,22.559,0,0,1-3.744,4.669l0,0h0c-.035.128.077-.285-.079.287l0,.005,0,.011.006.021.012.042.024.085.049.171.1.34.195.679.389,1.356.772,2.694.137-.33-8.159,4.478.349.06-3.727-4.209-.113-.128-.165.041a22.547,22.547,0,0,1-5.957.655l-.168,0-.081.147-2.725,4.921.315-.13-8.935-2.6.189.269q.171-2.857.336-5.615l.009-.156-.133-.08a22.584,22.584,0,0,1-4.686-3.746l-.1-.109-.144.041-5.4,1.557.274.115-4.493-8.15-.047.27,4.2-3.737.093-.083-.03-.12a22.7,22.7,0,0,1-.669-5.977l0-.115-.1-.055-4.928-2.712.08.2,2.565-8.946-.131.092,5.616.306.056,0,.028-.048a23.622,23.622,0,0,1,2.7-3.674l.767-.828a2.331,2.331,0,0,0,.252-.277,2.911,2.911,0,0,0-.286.244c-.181.171-.456.43-.8.8a22.066,22.066,0,0,0-2.786,3.643l.085-.044-5.612-.379-.1-.007-.029.1-2.643,8.922-.038.13.119.066,4.909,2.745-.1-.169a23,23,0,0,0,.646,6.085l.063-.2-4.22,3.716-.131.116.084.154,4.46,8.168.091.166.183-.052,5.407-1.538-.248-.068a23.036,23.036,0,0,0,4.78,3.845l-.124-.235-.349,5.614-.013.21.2.059,8.93,2.613.209.061.106-.191,2.733-4.916-.249.142a23.059,23.059,0,0,0,6.105-.663l-.277-.086,3.724,4.212.15.17.2-.109,8.161-4.474.2-.11-.063-.22-.772-2.7-.388-1.355-.195-.679-.1-.341-.049-.17-.024-.085-.012-.042-.006-.021,0-.011,0-.005c-.156.571-.043.158-.077.285h0l0,0a23.1,23.1,0,0,0,3.839-4.789l-.262.137,5.615.342.227.013.064-.218,2.6-8.935.063-.215-.2-.109-4.921-2.725.143.249a23.208,23.208,0,0,0-.671-6.1l-.084.269,4.206-3.73.16-.142-.1-.186-4.486-8.154-.1-.179-.2.056-5.4,1.556.246.067a23.045,23.045,0,0,0-4.79-3.828l.114.216c.116-1.962.229-3.877.331-5.615l.011-.18-.173-.05-8.939-2.583-.158-.045-.078.142-2.715,4.927.169-.1a23.027,23.027,0,0,0-6.076.684l.166.052-3.743-4.2-.078-.087-.1.056-8.132,4.522-.065.036.021.069c.518,1.733.917,3.07,1.194,4,.135.439.24.778.318,1.031A2.658,2.658,0,0,0,317.492,184.671Z" transform="translate(-305.277 -173.182)" fill="#34c6c8"/>
                      </g>
                    </g>
                  </g>
                </g>
              </g>
            </g>
            <g id="Group_17303" data-name="Group 17303" transform="translate(0 43.346)">
              <g id="Group_17301" data-name="Group 17301" transform="translate(50.441)">
                <path id="Path_10099" data-name="Path 10099" d="M441.97,182.831l8.108-32.242-32.988-.545Z" transform="translate(-417.09 -150.044)" fill="#34c6c8"/>
              </g>
              <g id="Group_17302" data-name="Group 17302" transform="translate(0 6.264)">
                <rect id="Rectangle_2621" data-name="Rectangle 2621" width="18.745" height="75.806" transform="matrix(-0.604, -0.797, 0.797, -0.604, 11.332, 60.758)" fill="#34c6c8"/>
              </g>
            </g>
          </g>
        </g>
        <g id="Character" transform="translate(7.338 27.296)">
          <g id="Group_17457" data-name="Group 17457" transform="translate(0 0)">
            <path id="Path_10100" data-name="Path 10100" d="M555.51,369.514l-4.19,9.5s8.25,7.45,7.646,9.282l-18.713-7.463,5.922-15.071Z" transform="translate(-506.109 -223.991)" fill="#e8505b"/>
            <path id="Path_10101" data-name="Path 10101" d="M555.51,369.514l-4.19,9.5s8.25,7.45,7.646,9.282l-18.713-7.463,5.922-15.071Z" transform="translate(-506.109 -223.991)" fill="#34c6c8" opacity="0.5"/>
            <path id="Path_10102" data-name="Path 10102" d="M540.143,393.532l.656-1.5,17.7,7.715s.689.695.361,1.244Z" transform="translate(-505.999 -236.69)" fill="#263238"/>
            <path id="Path_10103" data-name="Path 10103" d="M624.607,394.589l-5.245,8.961s7.347,8.342,6.539,10.092L608.16,404.1l7.6-14.3Z" transform="translate(-608.16 -235.608)" fill="#e8505b"/>
            <path id="Path_10104" data-name="Path 10104" d="M624.607,394.589l-5.245,8.961s7.347,8.342,6.539,10.092L608.16,404.1l7.6-14.3Z" transform="translate(-608.16 -235.608)" fill="#34c6c8" opacity="0.5"/>
            <path id="Path_10105" data-name="Path 10105" d="M608.028,416.152l.822-1.411,16.7,9.681s.6.768.216,1.277Z" transform="translate(-608.028 -247.664)" fill="#263238"/>
            <g id="Group_17385" data-name="Group 17385" transform="translate(37.599)">
              <g id="Group_17381" data-name="Group 17381" transform="translate(0 5.759)">
                <g id="Group_17317" data-name="Group 17317" transform="translate(1.741)">
                  <g id="Group_17316" data-name="Group 17316">
                    <g id="Group_17315" data-name="Group 17315">
                      <g id="Group_17309" data-name="Group 17309">
                        <g id="Group_17308" data-name="Group 17308">
                          <g id="Group_17307" data-name="Group 17307">
                            <g id="Group_17306" data-name="Group 17306">
                              <g id="Group_17305" data-name="Group 17305">
                                <path id="Path_10106" data-name="Path 10106" d="M530.5,130.035l11.5.9.382-6.438s4.639-.068,5.333-4.6,1.373-15.063,1.373-15.063h0a15.928,15.928,0,0,0-16.13-.236l-.746.423Z" transform="translate(-530.503 -102.518)" fill="#ffbe9d"/>
                              </g>
                            </g>
                          </g>
                        </g>
                      </g>
                      <g id="Group_17314" data-name="Group 17314" transform="translate(6.218 19.396)">
                        <g id="Group_17313" data-name="Group 17313">
                          <g id="Group_17312" data-name="Group 17312">
                            <g id="Group_17311" data-name="Group 17311">
                              <g id="Group_17310" data-name="Group 17310">
                                <path id="Path_10107" data-name="Path 10107" d="M549.129,142.572a10.657,10.657,0,0,1-5.68-2.514s1.005,3.564,5.592,3.791Z" transform="translate(-543.449 -140.058)" fill="#eb996e"/>
                              </g>
                            </g>
                          </g>
                        </g>
                      </g>
                    </g>
                  </g>
                </g>
                <g id="Group_17329" data-name="Group 17329" transform="translate(0 6.966)">
                  <g id="Group_17322" data-name="Group 17322">
                    <g id="Group_17321" data-name="Group 17321">
                      <g id="Group_17320" data-name="Group 17320">
                        <g id="Group_17319" data-name="Group 17319">
                          <g id="Group_17318" data-name="Group 17318">
                            <path id="Path_10108" data-name="Path 10108" d="M566.712,116.314c-.073-.044-2.989-1.361-3.326,1.756s2.861,2.812,2.877,2.723S566.712,116.314,566.712,116.314Z" transform="translate(-563.361 -116)" fill="#ffbe9d"/>
                          </g>
                        </g>
                      </g>
                    </g>
                  </g>
                  <g id="Group_17328" data-name="Group 17328" transform="translate(0.801 0.977)">
                    <g id="Group_17327" data-name="Group 17327">
                      <g id="Group_17326" data-name="Group 17326">
                        <g id="Group_17325" data-name="Group 17325">
                          <g id="Group_17324" data-name="Group 17324">
                            <g id="Group_17323" data-name="Group 17323">
                              <path id="Path_10109" data-name="Path 10109" d="M567.053,120.423c-.012-.011-.058.032-.154.065a.548.548,0,0,1-.407-.036A1.35,1.35,0,0,1,566,119.18a1.8,1.8,0,0,1,.236-.761.63.63,0,0,1,.454-.373.277.277,0,0,1,.3.183c.033.091.006.152.022.159s.073-.045.062-.176a.349.349,0,0,0-.1-.209.414.414,0,0,0-.292-.112.767.767,0,0,0-.62.422,1.853,1.853,0,0,0-.282.848,1.417,1.417,0,0,0,.646,1.432.585.585,0,0,0,.505-.028C567.039,120.5,567.063,120.431,567.053,120.423Z" transform="translate(-565.776 -117.891)" fill="#eb996e"/>
                            </g>
                          </g>
                        </g>
                      </g>
                    </g>
                  </g>
                </g>
                <g id="Group_17380" data-name="Group 17380" transform="translate(9.035 4.294)">
                  <g id="Group_17379" data-name="Group 17379">
                    <g id="Group_17368" data-name="Group 17368" transform="translate(0.105 2.571)">
                      <g id="Group_17367" data-name="Group 17367" transform="translate(0)">
                        <g id="Group_17366" data-name="Group 17366">
                          <g id="Group_17341" data-name="Group 17341" transform="translate(6.874 0.834)">
                            <g id="Group_17334" data-name="Group 17334" transform="translate(1.049 1.064)">
                              <g id="Group_17333" data-name="Group 17333">
                                <g id="Group_17332" data-name="Group 17332">
                                  <g id="Group_17331" data-name="Group 17331">
                                    <g id="Group_17330" data-name="Group 17330">
                                      <path id="Path_10110" data-name="Path 10110" d="M535.593,120.161a.655.655,0,0,1-.717.566.626.626,0,0,1-.586-.678.655.655,0,0,1,.717-.566A.626.626,0,0,1,535.593,120.161Z" transform="translate(-534.287 -119.479)" fill="#263238"/>
                                    </g>
                                  </g>
                                </g>
                              </g>
                            </g>
                            <g id="Group_17340" data-name="Group 17340" transform="translate(0)">
                              <g id="Group_17339" data-name="Group 17339">
                                <g id="Group_17338" data-name="Group 17338">
                                  <g id="Group_17337" data-name="Group 17337">
                                    <g id="Group_17336" data-name="Group 17336">
                                      <g id="Group_17335" data-name="Group 17335">
                                        <path id="Path_10111" data-name="Path 10111" d="M536.43,118.3c-.092.073-.532-.36-1.23-.456s-1.258.181-1.322.085c-.031-.043.072-.184.317-.315a1.8,1.8,0,0,1,1.073-.172,1.725,1.725,0,0,1,.964.468C536.424,118.1,536.475,118.265,536.43,118.3Z" transform="translate(-533.873 -117.42)" fill="#263238"/>
                                      </g>
                                    </g>
                                  </g>
                                </g>
                              </g>
                            </g>
                          </g>
                          <g id="Group_17353" data-name="Group 17353">
                            <g id="Group_17346" data-name="Group 17346" transform="translate(1.141 1.113)">
                              <g id="Group_17345" data-name="Group 17345">
                                <g id="Group_17344" data-name="Group 17344">
                                  <g id="Group_17343" data-name="Group 17343">
                                    <g id="Group_17342" data-name="Group 17342">
                                      <path id="Path_10112" data-name="Path 10112" d="M548.721,118.642a.654.654,0,0,1-.717.566.626.626,0,0,1-.586-.678.655.655,0,0,1,.716-.566A.626.626,0,0,1,548.721,118.642Z" transform="translate(-547.416 -117.96)" fill="#263238"/>
                                    </g>
                                  </g>
                                </g>
                              </g>
                            </g>
                            <g id="Group_17352" data-name="Group 17352">
                              <g id="Group_17351" data-name="Group 17351">
                                <g id="Group_17350" data-name="Group 17350">
                                  <g id="Group_17349" data-name="Group 17349">
                                    <g id="Group_17348" data-name="Group 17348">
                                      <g id="Group_17347" data-name="Group 17347">
                                        <path id="Path_10113" data-name="Path 10113" d="M549.735,116.684c-.092.073-.533-.36-1.23-.455s-1.258.18-1.322.084c-.031-.043.071-.184.318-.315a1.793,1.793,0,0,1,1.072-.173,1.724,1.724,0,0,1,.964.468C549.729,116.488,549.78,116.651,549.735,116.684Z" transform="translate(-547.178 -115.807)" fill="#263238"/>
                                      </g>
                                    </g>
                                  </g>
                                </g>
                              </g>
                            </g>
                          </g>
                          <g id="Group_17359" data-name="Group 17359" transform="translate(4.361 0.549)">
                            <g id="Group_17358" data-name="Group 17358" transform="translate(0)">
                              <g id="Group_17357" data-name="Group 17357">
                                <g id="Group_17356" data-name="Group 17356">
                                  <g id="Group_17355" data-name="Group 17355">
                                    <g id="Group_17354" data-name="Group 17354">
                                      <path id="Path_10114" data-name="Path 10114" d="M540.125,122.726a4.641,4.641,0,0,1,1.162-.045c.18.006.354-.005.4-.122a.91.91,0,0,0-.044-.545l-.336-1.431a23.462,23.462,0,0,1-.684-3.713,23.65,23.65,0,0,1,.981,3.65c.109.5.214.979.313,1.435a1.043,1.043,0,0,1-.006.712.452.452,0,0,1-.33.219,1.2,1.2,0,0,1-.308,0A4.583,4.583,0,0,1,540.125,122.726Z" transform="translate(-540.125 -116.87)" fill="#263238"/>
                                    </g>
                                  </g>
                                </g>
                              </g>
                            </g>
                          </g>
                          <g id="Group_17365" data-name="Group 17365" transform="translate(2.062 6.599)">
                            <g id="Group_17364" data-name="Group 17364">
                              <g id="Group_17363" data-name="Group 17363">
                                <g id="Group_17362" data-name="Group 17362">
                                  <g id="Group_17361" data-name="Group 17361">
                                    <g id="Group_17360" data-name="Group 17360">
                                      <path id="Path_10115" data-name="Path 10115" d="M544.2,128.578c.115.009.01.767.582,1.4s1.39.659,1.381.765c0,.049-.2.122-.542.083a1.9,1.9,0,0,1-1.159-.6,1.654,1.654,0,0,1-.439-1.163C544.038,128.742,544.149,128.567,544.2,128.578Z" transform="translate(-544.021 -128.578)" fill="#263238"/>
                                    </g>
                                  </g>
                                </g>
                              </g>
                            </g>
                          </g>
                        </g>
                      </g>
                    </g>
                    <g id="Group_17373" data-name="Group 17373">
                      <g id="Group_17372" data-name="Group 17372">
                        <g id="Group_17371" data-name="Group 17371">
                          <g id="Group_17370" data-name="Group 17370">
                            <g id="Group_17369" data-name="Group 17369">
                              <path id="Path_10116" data-name="Path 10116" d="M549.327,111.57c-.1.18-.779-.008-1.611-.024-.832-.034-1.526.114-1.61-.072-.037-.088.1-.251.4-.4a2.8,2.8,0,0,1,2.454.073C549.239,111.314,549.369,111.484,549.327,111.57Z" transform="translate(-546.1 -110.83)" fill="#263238"/>
                            </g>
                          </g>
                        </g>
                      </g>
                    </g>
                    <g id="Group_17378" data-name="Group 17378" transform="translate(7.206 1.317)">
                      <g id="Group_17377" data-name="Group 17377" transform="translate(0)">
                        <g id="Group_17376" data-name="Group 17376">
                          <g id="Group_17375" data-name="Group 17375">
                            <g id="Group_17374" data-name="Group 17374">
                              <path id="Path_10117" data-name="Path 10117" d="M536.153,114.289c-.145.141-.6-.091-1.179-.18-.574-.109-1.082-.043-1.171-.225-.038-.088.061-.236.3-.355a1.726,1.726,0,0,1,1.894.327C536.174,114.047,536.218,114.219,536.153,114.289Z" transform="translate(-533.795 -113.379)" fill="#263238"/>
                            </g>
                          </g>
                        </g>
                      </g>
                    </g>
                  </g>
                </g>
              </g>
              <g id="Group_17384" data-name="Group 17384" transform="translate(2.038)">
                <g id="Group_17383" data-name="Group 17383">
                  <g id="Group_17382" data-name="Group 17382">
                    <path id="Path_10118" data-name="Path 10118" d="M546.254,96.889a1.692,1.692,0,0,0-.408-1.584,1.2,1.2,0,0,0-1.556-.1,1.4,1.4,0,0,0-.955-1.85c-.734-.151-1.444.319-2.187.415a3.4,3.4,0,0,1-2.085-.543c-.633-.365-1.208-.827-1.854-1.17a5.86,5.86,0,0,0-7.9,2.364,2.6,2.6,0,0,0-2.878.65,4.269,4.269,0,0,0-1.066,2.887,9.543,9.543,0,0,0,.233,2.11c-.008.058-.022.115-.029.174-.3,2.5-.433,5.473.629,5.638,1.852.29,1.9-3.269,1.9-3.269,2.4-.56,2.033-4.092,2.675-4.529s2-1.473,6.428,1.634a9.324,9.324,0,0,0,5.572,1.407c.04,0,.081,0,.122-.007l.028,0c.016,0,.027-.008.042-.01a4.318,4.318,0,0,0,1.3-.347,2.44,2.44,0,0,0,1.166-.979,1.337,1.337,0,0,0-.06-1.458A2.938,2.938,0,0,0,546.254,96.889Z" transform="translate(-525.35 -91.372)" fill="#263238"/>
                  </g>
                </g>
              </g>
            </g>
            <g id="Group_17386" data-name="Group 17386" transform="translate(39.514 23.328)">
              <path id="Path_10119" data-name="Path 10119" d="M555.173,144.872l-.513,18.018-11.21-24.134.281-2.234Z" transform="translate(-543.449 -136.521)" fill="#ebebeb"/>
            </g>
            <g id="Group_17399" data-name="Group 17399" transform="translate(3.997 81.304)">
              <g id="Group_17387" data-name="Group 17387" transform="translate(31.42 3.731)">
                <path id="Path_10120" data-name="Path 10120" d="M521.254,256.459c.411.134,23.752,23.74,23.228,27.98s-17.14,35.642-17.14,35.642l-11.855-5.845,11.12-27.53L526.462,285l-13.591-11.137.726-17.91Z" transform="translate(-512.871 -255.952)" fill="#263238"/>
              </g>
              <g id="Group_17388" data-name="Group 17388" transform="translate(0)">
                <path id="Path_10121" data-name="Path 10121" d="M602.355,257.62c-.271.412-4.313,37.5-5.4,39.417s-17.319,33.58-17.319,33.58l-12.054-4.857,14.715-34.8-1.677-32.933.908-9.3,18.2,3.731Z" transform="translate(-567.585 -248.731)" fill="#263238"/>
              </g>
              <g id="Group_17390" data-name="Group 17390" transform="translate(29.581 10.784)">
                <g id="Group_17389" data-name="Group 17389">
                  <path id="Path_10122" data-name="Path 10122" d="M567.563,306.472a2.058,2.058,0,0,0,.079-.371l.175-1.071c.146-.959.349-2.3.6-3.945l1.874-13.028c.7-5.081,1.336-9.68,1.8-13.042.215-1.65.39-2.994.516-3.956q.079-.672.127-1.077a2.013,2.013,0,0,0,.027-.378,2.055,2.055,0,0,0-.079.37c-.044.27-.1.626-.175,1.071-.145.959-.349,2.3-.6,3.945l-1.874,13.032c-.7,5.08-1.335,9.678-1.8,13.04-.215,1.65-.39,2.994-.516,3.956-.053.448-.1.806-.128,1.078A2.128,2.128,0,0,0,567.563,306.472Z" transform="translate(-567.559 -269.603)" fill="#455a64"/>
                </g>
              </g>
              <g id="Group_17392" data-name="Group 17392" transform="translate(15.012 41.168)">
                <g id="Group_17391" data-name="Group 17391" transform="translate(0)">
                  <path id="Path_10123" data-name="Path 10123" d="M602.6,328.41a35.186,35.186,0,0,0,1.651,5.807,35.313,35.313,0,0,0-1.651-5.807Z" transform="translate(-602.593 -328.41)" fill="#455a64"/>
                </g>
              </g>
              <g id="Group_17394" data-name="Group 17394" transform="translate(13.194 42.284)">
                <g id="Group_17393" data-name="Group 17393" transform="translate(0)">
                  <path id="Path_10124" data-name="Path 10124" d="M605.815,337.853a3.383,3.383,0,0,0,.658-.915,9.015,9.015,0,0,0,1.123-5.265,3.358,3.358,0,0,0-.228-1.1,11.77,11.77,0,0,1-1.553,7.284Z" transform="translate(-605.811 -330.569)" fill="#455a64"/>
                </g>
              </g>
              <g id="Group_17396" data-name="Group 17396" transform="translate(45.705 30.485)">
                <g id="Group_17395" data-name="Group 17395" transform="translate(0)">
                  <path id="Path_10125" data-name="Path 10125" d="M543.3,307.74a6.357,6.357,0,0,0-3.335,3.041c.065.043.64-.8,1.563-1.635S543.332,307.809,543.3,307.74Z" transform="translate(-539.956 -307.734)" fill="#455a64"/>
                </g>
              </g>
              <g id="Group_17398" data-name="Group 17398" transform="translate(45.402 29.393)">
                <g id="Group_17397" data-name="Group 17397" transform="translate(0)">
                  <path id="Path_10126" data-name="Path 10126" d="M545.3,305.622a5.165,5.165,0,0,0-1.8,2.916,44.032,44.032,0,0,1,1.8-2.916Z" transform="translate(-543.492 -305.619)" fill="#455a64"/>
                </g>
              </g>
            </g>
            <g id="Group_17429" data-name="Group 17429" transform="translate(9.702 24.357)">
              <g id="Group_17401" data-name="Group 17401" transform="translate(0)">
                <g id="Group_17400" data-name="Group 17400">
                  <path id="Path_10127" data-name="Path 10127" d="M584.322,170.755l-2.984,14.8-2.428,20.658s-10.011-1.4-14.278-2.749c-4.949-1.567-15.717-2.9-15.717-2.9l1.815,1.8a12.822,12.822,0,0,1-6.306-4.755c6.641-6.159,12.305-18.828,12.305-18.828l5.049-25.071s.767-3.537,1.229-5.109,8.13-6.646,9.193-7.287l.668-.316.212-2.009.79-.473,8.3,7.538a8.992,8.992,0,0,1,2.888,5.634,65.021,65.021,0,0,1,.362,9.431C585.32,164.054,584.322,170.755,584.322,170.755Z" transform="translate(-544.425 -138.514)" fill="#34c6c8"/>
                </g>
              </g>
              <g id="Group_17411" data-name="Group 17411" transform="translate(24.115 6.296)">
                <g id="Group_17402" data-name="Group 17402" transform="translate(0.131)">
                  <path id="Path_10128" data-name="Path 10128" d="M529.983,151s4.384,2.35,5.144,4.345-1.5,23.862-1.5,23.862l15.743.3.049,9.38s-25,1.976-25.978.624c-1.315-1.828-2.844-18.915-2.844-18.915l-.568-12.294S521.478,148.921,529.983,151Z" transform="translate(-520.028 -150.699)" fill="#34c6c8"/>
                </g>
                <g id="Group_17404" data-name="Group 17404" transform="translate(0 22.846)" opacity="0.3">
                  <g id="Group_17403" data-name="Group 17403">
                    <path id="Path_10129" data-name="Path 10129" d="M564.622,212.818a15.058,15.058,0,0,1-6.3.589,6.256,6.256,0,0,1-5.312-3.482c-.642-1.58-.374-3.36-.471-5.062-.085-1.479-.451-2.925-.674-4.39s.536-4.157,1.019-5.557c0,0,.562,10.151,2.149,14.413a3.49,3.49,0,0,0,.973,1.556,3.824,3.824,0,0,0,2.057.567,59.634,59.634,0,0,0,6.854-.138" transform="translate(-551.823 -194.916)"/>
                  </g>
                </g>
                <g id="Group_17406" data-name="Group 17406" transform="translate(0.155 8.926)">
                  <g id="Group_17405" data-name="Group 17405">
                    <path id="Path_10130" data-name="Path 10130" d="M519.79,167.975a1.383,1.383,0,0,0,0,.223c.006.159.015.375.025.653.028.587.069,1.431.121,2.512s.127,2.427.208,3.973.146,3.314.336,5.258c.169,1.945.373,4.073.617,6.356s.524,4.72.958,7.271a15.837,15.837,0,0,0,.432,1.928,3.764,3.764,0,0,0,1.135,1.7,2.874,2.874,0,0,0,1.959.7c.694.016,1.39,0,2.093-.011,2.81-.069,5.715-.213,8.689-.375,4.468-.247,8.775-.525,12.8-.808l.116-.008v-.116c-.02-3.332-.039-6.47-.056-9.365v-.108l-.107,0-15.195-.327-4.251-.074-1.119-.011c-.253,0-.384.008-.384.008s.13.014.383.026l1.119.044,4.249.135,15.192.42-.108-.111c.009,2.895.02,6.034.031,9.365l.115-.124c-4.023.275-8.329.549-12.8.8-2.972.161-5.876.307-8.68.38-.7.009-1.4.028-2.08.013a2.625,2.625,0,0,1-1.809-.64,3.515,3.515,0,0,1-1.063-1.589,15.719,15.719,0,0,1-.427-1.891c-.439-2.536-.718-4.974-.98-7.252s-.467-4.407-.648-6.349c-.2-1.941-.266-3.706-.374-5.252s-.182-2.875-.252-3.969-.13-1.922-.17-2.507c-.021-.277-.038-.493-.051-.652A1.5,1.5,0,0,0,519.79,167.975Z" transform="translate(-519.787 -167.975)" fill="#263238"/>
                  </g>
                </g>
                <g id="Group_17408" data-name="Group 17408" transform="translate(26.275 28.949)">
                  <g id="Group_17407" data-name="Group 17407" transform="translate(0)">
                    <path id="Path_10131" data-name="Path 10131" d="M525.956,215.825a40,40,0,0,0,.106-4.549,40.155,40.155,0,0,0-.154-4.548,39.876,39.876,0,0,0-.106,4.549A40.188,40.188,0,0,0,525.956,215.825Z" transform="translate(-525.8 -206.728)" fill="#263238"/>
                  </g>
                </g>
                <g id="Group_17410" data-name="Group 17410" transform="translate(27.353 30.251)">
                  <g id="Group_17409" data-name="Group 17409" transform="translate(0)">
                    <path id="Path_10132" data-name="Path 10132" d="M522.8,209.371c.03-.017-.127-.192-.426-.093a.484.484,0,0,0-.319.416.571.571,0,0,0,.32.562.586.586,0,0,0,.633-.117.53.53,0,0,0,.154-.5c-.071-.3-.278-.36-.285-.33-.025.029.1.139.1.352a.358.358,0,0,1-.13.3.37.37,0,0,1-.367.059.354.354,0,0,1-.189-.313.3.3,0,0,1,.158-.263C522.634,209.336,522.786,209.4,522.8,209.371Z" transform="translate(-522.055 -209.247)" fill="#263238"/>
                  </g>
                </g>
              </g>
              <g id="Group_17412" data-name="Group 17412" transform="translate(7.653 17.343)">
                <path id="Path_10133" data-name="Path 10133" d="M600.016,172.08s-8.19,10.708-9.187,13.627-.227,7.108,1.441,9.111,3.013,1.189,3.013,1.189Z" transform="translate(-590.385 -172.08)" fill="#34c6c8"/>
              </g>
              <g id="Group_17414" data-name="Group 17414" transform="translate(12.844 40.388)">
                <g id="Group_17413" data-name="Group 17413" transform="translate(0)">
                  <path id="Path_10134" data-name="Path 10134" d="M590.949,216.705a17.168,17.168,0,0,0,4.149.712,17.173,17.173,0,0,0-4.149-.712Z" transform="translate(-590.949 -216.683)" fill="#263238"/>
                </g>
              </g>
              <g id="Group_17416" data-name="Group 17416" transform="translate(4.302 48.305)">
                <g id="Group_17415" data-name="Group 17415">
                  <path id="Path_10135" data-name="Path 10135" d="M608.988,232.007a2.756,2.756,0,0,0-.222.565c-.125.369-.313.9-.555,1.552a46.057,46.057,0,0,1-2.2,4.963,52.224,52.224,0,0,1-2.751,4.683c-.382.581-.7,1.048-.919,1.369a2.775,2.775,0,0,0-.32.516,2.694,2.694,0,0,0,.4-.456c.246-.3.586-.755.989-1.326a40.161,40.161,0,0,0,2.83-4.667,36.481,36.481,0,0,0,2.142-5.02c.222-.662.384-1.2.479-1.584A2.743,2.743,0,0,0,608.988,232.007Z" transform="translate(-602.019 -232.007)" fill="#263238"/>
                </g>
              </g>
              <g id="Group_17418" data-name="Group 17418" transform="translate(3.555 49.574)" opacity="0.3">
                <g id="Group_17417" data-name="Group 17417">
                  <path id="Path_10136" data-name="Path 10136" d="M610.262,234.463a24.2,24.2,0,0,1-4.609,6.439,11.923,11.923,0,0,0-2.011,1.948,2.452,2.452,0,0,0-.256,2.636.827.827,0,0,0,.816.441,1.047,1.047,0,0,0,.534-.434,31.9,31.9,0,0,0,5.438-10.678" transform="translate(-603.103 -234.463)"/>
                </g>
              </g>
              <g id="Group_17420" data-name="Group 17420" transform="translate(10.411 18.957)" opacity="0.3">
                <g id="Group_17419" data-name="Group 17419">
                  <path id="Path_10137" data-name="Path 10137" d="M593.1,197.478a3.961,3.961,0,0,1-1.348-3.709,13.732,13.732,0,0,1,1.36-3.894,64.12,64.12,0,0,0,3.989-11.7l.8-2.97L593.852,196.4Z" transform="translate(-591.717 -175.205)"/>
                </g>
              </g>
              <g id="Group_17422" data-name="Group 17422" transform="translate(29.015 2.591)">
                <g id="Group_17421" data-name="Group 17421" transform="translate(0)">
                  <path id="Path_10138" data-name="Path 10138" d="M564.821,146.583a1884.007,1884.007,0,0,1-3.051-3.051,9.061,9.061,0,0,0,3.051,3.051Z" transform="translate(-561.766 -143.529)" fill="#263238"/>
                </g>
              </g>
              <g id="Group_17424" data-name="Group 17424" transform="translate(32.897 7.454)">
                <g id="Group_17423" data-name="Group 17423">
                  <path id="Path_10139" data-name="Path 10139" d="M548.391,152.946c-.013.043.473.19,1.2.548a9.52,9.52,0,0,1,4.347,4.4c.35.729.49,1.216.534,1.2.018,0,0-.13-.056-.354a5.9,5.9,0,0,0-.31-.925,8.552,8.552,0,0,0-4.438-4.49,5.847,5.847,0,0,0-.921-.321A.969.969,0,0,0,548.391,152.946Z" transform="translate(-548.391 -152.94)" fill="#263238"/>
                </g>
              </g>
              <g id="Group_17426" data-name="Group 17426" transform="translate(10.901 17.571)">
                <g id="Group_17425" data-name="Group 17425">
                  <path id="Path_10140" data-name="Path 10140" d="M590.661,198.311a.871.871,0,0,0,.129-.206l.328-.614,1.179-2.306,0-.009,0-.012c.512-2.347,1.237-5.769,2.024-9.576.727-3.587,1.385-6.834,1.871-9.228l.537-2.8c.054-.308.1-.561.133-.765a.136.136,0,1,0-.051-.011l-.181.755c-.154.694-.363,1.637-.618,2.786l-1.945,9.213c-.788,3.806-1.481,7.236-1.942,9.593l.007-.021c-.459.97-.832,1.76-1.107,2.341l-.287.635A.908.908,0,0,0,590.661,198.311Z" transform="translate(-590.66 -172.522)" fill="#263238"/>
                </g>
              </g>
              <g id="Group_17428" data-name="Group 17428" transform="translate(38.108 14.93)">
                <g id="Group_17427" data-name="Group 17427" transform="translate(0)">
                  <path id="Path_10141" data-name="Path 10141" d="M546.628,187.275a4.6,4.6,0,0,0,.12-.776c.059-.548.137-1.263.231-2.125.183-1.795.42-4.277.664-7.02s.452-5.228.589-7.028c.06-.865.11-1.582.149-2.132a4.612,4.612,0,0,0,.019-.784,4.5,4.5,0,0,0-.12.777c-.059.548-.137,1.263-.231,2.125-.184,1.8-.42,4.277-.664,7.02s-.452,5.226-.589,7.026c-.06.865-.111,1.583-.149,2.132A4.5,4.5,0,0,0,546.628,187.275Z" transform="translate(-546.618 -167.41)" fill="#263238"/>
                </g>
              </g>
            </g>
            <g id="Group_17447" data-name="Group 17447" transform="translate(63.044 55.657)">
              <g id="Group_17432" data-name="Group 17432" transform="translate(0)">
                <g id="Group_17430" data-name="Group 17430" transform="translate(0 2.096)">
                  <path id="Path_10142" data-name="Path 10142" d="M497.874,205.951s3.4-2.576,4.223-2.731c.634-.119,4.424-.056,6.167-.02a1.247,1.247,0,0,1,1.25,1.211.664.664,0,0,1-.012.123,1.137,1.137,0,0,1-.828.861,1.321,1.321,0,0,1,.918,1.243c.015.984-1.176,1.191-1.176,1.191a1.771,1.771,0,0,1,.17.151,1.174,1.174,0,0,1-.576,1.97l-.537.122a1.163,1.163,0,0,1,.717.978c-.02,1.3-2.932,1.543-2.932,1.543s-7.2,1.139-7.353,1.088S497.874,205.951,497.874,205.951Z" transform="translate(-497.826 -203.15)" fill="#ffbe9d"/>
                </g>
                <g id="Group_17431" data-name="Group 17431" transform="translate(4.9)">
                  <path id="Path_10143" data-name="Path 10143" d="M506.558,199.707a2.1,2.1,0,0,1-.858,1.747l-4.011-.157s2.987-1.031,3.412-1.54a3.449,3.449,0,0,1,.572-.56A.567.567,0,0,1,506.558,199.707Z" transform="translate(-501.689 -199.093)" fill="#ffbe9d"/>
                </g>
              </g>
              <g id="Group_17434" data-name="Group 17434" transform="translate(6.787 2.032)">
                <g id="Group_17433" data-name="Group 17433" transform="translate(0)">
                  <path id="Path_10144" data-name="Path 10144" d="M500.382,203.159a5.886,5.886,0,0,0,1.832.13,7.43,7.43,0,0,0,1.827-.13,5.888,5.888,0,0,0-1.832-.13A7.436,7.436,0,0,0,500.382,203.159Z" transform="translate(-500.382 -203.027)" fill="#eb996e"/>
                </g>
              </g>
              <g id="Group_17436" data-name="Group 17436" transform="translate(7.688 4.257)">
                <g id="Group_17435" data-name="Group 17435">
                  <path id="Path_10145" data-name="Path 10145" d="M499.629,207.479a5.81,5.81,0,0,0,3.147-.112,29.819,29.819,0,0,0-3.147.112Z" transform="translate(-499.629 -207.332)" fill="#eb996e"/>
                </g>
              </g>
              <g id="Group_17438" data-name="Group 17438" transform="translate(5.627 4.11)">
                <g id="Group_17437" data-name="Group 17437" transform="translate(0)">
                  <path id="Path_10146" data-name="Path 10146" d="M508.313,207.056c-.059.037.018.255.244.4s.457.128.467.058-.149-.159-.326-.276S508.373,207.014,508.313,207.056Z" transform="translate(-508.294 -207.047)" fill="#eb996e"/>
                </g>
              </g>
              <g id="Group_17440" data-name="Group 17440" transform="translate(7.246 6.747)">
                <g id="Group_17439" data-name="Group 17439">
                  <path id="Path_10147" data-name="Path 10147" d="M499.9,212.35a11.556,11.556,0,0,0,3.448-.113,11.555,11.555,0,0,0-3.448.113Z" transform="translate(-499.901 -212.152)" fill="#eb996e"/>
                </g>
              </g>
              <g id="Group_17442" data-name="Group 17442" transform="translate(4.835 5.872)">
                <g id="Group_17441" data-name="Group 17441" transform="translate(0)">
                  <path id="Path_10148" data-name="Path 10148" d="M509.509,210.459c-.032-.009-.095.072-.114.229a.825.825,0,0,0,.7.892c.158.019.251-.023.25-.056,0-.071-.345-.116-.575-.41S509.578,210.474,509.509,210.459Z" transform="translate(-509.39 -210.459)" fill="#eb996e"/>
                </g>
              </g>
              <g id="Group_17444" data-name="Group 17444" transform="translate(6.64 9.013)">
                <g id="Group_17443" data-name="Group 17443">
                  <path id="Path_10149" data-name="Path 10149" d="M501.772,216.957a9.378,9.378,0,0,0,3.087-.382,9.416,9.416,0,0,0-3.087.382Z" transform="translate(-501.772 -216.536)" fill="#eb996e"/>
                </g>
              </g>
              <g id="Group_17446" data-name="Group 17446" transform="translate(4.324 8.169)">
                <g id="Group_17445" data-name="Group 17445">
                  <path id="Path_10150" data-name="Path 10150" d="M510.6,214.9c-.033,0-.083.083-.078.239a.967.967,0,0,0,.215.545c.293.355.623.484.66.436s-.213-.3-.455-.595S510.67,214.915,510.6,214.9Z" transform="translate(-510.524 -214.903)" fill="#eb996e"/>
                </g>
              </g>
            </g>
            <g id="Group_17448" data-name="Group 17448" transform="translate(13.792 85.691)">
              <path id="Path_10151" data-name="Path 10151" d="M611.827,259.954a4.585,4.585,0,0,1-3.478-2.191c-.082-.138-.153-.328-.045-.448a.4.4,0,0,1,.3-.091,9.419,9.419,0,0,1,3.3.565.449.449,0,0,1,.3.221.455.455,0,0,1-.014.272l-.423,1.63" transform="translate(-608.249 -257.223)" fill="#e8505b"/>
            </g>
            <g id="Group_17450" data-name="Group 17450" transform="translate(13.792 85.691)" opacity="0.4">
              <g id="Group_17449" data-name="Group 17449" transform="translate(0)">
                <path id="Path_10152" data-name="Path 10152" d="M611.827,259.954a4.585,4.585,0,0,1-3.478-2.191c-.082-.138-.153-.328-.045-.448a.4.4,0,0,1,.3-.091,9.419,9.419,0,0,1,3.3.565.449.449,0,0,1,.3.221.455.455,0,0,1-.014.272l-.423,1.63" transform="translate(-608.249 -257.223)"/>
              </g>
            </g>
            <g id="Group_17456" data-name="Group 17456" transform="translate(20.364 31.679)">
              <g id="Group_17451" data-name="Group 17451" transform="translate(30.628)">
                <path id="Path_10153" data-name="Path 10153" d="M541.226,152.684s1.651,5.543,1.2,5.228-1.442-1.19-1.442-1.19Z" transform="translate(-540.98 -152.684)" fill="#ebebeb"/>
              </g>
              <g id="Group_17452" data-name="Group 17452" transform="translate(30.692 2.555)">
                <path id="Path_10154" data-name="Path 10154" d="M541.506,157.63l.9,2.158a2.938,2.938,0,0,1,.175.7c.074.6.161,1.713-.2,1.79a1.213,1.213,0,0,1-.965-.4Z" transform="translate(-541.419 -157.63)" fill="#263238"/>
              </g>
              <g id="Group_17455" data-name="Group 17455" transform="translate(0 1.238)">
                <g id="Group_17453" data-name="Group 17453">
                  <path id="Path_10155" data-name="Path 10155" d="M543.98,156.738s8.833-3.446,13.724-.4,5.782,7.9,8.695,7.9c5.68,0,5.5-4.008,5.5-4.008l1.208.366c.023.82,1.316,6.708-4.67,7.439s-8.5-7.431-13.887-7.439a17.875,17.875,0,0,0-9.473,2.912l-3.869-2.447Z" transform="translate(-541.206 -155.079)" fill="#263238"/>
                </g>
                <g id="Group_17454" data-name="Group 17454" transform="translate(0.656 0.46)">
                  <path id="Path_10156" data-name="Path 10156" d="M578.75,168.363a8.3,8.3,0,0,1-3.407-3.909c-1.372-3.166-4.318-6.781-6.778-7.689s-8.151-1.542-12.081,1.019l-2.518,3.4,3.268,2.12A30.353,30.353,0,0,1,562.994,161c4.062-1.134,6.531.147,8.892,2.382.147.14.282.277.4.41a26.787,26.787,0,0,0,3.739,3.311A5.891,5.891,0,0,0,578.75,168.363Z" transform="translate(-553.966 -155.969)" fill="#455a64"/>
                </g>
              </g>
            </g>
          </g>
        </g>
        <g id="Flag" transform="translate(222.495)">
          <g id="Group_17465" data-name="Group 17465" transform="translate(0)">
            <g id="Group_17458" data-name="Group 17458">
              <path id="Path_10157" data-name="Path 10157" d="M131.839,63.514c5.239.807,9.08-3.593,10.3-7.512,1.13-3.617,1.668-7.38,3.257-10.82,2.22-4.808,8.1-7.03,13.377-6.586s10.594,3.089,15.264,5.588l-1.288,28.943S162.585,62.3,157.7,62.1c-8.152-.329-7.708,13.07-15.624,15.049,0,0-11.1,3.009-18.6-6.682a27.271,27.271,0,0,1-5.183-13.622S121.94,61.989,131.839,63.514Z" transform="translate(-118.293 -38.541)" fill="#34c6c8"/>
            </g>
            <g id="Group_17460" data-name="Group 17460" transform="translate(49.849 0.841)">
              <g id="Group_17459" data-name="Group 17459">
                <path id="Path_10158" data-name="Path 10158" d="M123.986,40.17c-.072,0-1.5,30.731-3.184,68.638s-3,68.653-2.925,68.656,1.5-30.725,3.184-68.644S124.057,40.174,123.986,40.17Z" transform="translate(-117.874 -40.17)" fill="#263238"/>
              </g>
            </g>
            <g id="Group_17462" data-name="Group 17462" transform="translate(15.24 15.459)" opacity="0.2">
              <g id="Group_17461" data-name="Group 17461">
                <path id="Path_10159" data-name="Path 10159" d="M184.778,68.461a35.219,35.219,0,0,1-3.853,8.687,10.689,10.689,0,0,1-6.542,4.924,6.349,6.349,0,0,0-1.468.381,1.42,1.42,0,0,0-.874,1.151c-.021.758.763,1.254,1.443,1.589a11.885,11.885,0,0,0,3.012,1.157c1.06.2,1.892.309,2.62-.487a15.218,15.218,0,0,0,1.895-2.27c2.392-4.075,3.575-9.9,3.769-14.515" transform="translate(-172.04 -68.461)"/>
              </g>
            </g>
            <g id="Group_17464" data-name="Group 17464" transform="translate(20.893 9.433)">
              <g id="Group_17463" data-name="Group 17463">
                <path id="Path_10160" data-name="Path 10160" d="M171.1,81.41a1.061,1.061,0,0,0,.236-.134c.149-.1.362-.249.626-.46a10.771,10.771,0,0,0,1.932-2.1,16.106,16.106,0,0,0,1.934-3.763,41.429,41.429,0,0,0,1.433-4.973,55.532,55.532,0,0,0,1.335-9.293c.067-1.2.078-2.174.077-2.845-.007-.312-.012-.567-.017-.773a1.042,1.042,0,0,0-.024-.27,1.087,1.087,0,0,0-.028.269c-.008.206-.019.461-.032.772-.03.67-.069,1.639-.159,2.834a62.118,62.118,0,0,1-1.4,9.247,44.377,44.377,0,0,1-1.4,4.949,16.6,16.6,0,0,1-1.861,3.741,11.75,11.75,0,0,1-1.848,2.128C171.39,81.182,171.082,81.392,171.1,81.41Z" transform="translate(-171.095 -56.799)" fill="#263238"/>
              </g>
            </g>
          </g>
        </g>
        <g id="Stairs" transform="translate(0 135.758)">
          <g id="Group_17466" data-name="Group 17466" transform="translate(240.828 8.487)" opacity="0.25">
            <path id="Path_10161" data-name="Path 10161" d="M125.956,317.722l-69.22,11.332V317.722Z" transform="translate(-56.736 -317.722)" fill="#34c6c8"/>
          </g>
          <g id="Group_17467" data-name="Group 17467" transform="translate(160.182 34.086)" opacity="0.25">
            <path id="Path_10162" data-name="Path 10162" d="M282.043,367.267,212.824,378.6V367.267Z" transform="translate(-212.824 -367.267)" fill="#34c6c8"/>
          </g>
          <g id="Group_17468" data-name="Group 17468" transform="translate(80.091 58.574)" opacity="0.25">
            <path id="Path_10163" data-name="Path 10163" d="M437.055,414.662l-69.22,11.332V414.662Z" transform="translate(-367.836 -414.662)" fill="#34c6c8"/>
          </g>
          <g id="Group_17469" data-name="Group 17469" transform="translate(0.106 78.06)" opacity="0.25">
            <path id="Path_10164" data-name="Path 10164" d="M591.863,452.376l-69.22,11.332V452.376Z" transform="translate(-522.643 -452.376)" fill="#34c6c8"/>
          </g>
          <g id="Group_17472" data-name="Group 17472" transform="translate(240.828)">
            <g id="Group_17470" data-name="Group 17470" transform="translate(0)">
              <rect id="Rectangle_2622" data-name="Rectangle 2622" width="69.22" height="8.487" fill="#34c6c8"/>
            </g>
            <g id="Group_17471" data-name="Group 17471" transform="translate(0)" opacity="0.3">
              <rect id="Rectangle_2623" data-name="Rectangle 2623" width="21.6" height="8.487"/>
            </g>
          </g>
          <g id="Group_17475" data-name="Group 17475" transform="translate(160.182 25.599)">
            <g id="Group_17473" data-name="Group 17473" transform="translate(0)">
              <rect id="Rectangle_2624" data-name="Rectangle 2624" width="69.22" height="8.488" fill="#34c6c8"/>
            </g>
            <g id="Group_17474" data-name="Group 17474" transform="translate(0)" opacity="0.3">
              <rect id="Rectangle_2625" data-name="Rectangle 2625" width="21.6" height="8.488"/>
            </g>
          </g>
          <g id="Group_17478" data-name="Group 17478" transform="translate(80.091 50.086)">
            <g id="Group_17476" data-name="Group 17476" transform="translate(0)">
              <rect id="Rectangle_2626" data-name="Rectangle 2626" width="69.22" height="8.488" fill="#34c6c8"/>
            </g>
            <g id="Group_17477" data-name="Group 17477" transform="translate(0)" opacity="0.3">
              <rect id="Rectangle_2627" data-name="Rectangle 2627" width="21.6" height="8.488"/>
            </g>
          </g>
          <g id="Group_17481" data-name="Group 17481" transform="translate(0 69.572)">
            <g id="Group_17479" data-name="Group 17479" transform="translate(0)">
              <rect id="Rectangle_2628" data-name="Rectangle 2628" width="69.22" height="8.488" fill="#34c6c8"/>
            </g>
            <g id="Group_17480" data-name="Group 17480" opacity="0.3">
              <rect id="Rectangle_2629" data-name="Rectangle 2629" width="21.6" height="8.488"/>
            </g>
          </g>
          <g id="Group_17483" data-name="Group 17483" transform="translate(38.894 36.797)">
            <g id="Group_17482" data-name="Group 17482" transform="translate(0)">
              <path id="Path_10165" data-name="Path 10165" d="M578.02,374.4a1.882,1.882,0,1,1-1.882-1.883A1.882,1.882,0,0,1,578.02,374.4Z" transform="translate(-574.256 -372.513)" fill="#ebebeb"/>
            </g>
          </g>
        </g>
      </g>
      <g id="Scroll_Group_8" data-name="Scroll Group 8" transform="translate(-39 243.128)" clip-path="url(#clip-path)" style="isolation: isolate">
        <g id="Group_17503" data-name="Group 17503" transform="translate(39.186 -228.128)">
          <path id="Path_10174" data-name="Path 10174" d="M-3.8,155.1S107.953,72.81,231.894,75.857,470.632-72.465,470.632-72.465" transform="translate(-34.5 301.5)" fill="none" stroke="#c2c2c2" stroke-width="3"/>
          <g id="Group_17495" data-name="Group 17495" transform="translate(-175.792 363.919) rotate(-20)">
            <g id="Group_17490" data-name="Group 17490" transform="translate(179.423 106.776)">
              <g id="Group_17489" data-name="Group 17489">
                <path id="Path_10172" data-name="Path 10172" d="M242.4,102.882a14.394,14.394,0,1,0-5.252,19.667A14.394,14.394,0,0,0,242.4,102.882Z" transform="translate(-215.54 -95.693)" fill="#09909f"/>
                <circle id="Ellipse_1282" data-name="Ellipse 1282" cx="11.821" cy="11.821" r="11.821" transform="translate(2.575 2.575)" fill="#afafaf"/>
              </g>
              <path id="Path_10173" data-name="Path 10173" d="M237.758,182.928l2.587-2.538a14.291,14.291,0,0,1-3.973-1.217l.939,3.631A.266.266,0,0,0,237.758,182.928Z" transform="translate(-229.274 -150.728)" fill="#09909f"/>
            </g>
          </g>
          <g id="Group_17496" data-name="Group 17496" transform="translate(-115.792 342.027) rotate(-20)">
            <g id="Group_17490-2" data-name="Group 17490" transform="translate(179.423 106.776)">
              <g id="Group_17489-2" data-name="Group 17489">
                <path id="Path_10172-2" data-name="Path 10172" d="M242.4,102.882a14.394,14.394,0,1,0-5.252,19.667A14.394,14.394,0,0,0,242.4,102.882Z" transform="translate(-215.54 -95.693)" fill="#09909f"/>
                <circle id="Ellipse_1282-2" data-name="Ellipse 1282" cx="11.821" cy="11.821" r="11.821" transform="translate(2.575 2.575)" fill="#afafaf"/>
              </g>
              <path id="Path_10173-2" data-name="Path 10173" d="M237.758,182.928l2.587-2.538a14.291,14.291,0,0,1-3.973-1.217l.939,3.631A.266.266,0,0,0,237.758,182.928Z" transform="translate(-229.274 -150.728)" fill="#09909f"/>
            </g>
          </g>
          <g id="Group_17497" data-name="Group 17497" transform="translate(-55.792 330.424) rotate(-20)" opacity="0.2">
            <g id="Group_17490-3" data-name="Group 17490" transform="translate(179.423 106.776)">
              <g id="Group_17489-3" data-name="Group 17489">
                <path id="Path_10172-3" data-name="Path 10172" d="M242.4,102.882a14.394,14.394,0,1,0-5.252,19.667A14.394,14.394,0,0,0,242.4,102.882Z" transform="translate(-215.54 -95.693)" fill="#09909f"/>
                <circle id="Ellipse_1282-3" data-name="Ellipse 1282" cx="11.821" cy="11.821" r="11.821" transform="translate(2.575 2.575)" fill="#fff"/>
              </g>
              <path id="Path_10173-3" data-name="Path 10173" d="M237.758,182.928l2.587-2.538a14.291,14.291,0,0,1-3.973-1.217l.939,3.631A.266.266,0,0,0,237.758,182.928Z" transform="translate(-229.274 -150.728)" fill="#09909f"/>
            </g>
          </g>
          <g id="Group_17498" data-name="Group 17498" transform="translate(4.208 328.424) rotate(-20)" opacity="0.2">
            <g id="Group_17490-4" data-name="Group 17490" transform="translate(179.423 106.776)">
              <g id="Group_17489-4" data-name="Group 17489">
                <path id="Path_10172-4" data-name="Path 10172" d="M242.4,102.882a14.394,14.394,0,1,0-5.252,19.667A14.394,14.394,0,0,0,242.4,102.882Z" transform="translate(-215.54 -95.693)" fill="#09909f"/>
                <circle id="Ellipse_1282-4" data-name="Ellipse 1282" cx="11.821" cy="11.821" r="11.821" transform="translate(2.575 2.575)" fill="#fff"/>
              </g>
              <path id="Path_10173-4" data-name="Path 10173" d="M237.758,182.928l2.587-2.538a14.291,14.291,0,0,1-3.973-1.217l.939,3.631A.266.266,0,0,0,237.758,182.928Z" transform="translate(-229.274 -150.728)" fill="#09909f"/>
            </g>
          </g>
          <g id="Group_17499" data-name="Group 17499" transform="translate(64.208 310.335) rotate(-20)" opacity="0.2">
            <g id="Group_17490-5" data-name="Group 17490" transform="translate(179.423 106.776)">
              <g id="Group_17489-5" data-name="Group 17489">
                <path id="Path_10172-5" data-name="Path 10172" d="M242.4,102.882a14.394,14.394,0,1,0-5.252,19.667A14.394,14.394,0,0,0,242.4,102.882Z" transform="translate(-215.54 -95.693)" fill="#09909f"/>
                <circle id="Ellipse_1282-5" data-name="Ellipse 1282" cx="11.821" cy="11.821" r="11.821" transform="translate(2.575 2.575)" fill="#fff"/>
              </g>
              <path id="Path_10173-5" data-name="Path 10173" d="M237.758,182.928l2.587-2.538a14.291,14.291,0,0,1-3.973-1.217l.939,3.631A.266.266,0,0,0,237.758,182.928Z" transform="translate(-229.274 -150.728)" fill="#09909f"/>
            </g>
          </g>
          <g id="Group_17500" data-name="Group 17500" transform="translate(112.783 278.245) rotate(-20)" opacity="0.2">
            <g id="Group_17490-6" data-name="Group 17490" transform="translate(179.423 106.776)">
              <g id="Group_17489-6" data-name="Group 17489">
                <path id="Path_10172-6" data-name="Path 10172" d="M242.4,102.882a14.394,14.394,0,1,0-5.252,19.667A14.394,14.394,0,0,0,242.4,102.882Z" transform="translate(-215.54 -95.693)" fill="#09909f"/>
                <circle id="Ellipse_1282-6" data-name="Ellipse 1282" cx="11.821" cy="11.821" r="11.821" transform="translate(2.575 2.575)" fill="#fff"/>
              </g>
              <path id="Path_10173-6" data-name="Path 10173" d="M237.758,182.928l2.587-2.538a14.291,14.291,0,0,1-3.973-1.217l.939,3.631A.266.266,0,0,0,237.758,182.928Z" transform="translate(-229.274 -150.728)" fill="#09909f"/>
            </g>
          </g>
          <g id="Group_17501" data-name="Group 17501" transform="translate(152.878 243.066) rotate(-20)" opacity="0.2">
            <g id="Group_17490-7" data-name="Group 17490" transform="translate(179.423 106.776)">
              <g id="Group_17489-7" data-name="Group 17489">
                <path id="Path_10172-7" data-name="Path 10172" d="M242.4,102.882a14.394,14.394,0,1,0-5.252,19.667A14.394,14.394,0,0,0,242.4,102.882Z" transform="translate(-215.54 -95.693)" fill="#09909f"/>
                <circle id="Ellipse_1282-7" data-name="Ellipse 1282" cx="11.821" cy="11.821" r="11.821" transform="translate(2.575 2.575)" fill="#fff"/>
              </g>
              <path id="Path_10173-7" data-name="Path 10173" d="M237.758,182.928l2.587-2.538a14.291,14.291,0,0,1-3.973-1.217l.939,3.631A.266.266,0,0,0,237.758,182.928Z" transform="translate(-229.274 -150.728)" fill="#09909f"/>
            </g>
          </g>
          <g id="Group_17502" data-name="Group 17502" transform="translate(186.878 209.363) rotate(-20)" opacity="0.2">
            <g id="Group_17490-8" data-name="Group 17490" transform="translate(179.423 106.776)">
              <g id="Group_17489-8" data-name="Group 17489">
                <path id="Path_10172-8" data-name="Path 10172" d="M242.4,102.882a14.394,14.394,0,1,0-5.252,19.667A14.394,14.394,0,0,0,242.4,102.882Z" transform="translate(-215.54 -95.693)" fill="#09909f"/>
                <circle id="Ellipse_1282-8" data-name="Ellipse 1282" cx="11.821" cy="11.821" r="11.821" transform="translate(2.575 2.575)" fill="#fff"/>
              </g>
              <path id="Path_10173-8" data-name="Path 10173" d="M237.758,182.928l2.587-2.538a14.291,14.291,0,0,1-3.973-1.217l.939,3.631A.266.266,0,0,0,237.758,182.928Z" transform="translate(-229.274 -150.728)" fill="#09909f"/>
            </g>
          </g>
        </g>
      </g>
    </g>
  </g>
</svg>
