<svg xmlns="http://www.w3.org/2000/svg" width="232.832" height="70.916" viewBox="0 0 232.832 70.916">
  <g id="Group_16029" data-name="Group 16029" transform="translate(-325.542 -405.642)">
    <g id="Group_16030" data-name="Group 16030" transform="translate(-7.692 0)">
      <g id="Group_328" data-name="Group 328" transform="translate(335.234 407.642)">
        <g id="Group_326" data-name="Group 326" transform="translate(0)">
          <path id="Path_152" data-name="Path 152" d="M362.234,455.645V443.554H374.1" transform="translate(-362.234 -443.554)" fill="none" stroke="#34c6c8" stroke-width="4"/>
          <path id="Path_153" data-name="Path 153" d="M625.983,444.107h12.092v11.862" transform="translate(-571.159 -443.992)" fill="none" stroke="#34c6c8" stroke-width="4"/>
        </g>
        <g id="Group_327" data-name="Group 327" transform="translate(0 54.824)">
          <path id="Path_154" data-name="Path 154" d="M362.234,707.3v12.092H374.1" transform="translate(-362.234 -707.303)" fill="none" stroke="#34c6c8" stroke-width="4"/>
          <path id="Path_155" data-name="Path 155" d="M625.983,719.164h12.092V707.3" transform="translate(-571.159 -707.303)" fill="none" stroke="#34c6c8" stroke-width="4"/>
        </g>
      </g>
      <g id="Group_330" data-name="Group 330" transform="translate(348.042 412.79)">
        <g id="Group_329" data-name="Group 329" transform="translate(0)">
          <path id="Path_156" data-name="Path 156" d="M517.281,630.594c-10.378-3.518-16.668-24.162-7.265-25.978,8.5-1.642,8.563,17.336,19.12,10.239" transform="translate(-488.987 -575.532)" fill="none" stroke="#34c6c8" stroke-linecap="round" stroke-linejoin="round" stroke-width="2"/>
          <path id="Path_157" data-name="Path 157" d="M474.123,466.781a20.631,20.631,0,0,1,10.592-2.969,21.55,21.55,0,0,1,9.048,2.1" transform="translate(-464.051 -463.813)" fill="none" stroke="#34c6c8" stroke-linecap="round" stroke-linejoin="round" stroke-width="2"/>
          <path id="Path_158" data-name="Path 158" d="M499.111,617.442c-6.27-2.932-13.223-12.626-11.494-23.141a9.309,9.309,0,0,1,8.047-7.823c10.764-1.2,10.56,18.207,19.992,9.493" transform="translate(-474.717 -561.24)" fill="none" stroke="#34c6c8" stroke-linecap="round" stroke-linejoin="round" stroke-width="2"/>
          <path id="Path_159" data-name="Path 159" d="M481.915,601.924c-6.768-4-12.46-13.015-10.514-25a12.628,12.628,0,0,1,10.926-10.595c12.44-1.423,11.99,17.59,20.7,10.318" transform="translate(-461.811 -545.304)" fill="none" stroke="#34c6c8" stroke-linecap="round" stroke-linejoin="round" stroke-width="2"/>
          <path id="Path_160" data-name="Path 160" d="M534.8,645.729c-6.014-1.745-11.949-11.421-11.66-17.5a2.22,2.22,0,0,1,3.344-1.8c5.008,2.993,6.524,14.276,15.58,9.165" transform="translate(-502.987 -592.594)" fill="none" stroke="#34c6c8" stroke-linecap="round" stroke-linejoin="round" stroke-width="2"/>
          <path id="Path_161" data-name="Path 161" d="M461.875,586.7c-6.181-5.455-9.755-13.515-8.7-23.432a16.708,16.708,0,0,1,15.535-15.091c13.338-.691,12.2,16.065,19.758,10.862" transform="translate(-447.166 -531.002)" fill="none" stroke="#34c6c8" stroke-linecap="round" stroke-linejoin="round" stroke-width="2"/>
          <path id="Path_162" data-name="Path 162" d="M438.476,563.264c-1.983-4.527-3.545-10.186-2.652-16.231,1.569-10.614,8.223-19.444,18.98-19.445,14.389,0,14.389,13.279,19.816,11.464" transform="translate(-433.4 -514.753)" fill="none" stroke="#34c6c8" stroke-linecap="round" stroke-linejoin="round" stroke-width="2"/>
          <path id="Path_163" data-name="Path 163" d="M425.245,524.067c.869-5.559,7.876-21.938,23.528-20.017,9.5,1.166,12.423,9.433,16.773,11.118" transform="translate(-425.245 -495.482)" fill="none" stroke="#34c6c8" stroke-linecap="round" stroke-linejoin="round" stroke-width="2"/>
          <path id="Path_164" data-name="Path 164" d="M431.605,495.915c7.567-15.224,28.266-17.073,38.046-2.019" transform="translate(-430.27 -479.371)" fill="none" stroke="#34c6c8" stroke-linecap="round" stroke-linejoin="round" stroke-width="2"/>
          <path id="Path_165" data-name="Path 165" d="M542.96,653.775c1.628,3.3,5.382,9.281,11.432,9.984" transform="translate(-518.655 -614.453)" fill="none" stroke="#34c6c8" stroke-linecap="round" stroke-linejoin="round" stroke-width="2"/>
        </g>
      </g>
      <g id="Group_331" data-name="Group 331" transform="translate(421.291 412.8)">
        <path id="Path_166" data-name="Path 166" d="M778.812,456.351h-2.718v-5.676h2.718v-5.436h6.835v5.436h4.477v5.676h-4.477V465.3c0,1.319.56,1.879,2.079,1.879h2.438v5.8h-3.478c-4.637,0-7.874-1.959-7.874-7.754Z" transform="translate(-776.094 -440.962)" fill="#161616"/>
        <path id="Path_167" data-name="Path 167" d="M885.984,421.674a4.077,4.077,0,1,1,4.077,3.677A3.782,3.782,0,0,1,885.984,421.674Zm.64,6h6.835v22.3h-6.835Z" transform="translate(-868.757 -417.957)" fill="#161616"/>
        <path id="Path_168" data-name="Path 168" d="M996.02,488.819c0-2.918-1.679-4.517-4.277-4.517s-4.277,1.6-4.277,4.517V500.93h-6.8V488.819c0-2.918-1.679-4.517-4.277-4.517s-4.277,1.6-4.277,4.517V500.93h-6.835v-22.3h6.835v2.8a7.868,7.868,0,0,1,6.515-3.038,8.332,8.332,0,0,1,7.595,4.157,8.97,8.97,0,0,1,7.515-4.157c5.516,0,9.074,3.517,9.074,9.513V500.93h-6.8Z" transform="translate(-935.624 -468.913)" fill="#161616"/>
        <path id="Path_169" data-name="Path 169" d="M1237.9,500.82c-6.555,0-11.272-4.4-11.272-11.472s4.637-11.472,11.272-11.472c6.515,0,11.112,4.317,11.112,11.112a17.3,17.3,0,0,1-.12,2h-15.469c.24,2.918,2.038,4.277,4.237,4.277a3.634,3.634,0,0,0,3.557-2.159h7.275C1247.413,497.462,1243.456,500.82,1237.9,500.82Zm-4.437-13.63h8.554c0-2.438-1.919-3.837-4.2-3.837A4.227,4.227,0,0,0,1233.463,487.189Z" transform="translate(-1156 -468.483)" fill="#161616"/>
        <path id="Path_170" data-name="Path 170" d="M1406.07,477.876c5.476,0,9.833,4.4,9.833,11.432s-4.357,11.512-9.833,11.512a8.023,8.023,0,0,1-6.875-3.437v13.75h-6.835V478.2h6.835v3.158A7.863,7.863,0,0,1,1406.07,477.876Zm-2.038,5.956c-2.558,0-4.876,1.959-4.876,5.516s2.318,5.516,4.876,5.516c2.6,0,4.917-2,4.917-5.556S1406.63,483.832,1404.032,483.832Z" transform="translate(-1295.75 -468.483)" fill="#161616"/>
        <path id="Path_171" data-name="Path 171" d="M1568.087,500.82c-6.555,0-11.272-4.4-11.272-11.472s4.637-11.472,11.272-11.472c6.515,0,11.112,4.317,11.112,11.112a17.273,17.273,0,0,1-.12,2H1563.61c.24,2.918,2.038,4.277,4.237,4.277a3.634,3.634,0,0,0,3.557-2.159h7.275C1577.6,497.462,1573.643,500.82,1568.087,500.82Zm-4.437-13.63h8.554c0-2.438-1.918-3.837-4.2-3.837A4.228,4.228,0,0,0,1563.65,487.189Z" transform="translate(-1434.424 -468.483)" fill="#161616"/>
      </g>
      <g id="Group_332" data-name="Group 332" transform="translate(421.6 458.021)">
        <path id="Path_172" data-name="Path 172" d="M778.786,714.749h-.719V713.72h.719v-1.515h1.272v1.515h1.482v1.029h-1.482v3.373c0,.454.177.642.708.642h.774v1.051h-1c-1.084,0-1.758-.453-1.758-1.692Z" transform="translate(-778.067 -711.298)" fill="#161616"/>
        <path id="Path_173" data-name="Path 173" d="M809.248,707.228a.8.8,0,1,1,.807.807A.8.8,0,0,1,809.248,707.228Zm.166,1.615h1.261v6.093h-1.261Z" transform="translate(-804.36 -706.421)" fill="#161616"/>
        <path id="Path_174" data-name="Path 174" d="M840.247,724.021c0-1.117-.608-1.692-1.526-1.692a1.477,1.477,0,0,0-1.537,1.692v3.406h-1.25v-3.406c0-1.117-.608-1.692-1.526-1.692a1.477,1.477,0,0,0-1.537,1.692v3.406H831.61v-6.093h1.261v.7a2.321,2.321,0,0,1,1.8-.8,2.35,2.35,0,0,1,2.19,1.205,2.5,2.5,0,0,1,4.633,1.393v3.594h-1.25Z" transform="translate(-823.216 -718.912)" fill="#161616"/>
        <path id="Path_175" data-name="Path 175" d="M907.948,727.526a2.956,2.956,0,0,1-3.041-3.152,2.918,2.918,0,0,1,3.041-3.141,2.842,2.842,0,0,1,2.964,3,3.885,3.885,0,0,1-.044.619h-4.656a1.676,1.676,0,0,0,1.736,1.615,1.475,1.475,0,0,0,1.438-.852h1.36A2.784,2.784,0,0,1,907.948,727.526Zm-1.725-3.693H909.6a1.582,1.582,0,0,0-1.7-1.537A1.659,1.659,0,0,0,906.223,723.833Z" transform="translate(-885.023 -718.912)" fill="#161616"/>
        <path id="Path_176" data-name="Path 176" d="M973.759,707.228a.8.8,0,1,1,.807.807A.8.8,0,0,1,973.759,707.228Zm.166,1.615h1.261v6.093h-1.261Z" transform="translate(-943.081 -706.421)" fill="#161616"/>
        <path id="Path_177" data-name="Path 177" d="M996.549,727.526a2.3,2.3,0,0,1-2.543-1.969h1.3a1.112,1.112,0,0,0,1.217.907c.73,0,1.117-.31,1.117-.73,0-1.194-3.539-.509-3.539-2.742,0-.973.907-1.758,2.344-1.758a2.089,2.089,0,0,1,2.355,1.957h-1.261a1.008,1.008,0,0,0-1.139-.9c-.675,0-1.028.276-1.028.686,0,1.227,3.439.542,3.505,2.742C998.882,726.752,997.986,727.526,996.549,727.526Z" transform="translate(-960.153 -718.912)" fill="#161616"/>
        <path id="Path_178" data-name="Path 178" d="M1066.133,724.021c0-1.117-.608-1.692-1.526-1.692a1.477,1.477,0,0,0-1.537,1.692v3.406h-1.25v-3.406c0-1.117-.608-1.692-1.526-1.692a1.477,1.477,0,0,0-1.537,1.692v3.406H1057.5v-6.093h1.261v.7a2.321,2.321,0,0,1,1.8-.8,2.35,2.35,0,0,1,2.19,1.205,2.5,2.5,0,0,1,4.634,1.393v3.594h-1.25Z" transform="translate(-1013.691 -718.912)" fill="#161616"/>
        <path id="Path_179" data-name="Path 179" d="M1133.915,727.526a2.971,2.971,0,0,1-3.052-3.152,3.108,3.108,0,1,1,6.215,0A3.052,3.052,0,0,1,1133.915,727.526Zm0-1.095a1.877,1.877,0,0,0,1.869-2.057,1.844,1.844,0,0,0-1.836-2.046,2.071,2.071,0,0,0-.033,4.1Z" transform="translate(-1075.556 -718.912)" fill="#161616"/>
        <path id="Path_180" data-name="Path 180" d="M1185.485,724.021c0-1.117-.608-1.692-1.526-1.692a1.477,1.477,0,0,0-1.537,1.692v3.406h-1.26v-6.093h1.26v.7a2.345,2.345,0,0,1,1.814-.8,2.373,2.373,0,0,1,2.5,2.6v3.594h-1.25Z" transform="translate(-1117.969 -718.912)" fill="#161616"/>
        <path id="Path_181" data-name="Path 181" d="M1229.985,727.526a2.956,2.956,0,0,1-3.041-3.152,2.918,2.918,0,0,1,3.041-3.141,2.842,2.842,0,0,1,2.964,3,3.87,3.87,0,0,1-.044.619h-4.656a1.676,1.676,0,0,0,1.736,1.615,1.475,1.475,0,0,0,1.438-.852h1.36A2.784,2.784,0,0,1,1229.985,727.526Zm-1.725-3.693h3.373a1.582,1.582,0,0,0-1.7-1.537A1.66,1.66,0,0,0,1228.26,723.833Z" transform="translate(-1156.575 -718.912)" fill="#161616"/>
        <path id="Path_182" data-name="Path 182" d="M1276.145,721.869h1.3l-3.738,8.958h-1.305l1.239-2.964-2.4-5.994h1.4l1.714,4.644Z" transform="translate(-1193.932 -719.447)" fill="#161616"/>
      </g>
    </g>
  </g>
</svg>
