<svg xmlns="http://www.w3.org/2000/svg" width="24.859" height="33.529" viewBox="0 0 24.859 33.529">
  <g id="Group_330" data-name="Group 330" transform="translate(0.572 0.5)">
    <g id="Group_329" data-name="Group 329" transform="translate(0)">
      <path id="Path_156" data-name="Path 156" d="M512.192,619.412c-5.929-2.01-9.522-13.8-4.15-14.84,4.856-.938,4.892,9.9,10.923,5.849" transform="translate(-496.029 -587.958)" fill="none" stroke="#34c6c8" stroke-linecap="round" stroke-linejoin="round" stroke-width="1"/>
      <path id="Path_157" data-name="Path 157" d="M474.123,465.509a11.786,11.786,0,0,1,6.051-1.7,12.311,12.311,0,0,1,5.169,1.2" transform="translate(-468.369 -463.813)" fill="none" stroke="#34c6c8" stroke-linecap="round" stroke-linejoin="round" stroke-width="1"/>
      <path id="Path_158" data-name="Path 158" d="M494.068,604.144c-3.582-1.675-7.554-7.213-6.566-13.219a5.318,5.318,0,0,1,4.6-4.469c6.149-.687,6.033,10.4,11.42,5.423" transform="translate(-480.133 -572.038)" fill="none" stroke="#34c6c8" stroke-linecap="round" stroke-linejoin="round" stroke-width="1"/>
      <path id="Path_159" data-name="Path 159" d="M477.241,586.631c-3.866-2.283-7.118-7.435-6.006-14.28a7.214,7.214,0,0,1,6.241-6.052c7.106-.813,6.85,10.049,11.828,5.894" transform="translate(-465.757 -554.287)" fill="none" stroke="#34c6c8" stroke-linecap="round" stroke-linejoin="round" stroke-width="1"/>
      <path id="Path_160" data-name="Path 160" d="M529.8,637.317c-3.435-1-6.826-6.524-6.661-10a1.268,1.268,0,0,1,1.911-1.03c2.861,1.71,3.727,8.156,8.9,5.235" transform="translate(-511.623 -606.963)" fill="none" stroke="#34c6c8" stroke-linecap="round" stroke-linejoin="round" stroke-width="1"/>
      <path id="Path_161" data-name="Path 161" d="M458.065,570.172a15.135,15.135,0,0,1-4.971-13.385,9.545,9.545,0,0,1,8.875-8.621c7.62-.395,6.967,9.177,11.287,6.2" transform="translate(-449.663 -538.356)" fill="none" stroke="#34c6c8" stroke-linecap="round" stroke-linejoin="round" stroke-width="1"/>
      <path id="Path_162" data-name="Path 162" d="M437.229,547.968a17,17,0,0,1-1.515-9.272c.9-6.063,4.7-11.108,10.842-11.108,8.22,0,8.22,7.586,11.32,6.549" transform="translate(-434.329 -520.256)" fill="none" stroke="#34c6c8" stroke-linecap="round" stroke-linejoin="round" stroke-width="1"/>
      <path id="Path_163" data-name="Path 163" d="M425.245,515.419c.5-3.176,4.5-12.532,13.441-11.435,5.428.666,7.1,5.388,9.581,6.351" transform="translate(-425.245 -499.089)" fill="none" stroke="#34c6c8" stroke-linecap="round" stroke-linejoin="round" stroke-width="1"/>
      <path id="Path_164" data-name="Path 164" d="M431.605,490.594a12.357,12.357,0,0,1,21.734-1.153" transform="translate(-430.843 -481.144)" fill="none" stroke="#34c6c8" stroke-linecap="round" stroke-linejoin="round" stroke-width="1"/>
      <path id="Path_165" data-name="Path 165" d="M542.96,653.775c.93,1.883,3.075,5.3,6.531,5.7" transform="translate(-529.076 -631.312)" fill="none" stroke="#34c6c8" stroke-linecap="round" stroke-linejoin="round" stroke-width="1"/>
    </g>
  </g>
</svg>
